STARTFONT 2.1
FONT -FontForge-Abyssinica SIL-Book-R-Normal--12-120-75-75-P-78-ISO10646-1
SIZE 12 75 75
FONTBOUNDINGBOX 28 16 -11 -4
COMMENT "Generated by fontforge, http://fontforge.sourceforge.net"
COMMENT "Copyright (c) 2000-2013 by SIL International. All rights reserved."
STARTPROPERTIES 39
FOUNDRY "FontForge"
FAMILY_NAME "Abyssinica SIL"
WEIGHT_NAME "Book"
SLANT "R"
SETWIDTH_NAME "Normal"
ADD_STYLE_NAME ""
PIXEL_SIZE 12
POINT_SIZE 120
RESOLUTION_X 75
RESOLUTION_Y 75
SPACING "P"
AVERAGE_WIDTH 78
CHARSET_REGISTRY "ISO10646"
CHARSET_ENCODING "1"
FONTNAME_REGISTRY ""
CHARSET_COLLECTIONS "ISO10646-1"
FONT_NAME "AbyssinicaSIL"
FACE_NAME "Abyssinica SIL"
COPYRIGHT "Copyright (c) 2000-2013 by SIL International. All rights reserved."
FONT_VERSION "1.500"
FONT_ASCENT 10
FONT_DESCENT 2
UNDERLINE_POSITION -2
UNDERLINE_THICKNESS 1
X_HEIGHT 5
CAP_HEIGHT 7
RAW_ASCENT 844
RAW_DESCENT 155
NORM_SPACE 5
RELATIVE_WEIGHT 40
RELATIVE_SETWIDTH 50
SUPERSCRIPT_X 0
SUPERSCRIPT_Y 5
SUPERSCRIPT_SIZE 7
SUBSCRIPT_X 0
SUBSCRIPT_Y 1
SUBSCRIPT_SIZE 7
AVG_LOWERCASE_WIDTH 68
AVG_UPPERCASE_WIDTH 80
ENDPROPERTIES
CHARS 1027
STARTCHAR tab
ENCODING 9
SWIDTH 312 0
DWIDTH 4 0
BBX 1 1 0 0
BITMAP
00
ENDCHAR
STARTCHAR space
ENCODING 32
SWIDTH 450 0
DWIDTH 5 0
BBX 1 1 0 0
BITMAP
00
ENDCHAR
STARTCHAR exclam
ENCODING 33
SWIDTH 540 0
DWIDTH 6 0
BBX 2 8 2 0
BITMAP
C0
C0
C0
80
80
00
C0
C0
ENDCHAR
STARTCHAR quotedbl
ENCODING 34
SWIDTH 454 0
DWIDTH 6 0
BBX 4 4 1 4
BITMAP
F0
F0
F0
A0
ENDCHAR
STARTCHAR numbersign
ENCODING 35
SWIDTH 743 0
DWIDTH 9 0
BBX 7 9 1 0
BITMAP
14
14
24
FE
28
FE
50
50
90
ENDCHAR
STARTCHAR dollar
ENCODING 36
SWIDTH 540 0
DWIDTH 6 0
BBX 6 9 0 -1
BITMAP
70
F8
F4
70
38
3C
FC
78
30
ENDCHAR
STARTCHAR percent
ENCODING 37
SWIDTH 789 0
DWIDTH 9 0
BBX 9 8 1 0
BITMAP
6300
F600
F400
F800
6F00
1980
3980
2F00
ENDCHAR
STARTCHAR ampersand
ENCODING 38
SWIDTH 699 0
DWIDTH 8 0
BBX 9 8 0 0
BITMAP
3800
6C00
6C00
3000
4B00
C600
E600
7B80
ENDCHAR
STARTCHAR quotesingle
ENCODING 39
SWIDTH 187 0
DWIDTH 2 0
BBX 1 4 1 4
BITMAP
80
80
80
80
ENDCHAR
STARTCHAR parenleft
ENCODING 40
SWIDTH 332 0
DWIDTH 4 0
BBX 2 8 0 0
BITMAP
40
40
C0
C0
C0
C0
40
40
ENDCHAR
STARTCHAR parenright
ENCODING 41
SWIDTH 332 0
DWIDTH 4 0
BBX 2 8 1 0
BITMAP
80
80
C0
C0
C0
C0
80
80
ENDCHAR
STARTCHAR asterisk
ENCODING 42
SWIDTH 486 0
DWIDTH 6 0
BBX 6 4 0 4
BITMAP
30
EC
38
68
ENDCHAR
STARTCHAR plus
ENCODING 43
SWIDTH 586 0
DWIDTH 7 0
BBX 6 5 1 1
BITMAP
30
30
FC
30
30
ENDCHAR
STARTCHAR comma
ENCODING 44
SWIDTH 339 0
DWIDTH 4 0
BBX 2 4 1 -2
BITMAP
C0
C0
C0
80
ENDCHAR
STARTCHAR hyphenminus
ENCODING 45
SWIDTH 367 0
DWIDTH 4 0
BBX 3 1 1 2
BITMAP
E0
ENDCHAR
STARTCHAR period
ENCODING 46
SWIDTH 318 0
DWIDTH 4 0
BBX 2 2 1 0
BITMAP
C0
C0
ENDCHAR
STARTCHAR slash
ENCODING 47
SWIDTH 407 0
DWIDTH 5 0
BBX 5 8 0 0
BITMAP
18
10
30
20
20
40
40
C0
ENDCHAR
STARTCHAR zero
ENCODING 48
SWIDTH 540 0
DWIDTH 7 0
BBX 5 8 1 0
BITMAP
70
D8
D8
D8
D8
D8
D8
70
ENDCHAR
STARTCHAR one
ENCODING 49
SWIDTH 540 0
DWIDTH 6 0
BBX 2 7 2 0
BITMAP
40
C0
40
40
40
C0
C0
ENDCHAR
STARTCHAR two
ENCODING 50
SWIDTH 540 0
DWIDTH 7 0
BBX 5 8 1 0
BITMAP
70
D8
18
18
30
20
40
F0
ENDCHAR
STARTCHAR three
ENCODING 51
SWIDTH 540 0
DWIDTH 7 0
BBX 6 8 0 0
BITMAP
78
CC
0C
0C
38
0C
CC
78
ENDCHAR
STARTCHAR four
ENCODING 52
SWIDTH 540 0
DWIDTH 7 0
BBX 7 7 0 0
BITMAP
1C
2C
6C
4C
FE
0C
0C
ENDCHAR
STARTCHAR five
ENCODING 53
SWIDTH 540 0
DWIDTH 6 0
BBX 6 7 0 0
BITMAP
78
80
B8
CC
0C
CC
70
ENDCHAR
STARTCHAR six
ENCODING 54
SWIDTH 540 0
DWIDTH 6 0
BBX 6 8 0 0
BITMAP
78
4C
C0
F8
CC
CC
CC
78
ENDCHAR
STARTCHAR seven
ENCODING 55
SWIDTH 540 0
DWIDTH 6 0
BBX 5 7 1 0
BITMAP
F8
10
10
30
20
60
C0
ENDCHAR
STARTCHAR eight
ENCODING 56
SWIDTH 540 0
DWIDTH 7 0
BBX 6 8 0 0
BITMAP
78
CC
CC
CC
30
CC
CC
78
ENDCHAR
STARTCHAR nine
ENCODING 57
SWIDTH 540 0
DWIDTH 6 0
BBX 6 8 0 0
BITMAP
78
CC
CC
CC
7C
0C
C8
78
ENDCHAR
STARTCHAR colon
ENCODING 58
SWIDTH 279 0
DWIDTH 3 0
BBX 2 6 1 0
BITMAP
C0
C0
00
00
C0
C0
ENDCHAR
STARTCHAR semicolon
ENCODING 59
SWIDTH 279 0
DWIDTH 3 0
BBX 2 8 1 -2
BITMAP
C0
C0
00
00
00
C0
40
80
ENDCHAR
STARTCHAR less
ENCODING 60
SWIDTH 833 0
DWIDTH 10 0
BBX 6 7 2 0
BITMAP
04
18
60
80
60
18
04
ENDCHAR
STARTCHAR equal
ENCODING 61
SWIDTH 592 0
DWIDTH 7 0
BBX 5 3 1 2
BITMAP
F8
00
F8
ENDCHAR
STARTCHAR greater
ENCODING 62
SWIDTH 833 0
DWIDTH 10 0
BBX 6 7 2 0
BITMAP
80
60
18
04
18
60
80
ENDCHAR
STARTCHAR question
ENCODING 63
SWIDTH 585 0
DWIDTH 7 0
BBX 4 8 1 0
BITMAP
F0
30
30
60
40
00
60
60
ENDCHAR
STARTCHAR at
ENCODING 64
SWIDTH 936 0
DWIDTH 11 0
BBX 10 11 1 -2
BITMAP
1F00
2080
4040
8F40
9640
B640
B480
BF00
4000
6100
1E00
ENDCHAR
STARTCHAR A
ENCODING 65
SWIDTH 673 0
DWIDTH 8 0
BBX 8 8 0 0
BITMAP
18
18
28
24
3C
46
42
C7
ENDCHAR
STARTCHAR B
ENCODING 66
SWIDTH 604 0
DWIDTH 8 0
BBX 8 8 0 0
BITMAP
FC
66
64
7E
63
63
63
FE
ENDCHAR
STARTCHAR C
ENCODING 67
SWIDTH 626 0
DWIDTH 8 0
BBX 7 8 0 0
BITMAP
1E
62
C0
C0
C0
C2
62
1E
ENDCHAR
STARTCHAR D
ENCODING 68
SWIDTH 695 0
DWIDTH 10 0
BBX 9 8 0 0
BITMAP
FE00
6300
6180
6180
6180
6180
6300
FE00
ENDCHAR
STARTCHAR E
ENCODING 69
SWIDTH 583 0
DWIDTH 7 0
BBX 7 8 0 0
BITMAP
FE
62
64
7C
64
60
62
FE
ENDCHAR
STARTCHAR F
ENCODING 70
SWIDTH 541 0
DWIDTH 7 0
BBX 7 8 0 0
BITMAP
FE
62
64
7C
64
60
60
F0
ENDCHAR
STARTCHAR G
ENCODING 71
SWIDTH 694 0
DWIDTH 9 0
BBX 9 8 0 0
BITMAP
3F00
6300
C000
C000
C780
C300
6300
3E00
ENDCHAR
STARTCHAR H
ENCODING 72
SWIDTH 743 0
DWIDTH 9 0
BBX 9 9 0 0
BITMAP
F780
6300
6300
6300
7F00
6300
6300
6300
F780
ENDCHAR
STARTCHAR I
ENCODING 73
SWIDTH 330 0
DWIDTH 4 0
BBX 4 8 0 0
BITMAP
F0
60
60
60
60
60
60
F0
ENDCHAR
STARTCHAR J
ENCODING 74
SWIDTH 484 0
DWIDTH 6 0
BBX 6 9 0 0
BITMAP
3C
18
18
18
18
18
18
90
E0
ENDCHAR
STARTCHAR K
ENCODING 75
SWIDTH 638 0
DWIDTH 8 0
BBX 8 8 0 0
BITMAP
F7
62
64
68
78
64
62
F3
ENDCHAR
STARTCHAR L
ENCODING 76
SWIDTH 530 0
DWIDTH 6 0
BBX 7 9 0 0
BITMAP
F0
60
60
60
60
60
62
62
FE
ENDCHAR
STARTCHAR M
ENCODING 77
SWIDTH 875 0
DWIDTH 11 0
BBX 10 8 1 0
BITMAP
E1C0
A180
B780
7580
5580
5980
5980
CBC0
ENDCHAR
STARTCHAR N
ENCODING 78
SWIDTH 721 0
DWIDTH 9 0
BBX 9 8 0 0
BITMAP
E380
6100
5100
4900
4D00
4500
4300
E100
ENDCHAR
STARTCHAR O
ENCODING 79
SWIDTH 730 0
DWIDTH 10 0
BBX 9 8 0 0
BITMAP
3E00
6300
C180
C180
C180
C180
6300
3E00
ENDCHAR
STARTCHAR P
ENCODING 80
SWIDTH 579 0
DWIDTH 8 0
BBX 7 8 0 0
BITMAP
FC
66
66
66
7C
60
60
F0
ENDCHAR
STARTCHAR Q
ENCODING 81
SWIDTH 738 0
DWIDTH 9 0
BBX 9 10 0 -2
BITMAP
3E00
6300
C180
C180
C180
C180
6300
3C00
1800
0F00
ENDCHAR
STARTCHAR R
ENCODING 82
SWIDTH 648 0
DWIDTH 8 0
BBX 8 8 0 0
BITMAP
FC
66
66
66
78
64
66
F3
ENDCHAR
STARTCHAR S
ENCODING 83
SWIDTH 520 0
DWIDTH 8 0
BBX 6 8 1 0
BITMAP
78
C8
C8
60
18
8C
8C
F0
ENDCHAR
STARTCHAR T
ENCODING 84
SWIDTH 599 0
DWIDTH 7 0
BBX 8 8 0 0
BITMAP
FF
99
18
18
18
18
18
3C
ENDCHAR
STARTCHAR U
ENCODING 85
SWIDTH 711 0
DWIDTH 8 0
BBX 8 8 0 0
BITMAP
F7
62
62
62
62
62
62
3C
ENDCHAR
STARTCHAR V
ENCODING 86
SWIDTH 666 0
DWIDTH 8 0
BBX 8 8 0 0
BITMAP
E7
42
24
24
34
18
18
18
ENDCHAR
STARTCHAR W
ENCODING 87
SWIDTH 931 0
DWIDTH 11 0
BBX 11 8 0 0
BITMAP
E460
4640
4A40
2A40
2980
3180
3180
1180
ENDCHAR
STARTCHAR X
ENCODING 88
SWIDTH 633 0
DWIDTH 8 0
BBX 7 8 0 0
BITMAP
E6
24
38
18
18
2C
44
EE
ENDCHAR
STARTCHAR Y
ENCODING 89
SWIDTH 625 0
DWIDTH 8 0
BBX 8 8 0 0
BITMAP
E3
62
24
34
18
18
18
3C
ENDCHAR
STARTCHAR Z
ENCODING 90
SWIDTH 575 0
DWIDTH 7 0
BBX 6 8 0 0
BITMAP
7C
44
08
10
10
24
44
FC
ENDCHAR
STARTCHAR bracketleft
ENCODING 91
SWIDTH 332 0
DWIDTH 4 0
BBX 2 10 1 -1
BITMAP
C0
C0
C0
C0
C0
C0
C0
C0
C0
C0
ENDCHAR
STARTCHAR backslash
ENCODING 92
SWIDTH 405 0
DWIDTH 5 0
BBX 5 8 0 0
BITMAP
C0
40
40
20
20
30
10
18
ENDCHAR
STARTCHAR bracketright
ENCODING 93
SWIDTH 332 0
DWIDTH 4 0
BBX 2 10 1 -1
BITMAP
C0
C0
C0
C0
C0
C0
C0
C0
C0
C0
ENDCHAR
STARTCHAR asciicircum
ENCODING 94
SWIDTH 958 0
DWIDTH 12 0
BBX 6 7 3 0
BITMAP
20
30
50
50
88
88
84
ENDCHAR
STARTCHAR underscore
ENCODING 95
SWIDTH 600 0
DWIDTH 7 0
BBX 7 1 0 -4
BITMAP
FE
ENDCHAR
STARTCHAR grave
ENCODING 96
SWIDTH 350 0
DWIDTH 4 0
BBX 3 2 0 7
BITMAP
80
60
ENDCHAR
STARTCHAR a
ENCODING 97
SWIDTH 508 0
DWIDTH 7 0
BBX 7 6 0 0
BITMAP
7C
CC
1C
6C
CC
FE
ENDCHAR
STARTCHAR b
ENCODING 98
SWIDTH 555 0
DWIDTH 8 0
BBX 7 9 0 0
BITMAP
E0
60
60
5C
66
66
66
66
78
ENDCHAR
STARTCHAR c
ENCODING 99
SWIDTH 465 0
DWIDTH 7 0
BBX 6 6 0 0
BITMAP
3C
CC
C0
C0
E4
78
ENDCHAR
STARTCHAR d
ENCODING 100
SWIDTH 563 0
DWIDTH 8 0
BBX 8 9 0 0
BITMAP
0E
06
06
7E
C6
C6
C6
E6
7F
ENDCHAR
STARTCHAR e
ENCODING 101
SWIDTH 490 0
DWIDTH 7 0
BBX 6 6 0 0
BITMAP
78
CC
FC
C0
E4
78
ENDCHAR
STARTCHAR f
ENCODING 102
SWIDTH 326 0
DWIDTH 4 0
BBX 5 9 0 0
BITMAP
38
40
40
70
C0
40
40
40
E0
ENDCHAR
STARTCHAR g
ENCODING 103
SWIDTH 524 0
DWIDTH 7 0
BBX 7 9 0 -3
BITMAP
7E
CC
CC
78
20
3C
C6
C6
78
ENDCHAR
STARTCHAR h
ENCODING 104
SWIDTH 574 0
DWIDTH 7 0
BBX 7 9 0 0
BITMAP
C0
C0
C0
DC
EC
CC
CC
CC
FE
ENDCHAR
STARTCHAR i
ENCODING 105
SWIDTH 303 0
DWIDTH 4 0
BBX 3 8 0 0
BITMAP
40
00
C0
C0
C0
C0
C0
E0
ENDCHAR
STARTCHAR j
ENCODING 106
SWIDTH 291 0
DWIDTH 4 0
BBX 4 11 -1 -3
BITMAP
30
00
70
30
30
30
30
30
30
20
C0
ENDCHAR
STARTCHAR k
ENCODING 107
SWIDTH 534 0
DWIDTH 6 0
BBX 6 9 0 0
BITMAP
C0
C0
C0
DC
D0
D0
F0
C8
EC
ENDCHAR
STARTCHAR l
ENCODING 108
SWIDTH 296 0
DWIDTH 4 0
BBX 3 9 0 0
BITMAP
C0
C0
C0
C0
C0
C0
C0
C0
E0
ENDCHAR
STARTCHAR m
ENCODING 109
SWIDTH 850 0
DWIDTH 11 0
BBX 11 6 0 0
BITMAP
DDC0
EEC0
CCC0
CCC0
CCC0
FFE0
ENDCHAR
STARTCHAR n
ENCODING 110
SWIDTH 566 0
DWIDTH 7 0
BBX 7 6 0 0
BITMAP
DC
EC
CC
CC
CC
FE
ENDCHAR
STARTCHAR o
ENCODING 111
SWIDTH 543 0
DWIDTH 8 0
BBX 7 6 0 0
BITMAP
7C
C6
C6
C6
C6
7C
ENDCHAR
STARTCHAR p
ENCODING 112
SWIDTH 559 0
DWIDTH 7 0
BBX 7 9 0 -3
BITMAP
DC
EE
C6
C6
CE
FC
C0
C0
E0
ENDCHAR
STARTCHAR q
ENCODING 113
SWIDTH 548 0
DWIDTH 7 0
BBX 7 9 0 -3
BITMAP
3C
CC
CC
CC
CC
7C
0C
0C
1E
ENDCHAR
STARTCHAR r
ENCODING 114
SWIDTH 391 0
DWIDTH 5 0
BBX 4 6 0 0
BITMAP
D0
E0
C0
C0
C0
E0
ENDCHAR
STARTCHAR s
ENCODING 115
SWIDTH 397 0
DWIDTH 6 0
BBX 5 6 1 0
BITMAP
78
C8
C0
30
B0
E0
ENDCHAR
STARTCHAR t
ENCODING 116
SWIDTH 339 0
DWIDTH 4 0
BBX 5 7 0 0
BITMAP
20
E0
60
60
60
60
78
ENDCHAR
STARTCHAR u
ENCODING 117
SWIDTH 568 0
DWIDTH 8 0
BBX 8 6 0 0
BITMAP
EE
66
66
66
66
7F
ENDCHAR
STARTCHAR v
ENCODING 118
SWIDTH 528 0
DWIDTH 6 0
BBX 6 6 0 0
BITMAP
EC
48
48
28
30
10
ENDCHAR
STARTCHAR w
ENCODING 119
SWIDTH 783 0
DWIDTH 9 0
BBX 9 6 0 0
BITMAP
ED80
4C80
5500
3500
3300
2200
ENDCHAR
STARTCHAR x
ENCODING 120
SWIDTH 509 0
DWIDTH 6 0
BBX 6 6 0 0
BITMAP
EC
30
30
30
48
DC
ENDCHAR
STARTCHAR y
ENCODING 121
SWIDTH 529 0
DWIDTH 6 0
BBX 6 9 0 -3
BITMAP
EC
48
68
28
30
10
20
20
C0
ENDCHAR
STARTCHAR z
ENCODING 122
SWIDTH 461 0
DWIDTH 6 0
BBX 5 6 0 0
BITMAP
78
90
20
20
48
F8
ENDCHAR
STARTCHAR braceleft
ENCODING 123
SWIDTH 487 0
DWIDTH 6 0
BBX 6 9 0 -1
BITMAP
3C
30
30
30
C0
30
30
30
1C
ENDCHAR
STARTCHAR bar
ENCODING 124
SWIDTH 500 0
DWIDTH 6 0
BBX 1 12 3 -3
BITMAP
80
80
80
80
80
80
80
80
80
80
80
80
ENDCHAR
STARTCHAR braceright
ENCODING 125
SWIDTH 487 0
DWIDTH 6 0
BBX 6 9 0 -1
BITMAP
F0
30
30
30
0C
30
30
30
E0
ENDCHAR
STARTCHAR asciitilde
ENCODING 126
SWIDTH 833 0
DWIDTH 10 0
BBX 8 1 1 3
BITMAP
FF
ENDCHAR
STARTCHAR NoBreakSpace
ENCODING 160
SWIDTH 292 0
DWIDTH 4 0
BBX 1 1 0 0
BITMAP
00
ENDCHAR
STARTCHAR exclamdown
ENCODING 161
SWIDTH 540 0
DWIDTH 6 0
BBX 2 8 2 -1
BITMAP
C0
C0
00
C0
C0
C0
C0
C0
ENDCHAR
STARTCHAR cent
ENCODING 162
SWIDTH 562 0
DWIDTH 7 0
BBX 5 8 0 -1
BITMAP
10
38
58
D0
D0
D8
78
10
ENDCHAR
STARTCHAR sterling
ENCODING 163
SWIDTH 562 0
DWIDTH 8 0
BBX 6 9 1 0
BITMAP
3C
6C
60
60
F8
60
60
40
FC
ENDCHAR
STARTCHAR currency
ENCODING 164
SWIDTH 605 0
DWIDTH 7 0
BBX 7 6 0 2
BITMAP
FE
44
44
44
38
44
ENDCHAR
STARTCHAR yen
ENCODING 165
SWIDTH 596 0
DWIDTH 7 0
BBX 8 8 0 0
BITMAP
E3
62
24
F7
DF
38
18
3C
ENDCHAR
STARTCHAR brokenbar
ENCODING 166
SWIDTH 500 0
DWIDTH 6 0
BBX 1 10 3 -2
BITMAP
80
80
80
80
00
00
80
80
80
80
ENDCHAR
STARTCHAR section
ENCODING 167
SWIDTH 500 0
DWIDTH 6 0
BBX 4 11 1 -2
BITMAP
70
D0
C0
60
90
90
D0
20
10
90
E0
ENDCHAR
STARTCHAR dieresis
ENCODING 168
SWIDTH 315 0
DWIDTH 5 0
BBX 4 1 0 7
BITMAP
F0
ENDCHAR
STARTCHAR copyright
ENCODING 169
SWIDTH 868 0
DWIDTH 10 0
BBX 9 9 1 0
BITMAP
3E00
4100
9C80
B280
B080
B080
B280
7F00
3E00
ENDCHAR
STARTCHAR ordfeminine
ENCODING 170
SWIDTH 340 0
DWIDTH 3 0
BBX 3 5 0 3
BITMAP
C0
40
C0
E0
E0
ENDCHAR
STARTCHAR guillemotleft
ENCODING 171
SWIDTH 600 0
DWIDTH 7 0
BBX 6 6 1 1
BITMAP
2C
58
50
D0
58
68
ENDCHAR
STARTCHAR logicalnot
ENCODING 172
SWIDTH 833 0
DWIDTH 11 0
BBX 7 3 2 2
BITMAP
FE
02
02
ENDCHAR
STARTCHAR uni00AD
ENCODING 173
SWIDTH 319 0
DWIDTH 4 0
BBX 2 1 1 2
BITMAP
C0
ENDCHAR
STARTCHAR registered
ENCODING 174
SWIDTH 836 0
DWIDTH 10 0
BBX 10 10 0 -1
BITMAP
1E00
6180
7E80
9240
9C40
9240
9240
7B80
6180
1E00
ENDCHAR
STARTCHAR macron
ENCODING 175
SWIDTH 334 0
DWIDTH 4 0
BBX 4 1 0 7
BITMAP
F0
ENDCHAR
STARTCHAR degree
ENCODING 176
SWIDTH 319 0
DWIDTH 5 0
BBX 4 3 0 6
BITMAP
70
90
70
ENDCHAR
STARTCHAR plusminus
ENCODING 177
SWIDTH 833 0
DWIDTH 10 0
BBX 8 7 1 0
BITMAP
08
08
7F
08
08
00
FF
ENDCHAR
STARTCHAR twosuperior
ENCODING 178
SWIDTH 404 0
DWIDTH 5 0
BBX 4 6 0 3
BITMAP
70
90
10
20
40
F0
ENDCHAR
STARTCHAR threesuperior
ENCODING 179
SWIDTH 404 0
DWIDTH 5 0
BBX 3 5 1 4
BITMAP
E0
20
40
20
E0
ENDCHAR
STARTCHAR acute
ENCODING 180
SWIDTH 351 0
DWIDTH 4 0
BBX 3 2 1 7
BITMAP
20
C0
ENDCHAR
STARTCHAR mu
ENCODING 181
SWIDTH 546 0
DWIDTH 7 0
BBX 6 9 1 -3
BITMAP
D8
D8
D8
D8
DC
FC
80
80
80
ENDCHAR
STARTCHAR paragraph
ENCODING 182
SWIDTH 560 0
DWIDTH 6 0
BBX 5 9 1 0
BITMAP
78
D0
D0
D0
50
50
50
50
50
ENDCHAR
STARTCHAR periodcentered
ENCODING 183
SWIDTH 280 0
DWIDTH 3 0
BBX 2 2 1 3
BITMAP
C0
C0
ENDCHAR
STARTCHAR cedilla
ENCODING 184
SWIDTH 230 0
DWIDTH 3 0
BBX 2 3 1 -3
BITMAP
C0
40
C0
ENDCHAR
STARTCHAR onesuperior
ENCODING 185
SWIDTH 404 0
DWIDTH 5 0
BBX 2 4 1 4
BITMAP
C0
40
40
40
ENDCHAR
STARTCHAR ordmasculine
ENCODING 186
SWIDTH 357 0
DWIDTH 5 0
BBX 4 5 0 3
BITMAP
70
90
90
70
F0
ENDCHAR
STARTCHAR guillemotright
ENCODING 187
SWIDTH 600 0
DWIDTH 7 0
BBX 5 6 1 1
BITMAP
B0
D0
58
78
D0
B0
ENDCHAR
STARTCHAR onequarter
ENCODING 188
SWIDTH 875 0
DWIDTH 10 0
BBX 9 8 1 0
BITMAP
C200
4400
4400
4900
F300
1500
2F80
2100
ENDCHAR
STARTCHAR onehalf
ENCODING 189
SWIDTH 875 0
DWIDTH 11 0
BBX 9 8 1 0
BITMAP
C200
4400
4400
4F80
EC80
1100
2280
6780
ENDCHAR
STARTCHAR threequarters
ENCODING 190
SWIDTH 875 0
DWIDTH 10 0
BBX 10 9 0 0
BITMAP
F100
1200
2200
1400
1880
E980
1280
17C0
2080
ENDCHAR
STARTCHAR questiondown
ENCODING 191
SWIDTH 485 0
DWIDTH 6 0
BBX 5 8 0 -1
BITMAP
30
10
10
60
C0
C0
C8
38
ENDCHAR
STARTCHAR Agrave
ENCODING 192
SWIDTH 673 0
DWIDTH 8 0
BBX 8 11 0 0
BITMAP
20
10
08
18
18
28
24
3C
46
42
C7
ENDCHAR
STARTCHAR Aacute
ENCODING 193
SWIDTH 673 0
DWIDTH 8 0
BBX 8 11 0 0
BITMAP
04
08
10
18
18
28
24
3C
46
42
C7
ENDCHAR
STARTCHAR Acircumflex
ENCODING 194
SWIDTH 673 0
DWIDTH 8 0
BBX 8 11 0 0
BITMAP
18
28
04
18
18
28
24
3C
46
42
C7
ENDCHAR
STARTCHAR Atilde
ENCODING 195
SWIDTH 673 0
DWIDTH 8 0
BBX 8 11 0 0
BITMAP
34
48
00
18
18
28
24
3C
46
42
C7
ENDCHAR
STARTCHAR Adieresis
ENCODING 196
SWIDTH 673 0
DWIDTH 8 0
BBX 8 10 1 0
BITMAP
6C
00
10
28
28
4C
7C
46
82
C7
ENDCHAR
STARTCHAR Aring
ENCODING 197
SWIDTH 673 0
DWIDTH 8 0
BBX 8 12 0 0
BITMAP
1C
24
1C
00
10
38
28
48
7C
44
86
C7
ENDCHAR
STARTCHAR AE
ENCODING 198
SWIDTH 933 0
DWIDTH 11 0
BBX 11 8 0 0
BITMAP
0FC0
0640
1E80
2780
1E80
2600
4620
E7E0
ENDCHAR
STARTCHAR Ccedilla
ENCODING 199
SWIDTH 626 0
DWIDTH 8 0
BBX 7 11 0 -3
BITMAP
1E
62
C0
C0
C0
C2
62
3E
0C
04
1C
ENDCHAR
STARTCHAR Egrave
ENCODING 200
SWIDTH 583 0
DWIDTH 7 0
BBX 7 11 0 0
BITMAP
20
10
00
FE
62
64
7C
64
60
62
FE
ENDCHAR
STARTCHAR Eacute
ENCODING 201
SWIDTH 583 0
DWIDTH 7 0
BBX 7 11 0 0
BITMAP
0C
18
00
FE
62
64
7C
64
60
62
FE
ENDCHAR
STARTCHAR Ecircumflex
ENCODING 202
SWIDTH 583 0
DWIDTH 7 0
BBX 7 11 0 0
BITMAP
10
28
04
FE
62
64
7C
64
60
62
FE
ENDCHAR
STARTCHAR Edieresis
ENCODING 203
SWIDTH 583 0
DWIDTH 7 0
BBX 7 10 0 0
BITMAP
3C
00
FE
62
64
7C
64
60
62
FE
ENDCHAR
STARTCHAR Igrave
ENCODING 204
SWIDTH 330 0
DWIDTH 4 0
BBX 4 11 0 0
BITMAP
80
40
20
F0
60
60
60
60
60
60
F0
ENDCHAR
STARTCHAR Iacute
ENCODING 205
SWIDTH 330 0
DWIDTH 4 0
BBX 4 11 0 0
BITMAP
10
20
40
F0
60
60
60
60
60
60
F0
ENDCHAR
STARTCHAR Icircumflex
ENCODING 206
SWIDTH 330 0
DWIDTH 4 0
BBX 4 11 0 0
BITMAP
60
90
00
F0
60
60
60
60
60
60
F0
ENDCHAR
STARTCHAR Idieresis
ENCODING 207
SWIDTH 330 0
DWIDTH 4 0
BBX 6 10 0 0
BITMAP
CC
00
78
30
30
30
30
30
30
78
ENDCHAR
STARTCHAR Eth
ENCODING 208
SWIDTH 695 0
DWIDTH 10 0
BBX 9 8 0 0
BITMAP
FE00
6300
6180
F980
6180
6180
6300
FE00
ENDCHAR
STARTCHAR Ntilde
ENCODING 209
SWIDTH 721 0
DWIDTH 9 0
BBX 9 11 0 0
BITMAP
1A00
2400
0000
E380
6100
5100
4900
4D00
4500
4300
E100
ENDCHAR
STARTCHAR Ograve
ENCODING 210
SWIDTH 730 0
DWIDTH 10 0
BBX 9 11 0 0
BITMAP
3000
1800
0000
3E00
6300
C180
C180
C180
C180
6300
3E00
ENDCHAR
STARTCHAR Oacute
ENCODING 211
SWIDTH 730 0
DWIDTH 10 0
BBX 9 11 0 0
BITMAP
0400
0800
0000
3E00
6300
C180
C180
C180
C180
6300
3E00
ENDCHAR
STARTCHAR Ocircumflex
ENCODING 212
SWIDTH 730 0
DWIDTH 10 0
BBX 9 11 0 0
BITMAP
0800
1400
2200
3E00
6300
C180
C180
C180
C180
6300
3E00
ENDCHAR
STARTCHAR Otilde
ENCODING 213
SWIDTH 730 0
DWIDTH 10 0
BBX 9 11 0 0
BITMAP
1A00
2C00
0000
3E00
6300
C180
C180
C180
C180
6300
3E00
ENDCHAR
STARTCHAR Odieresis
ENCODING 214
SWIDTH 731 0
DWIDTH 10 0
BBX 9 10 0 0
BITMAP
3600
0000
3E00
6300
C180
C180
C180
C180
6300
3E00
ENDCHAR
STARTCHAR multiply
ENCODING 215
SWIDTH 586 0
DWIDTH 7 0
BBX 5 5 1 1
BITMAP
88
58
20
58
88
ENDCHAR
STARTCHAR Oslash
ENCODING 216
SWIDTH 730 0
DWIDTH 10 0
BBX 9 10 0 -1
BITMAP
0100
3E00
6300
C580
C980
C980
D180
6300
3E00
4000
ENDCHAR
STARTCHAR Ugrave
ENCODING 217
SWIDTH 711 0
DWIDTH 8 0
BBX 8 11 0 0
BITMAP
20
10
08
F7
62
62
62
62
62
62
3C
ENDCHAR
STARTCHAR Uacute
ENCODING 218
SWIDTH 711 0
DWIDTH 8 0
BBX 8 11 0 0
BITMAP
04
08
10
F7
62
62
62
62
62
62
3C
ENDCHAR
STARTCHAR Ucircumflex
ENCODING 219
SWIDTH 711 0
DWIDTH 8 0
BBX 8 11 0 0
BITMAP
08
14
00
F7
62
62
62
62
62
62
3C
ENDCHAR
STARTCHAR Udieresis
ENCODING 220
SWIDTH 711 0
DWIDTH 8 0
BBX 8 10 0 0
BITMAP
1E
00
F7
62
62
62
62
62
62
3C
ENDCHAR
STARTCHAR Yacute
ENCODING 221
SWIDTH 625 0
DWIDTH 8 0
BBX 8 11 0 0
BITMAP
0C
18
00
E3
62
24
34
18
18
18
3C
ENDCHAR
STARTCHAR Thorn
ENCODING 222
SWIDTH 578 0
DWIDTH 8 0
BBX 7 10 0 -1
BITMAP
F0
60
7C
66
66
66
66
7C
60
F0
ENDCHAR
STARTCHAR germandbls
ENCODING 223
SWIDTH 627 0
DWIDTH 8 0
BBX 9 9 0 0
BITMAP
1C00
6600
6600
6800
7800
6E00
6380
7180
FF00
ENDCHAR
STARTCHAR agrave
ENCODING 224
SWIDTH 508 0
DWIDTH 7 0
BBX 7 9 0 0
BITMAP
20
10
00
7C
CC
1C
6C
CC
FE
ENDCHAR
STARTCHAR aacute
ENCODING 225
SWIDTH 508 0
DWIDTH 7 0
BBX 7 9 0 0
BITMAP
0C
18
20
7C
CC
1C
6C
CC
FE
ENDCHAR
STARTCHAR acircumflex
ENCODING 226
SWIDTH 508 0
DWIDTH 7 0
BBX 7 9 0 0
BITMAP
30
68
04
7C
CC
1C
6C
CC
FE
ENDCHAR
STARTCHAR atilde
ENCODING 227
SWIDTH 508 0
DWIDTH 7 0
BBX 7 8 0 0
BITMAP
78
00
7C
CC
1C
6C
CC
FE
ENDCHAR
STARTCHAR adieresis
ENCODING 228
SWIDTH 508 0
DWIDTH 7 0
BBX 7 8 0 0
BITMAP
78
00
7C
CC
1C
6C
CC
FE
ENDCHAR
STARTCHAR aring
ENCODING 229
SWIDTH 508 0
DWIDTH 6 0
BBX 7 10 0 0
BITMAP
10
28
28
10
7C
CC
1C
6C
CC
FE
ENDCHAR
STARTCHAR ae
ENCODING 230
SWIDTH 721 0
DWIDTH 10 0
BBX 9 6 0 0
BITMAP
7700
D980
1F80
F800
D800
F780
ENDCHAR
STARTCHAR ccedilla
ENCODING 231
SWIDTH 465 0
DWIDTH 7 0
BBX 6 9 0 -3
BITMAP
3C
CC
C0
C0
E4
78
18
08
38
ENDCHAR
STARTCHAR egrave
ENCODING 232
SWIDTH 490 0
DWIDTH 7 0
BBX 6 9 0 0
BITMAP
60
30
00
78
CC
FC
C0
E4
78
ENDCHAR
STARTCHAR eacute
ENCODING 233
SWIDTH 490 0
DWIDTH 7 0
BBX 6 9 0 0
BITMAP
08
10
20
78
CC
FC
C0
E4
78
ENDCHAR
STARTCHAR ecircumflex
ENCODING 234
SWIDTH 490 0
DWIDTH 7 0
BBX 6 9 0 0
BITMAP
30
48
00
78
CC
FC
C0
E4
78
ENDCHAR
STARTCHAR edieresis
ENCODING 235
SWIDTH 490 0
DWIDTH 7 0
BBX 6 8 0 0
BITMAP
78
00
78
CC
FC
C0
E4
78
ENDCHAR
STARTCHAR igrave
ENCODING 236
SWIDTH 303 0
DWIDTH 4 0
BBX 4 9 0 0
BITMAP
80
40
20
E0
60
60
60
60
F0
ENDCHAR
STARTCHAR iacute
ENCODING 237
SWIDTH 303 0
DWIDTH 4 0
BBX 2 9 0 0
BITMAP
40
80
00
C0
C0
C0
C0
C0
C0
ENDCHAR
STARTCHAR icircumflex
ENCODING 238
SWIDTH 303 0
DWIDTH 4 0
BBX 4 9 0 0
BITMAP
60
A0
10
C0
C0
C0
C0
C0
E0
ENDCHAR
STARTCHAR idieresis
ENCODING 239
SWIDTH 303 0
DWIDTH 4 0
BBX 5 8 0 0
BITMAP
D8
00
60
20
20
20
20
70
ENDCHAR
STARTCHAR eth
ENCODING 240
SWIDTH 539 0
DWIDTH 8 0
BBX 7 9 0 0
BITMAP
34
18
2C
3C
C6
C6
C6
C4
78
ENDCHAR
STARTCHAR ntilde
ENCODING 241
SWIDTH 577 0
DWIDTH 7 0
BBX 7 8 0 0
BITMAP
7C
00
DC
EC
CC
CC
CC
FE
ENDCHAR
STARTCHAR ograve
ENCODING 242
SWIDTH 543 0
DWIDTH 8 0
BBX 7 9 0 0
BITMAP
60
10
00
7C
C6
C6
C6
C6
7C
ENDCHAR
STARTCHAR oacute
ENCODING 243
SWIDTH 543 0
DWIDTH 8 0
BBX 7 9 0 0
BITMAP
0C
18
00
7C
C6
C6
C6
C6
7C
ENDCHAR
STARTCHAR ocircumflex
ENCODING 244
SWIDTH 543 0
DWIDTH 8 0
BBX 7 9 0 0
BITMAP
10
28
44
7C
C6
C6
C6
C6
7C
ENDCHAR
STARTCHAR otilde
ENCODING 245
SWIDTH 543 0
DWIDTH 8 0
BBX 7 8 0 0
BITMAP
3C
40
7C
C6
C6
C6
C6
7C
ENDCHAR
STARTCHAR odieresis
ENCODING 246
SWIDTH 543 0
DWIDTH 9 0
BBX 8 8 0 0
BITMAP
3C
00
3C
E7
C3
C3
E7
3C
ENDCHAR
STARTCHAR divide
ENCODING 247
SWIDTH 833 0
DWIDTH 10 0
BBX 8 5 1 1
BITMAP
18
00
FF
00
18
ENDCHAR
STARTCHAR oslash
ENCODING 248
SWIDTH 543 0
DWIDTH 8 0
BBX 7 8 0 -1
BITMAP
0C
78
CE
D6
E6
E6
78
80
ENDCHAR
STARTCHAR ugrave
ENCODING 249
SWIDTH 568 0
DWIDTH 8 0
BBX 8 9 0 0
BITMAP
30
10
08
EE
66
66
66
66
7F
ENDCHAR
STARTCHAR uacute
ENCODING 250
SWIDTH 568 0
DWIDTH 8 0
BBX 8 9 0 0
BITMAP
04
08
10
EE
66
66
66
66
7F
ENDCHAR
STARTCHAR ucircumflex
ENCODING 251
SWIDTH 568 0
DWIDTH 8 0
BBX 8 9 0 0
BITMAP
18
3C
00
EE
66
66
66
66
7F
ENDCHAR
STARTCHAR udieresis
ENCODING 252
SWIDTH 568 0
DWIDTH 8 0
BBX 8 8 0 0
BITMAP
3C
00
EE
66
66
66
66
7F
ENDCHAR
STARTCHAR yacute
ENCODING 253
SWIDTH 529 0
DWIDTH 6 0
BBX 6 12 0 -3
BITMAP
08
10
00
EC
48
68
28
30
10
20
20
C0
ENDCHAR
STARTCHAR thorn
ENCODING 254
SWIDTH 559 0
DWIDTH 7 0
BBX 7 12 0 -3
BITMAP
C0
C0
C0
DC
EE
C6
C6
CE
FC
C0
C0
E0
ENDCHAR
STARTCHAR ydieresis
ENCODING 255
SWIDTH 529 0
DWIDTH 7 0
BBX 6 11 0 -3
BITMAP
6C
00
EC
44
28
28
30
10
10
20
C0
ENDCHAR
STARTCHAR dotlessi
ENCODING 305
SWIDTH 303 0
DWIDTH 4 0
BBX 3 6 0 0
BITMAP
C0
C0
C0
C0
C0
E0
ENDCHAR
STARTCHAR OE
ENCODING 338
SWIDTH 999 0
DWIDTH 12 0
BBX 12 8 0 0
BITMAP
3FF0
6710
C320
C3E0
C320
C300
6710
7FF0
ENDCHAR
STARTCHAR oe
ENCODING 339
SWIDTH 819 0
DWIDTH 11 0
BBX 10 6 0 0
BITMAP
7B80
CCC0
CFC0
CC00
CE40
7380
ENDCHAR
STARTCHAR Scaron
ENCODING 352
SWIDTH 520 0
DWIDTH 8 0
BBX 6 11 1 0
BITMAP
48
30
00
78
C8
C8
60
18
8C
8C
F0
ENDCHAR
STARTCHAR scaron
ENCODING 353
SWIDTH 397 0
DWIDTH 6 0
BBX 5 9 1 0
BITMAP
90
60
00
78
C8
C0
30
B0
E0
ENDCHAR
STARTCHAR Ydieresis
ENCODING 376
SWIDTH 625 0
DWIDTH 8 0
BBX 7 10 1 0
BITMAP
78
00
E6
64
24
38
18
18
18
3C
ENDCHAR
STARTCHAR Zcaron
ENCODING 381
SWIDTH 575 0
DWIDTH 7 0
BBX 6 11 0 0
BITMAP
2C
10
00
7C
44
08
10
10
24
44
FC
ENDCHAR
STARTCHAR zcaron
ENCODING 382
SWIDTH 461 0
DWIDTH 6 0
BBX 5 9 0 0
BITMAP
58
30
00
78
90
20
20
48
F8
ENDCHAR
STARTCHAR florin
ENCODING 402
SWIDTH 428 0
DWIDTH 5 0
BBX 7 11 -1 -3
BITMAP
0E
18
3C
10
10
10
10
10
20
20
C0
ENDCHAR
STARTCHAR circumflex
ENCODING 710
SWIDTH 327 0
DWIDTH 4 0
BBX 4 2 0 7
BITMAP
60
90
ENDCHAR
STARTCHAR caron
ENCODING 711
SWIDTH 327 0
DWIDTH 4 0
BBX 4 2 0 7
BITMAP
90
60
ENDCHAR
STARTCHAR uni02C9
ENCODING 713
SWIDTH 334 0
DWIDTH 4 0
BBX 4 1 0 7
BITMAP
F0
ENDCHAR
STARTCHAR breve
ENCODING 728
SWIDTH 297 0
DWIDTH 4 0
BBX 4 2 0 7
BITMAP
90
60
ENDCHAR
STARTCHAR dotaccent
ENCODING 729
SWIDTH 111 0
DWIDTH 1 0
BBX 2 1 0 7
BITMAP
C0
ENDCHAR
STARTCHAR ring
ENCODING 730
SWIDTH 237 0
DWIDTH 4 0
BBX 3 4 0 6
BITMAP
60
A0
A0
60
ENDCHAR
STARTCHAR ogonek
ENCODING 731
SWIDTH 186 0
DWIDTH 2 0
BBX 2 2 0 -2
BITMAP
80
C0
ENDCHAR
STARTCHAR tilde
ENCODING 732
SWIDTH 347 0
DWIDTH 4 0
BBX 4 1 0 7
BITMAP
F0
ENDCHAR
STARTCHAR hungarumlaut
ENCODING 733
SWIDTH 426 0
DWIDTH 5 0
BBX 5 2 0 7
BITMAP
68
F0
ENDCHAR
STARTCHAR gravecomb
ENCODING 768
SWIDTH 0 0
DWIDTH 0 0
BBX 3 2 -7 9
BITMAP
80
60
ENDCHAR
STARTCHAR acutecomb
ENCODING 769
SWIDTH 0 0
DWIDTH 0 0
BBX 3 2 -6 9
BITMAP
60
80
ENDCHAR
STARTCHAR uni0302
ENCODING 770
SWIDTH 0 0
DWIDTH 0 0
BBX 4 2 -7 9
BITMAP
60
B0
ENDCHAR
STARTCHAR tildecomb
ENCODING 771
SWIDTH 0 0
DWIDTH 0 0
BBX 4 2 -7 9
BITMAP
D0
A0
ENDCHAR
STARTCHAR uni0304
ENCODING 772
SWIDTH 0 0
DWIDTH 0 0
BBX 4 1 -7 9
BITMAP
F0
ENDCHAR
STARTCHAR uni0307
ENCODING 775
SWIDTH 0 0
DWIDTH 0 0
BBX 2 1 -6 9
BITMAP
C0
ENDCHAR
STARTCHAR uni0308
ENCODING 776
SWIDTH 0 0
DWIDTH 0 0
BBX 4 1 -7 9
BITMAP
F0
ENDCHAR
STARTCHAR uni030B
ENCODING 779
SWIDTH 0 0
DWIDTH 0 0
BBX 5 2 -7 9
BITMAP
68
F0
ENDCHAR
STARTCHAR uni030C
ENCODING 780
SWIDTH 0 0
DWIDTH 0 0
BBX 4 2 -7 9
BITMAP
B0
60
ENDCHAR
STARTCHAR uni030F
ENCODING 783
SWIDTH 0 0
DWIDTH 0 0
BBX 5 2 -8 9
BITMAP
A0
58
ENDCHAR
STARTCHAR pi
ENCODING 960
SWIDTH 594 0
DWIDTH 7 0
BBX 7 6 0 0
BITMAP
FE
AC
2C
2E
AE
CC
ENDCHAR
STARTCHAR uni1200
ENCODING 4608
SWIDTH 533 0
DWIDTH 6 0
BBX 6 7 0 0
BITMAP
6C
6C
6C
CC
C8
D8
70
ENDCHAR
STARTCHAR uni1201
ENCODING 4609
SWIDTH 779 0
DWIDTH 10 0
BBX 9 7 0 0
BITMAP
6C00
6C00
6F80
CD80
C800
D800
7000
ENDCHAR
STARTCHAR uni1202
ENCODING 4610
SWIDTH 606 0
DWIDTH 8 0
BBX 6 9 1 -1
BITMAP
58
D8
D0
B0
30
20
60
4C
3C
ENDCHAR
STARTCHAR uni1203
ENCODING 4611
SWIDTH 500 0
DWIDTH 6 0
BBX 5 8 1 0
BITMAP
08
D8
D0
F0
30
60
60
E0
ENDCHAR
STARTCHAR uni1204
ENCODING 4612
SWIDTH 565 0
DWIDTH 7 0
BBX 6 8 1 0
BITMAP
58
D8
D8
F0
30
3C
4C
70
ENDCHAR
STARTCHAR uni1205
ENCODING 4613
SWIDTH 553 0
DWIDTH 7 0
BBX 5 7 1 0
BITMAP
18
D8
D8
D8
D8
D0
E0
ENDCHAR
STARTCHAR uni1206
ENCODING 4614
SWIDTH 692 0
DWIDTH 8 0
BBX 8 8 0 0
BITMAP
0F
CB
CE
C8
C8
C8
D8
70
ENDCHAR
STARTCHAR uni1207
ENCODING 4615
SWIDTH 883 0
DWIDTH 11 0
BBX 10 7 1 0
BITMAP
33C0
32C0
F380
F200
3200
3600
1C00
ENDCHAR
STARTCHAR uni1208
ENCODING 4616
SWIDTH 565 0
DWIDTH 7 0
BBX 6 8 0 0
BITMAP
30
30
78
68
C8
CC
CC
CC
ENDCHAR
STARTCHAR uni1209
ENCODING 4617
SWIDTH 772 0
DWIDTH 9 0
BBX 9 8 0 0
BITMAP
3000
3000
7900
6F00
C980
CC00
CC00
CC00
ENDCHAR
STARTCHAR uni120A
ENCODING 4618
SWIDTH 799 0
DWIDTH 10 0
BBX 9 9 0 -1
BITMAP
3000
3000
7800
6800
C800
CC00
CC00
CF80
0180
ENDCHAR
STARTCHAR uni120B
ENCODING 4619
SWIDTH 520 0
DWIDTH 6 0
BBX 6 8 0 0
BITMAP
20
30
78
D8
C8
C8
08
0C
ENDCHAR
STARTCHAR uni120C
ENCODING 4620
SWIDTH 720 0
DWIDTH 9 0
BBX 8 8 0 0
BITMAP
30
10
78
6C
CC
CF
CF
CC
ENDCHAR
STARTCHAR uni120D
ENCODING 4621
SWIDTH 740 0
DWIDTH 9 0
BBX 8 8 1 0
BITMAP
20
78
78
6C
CC
F6
F6
C7
ENDCHAR
STARTCHAR uni120E
ENCODING 4622
SWIDTH 859 0
DWIDTH 10 0
BBX 10 8 0 0
BITMAP
2000
3000
7BC0
6FC0
CB80
C800
CC00
CC00
ENDCHAR
STARTCHAR uni120F
ENCODING 4623
SWIDTH 706 0
DWIDTH 9 0
BBX 8 9 0 -1
BITMAP
20
30
78
D8
D8
98
18
7F
61
ENDCHAR
STARTCHAR uni1210
ENCODING 4624
SWIDTH 792 0
DWIDTH 10 0
BBX 9 7 1 0
BITMAP
0C00
0C00
0800
7F00
DB00
D900
D980
ENDCHAR
STARTCHAR uni1211
ENCODING 4625
SWIDTH 973 0
DWIDTH 12 0
BBX 11 7 0 0
BITMAP
0C00
0C00
0C00
3F00
EDE0
CDE0
CD80
ENDCHAR
STARTCHAR uni1212
ENCODING 4626
SWIDTH 1025 0
DWIDTH 13 0
BBX 12 7 0 0
BITMAP
0C00
0C00
0C00
3F80
ED80
CCB0
CCF0
ENDCHAR
STARTCHAR uni1213
ENCODING 4627
SWIDTH 772 0
DWIDTH 9 0
BBX 8 7 1 0
BITMAP
1C
08
0F
3B
5B
DB
03
ENDCHAR
STARTCHAR uni1214
ENCODING 4628
SWIDTH 959 0
DWIDTH 12 0
BBX 11 7 0 0
BITMAP
0C00
0C00
0C00
3F00
ED00
CDE0
CDE0
ENDCHAR
STARTCHAR uni1215
ENCODING 4629
SWIDTH 799 0
DWIDTH 10 0
BBX 10 8 0 0
BITMAP
3800
1E00
0600
0580
3F80
6C80
CC80
ECC0
ENDCHAR
STARTCHAR uni1216
ENCODING 4630
SWIDTH 792 0
DWIDTH 10 0
BBX 10 7 0 0
BITMAP
0E00
0600
0C00
3F80
6CC0
CCC0
C000
ENDCHAR
STARTCHAR uni1217
ENCODING 4631
SWIDTH 975 0
DWIDTH 12 0
BBX 11 8 0 0
BITMAP
1C00
0800
0F00
3B00
5B00
DB00
03E0
0C60
ENDCHAR
STARTCHAR uni1218
ENCODING 4632
SWIDTH 933 0
DWIDTH 11 0
BBX 11 5 0 2
BITMAP
3FE0
6F60
CB60
DBC0
F800
ENDCHAR
STARTCHAR uni1219
ENCODING 4633
SWIDTH 1160 0
DWIDTH 14 0
BBX 14 5 0 2
BITMAP
3FE0
6F6C
CB7C
DBC0
F800
ENDCHAR
STARTCHAR uni121A
ENCODING 4634
SWIDTH 985 0
DWIDTH 12 0
BBX 11 9 0 -1
BITMAP
3FC0
76C0
D6C0
D180
F180
0380
0300
0360
00E0
ENDCHAR
STARTCHAR uni121B
ENCODING 4635
SWIDTH 819 0
DWIDTH 10 0
BBX 10 8 0 0
BITMAP
3FC0
76C0
D6C0
D1C0
F080
0180
0180
0180
ENDCHAR
STARTCHAR uni121C
ENCODING 4636
SWIDTH 933 0
DWIDTH 11 0
BBX 11 8 0 0
BITMAP
3FC0
76C0
D6C0
D1C0
F080
0180
01E0
01E0
ENDCHAR
STARTCHAR uni121D
ENCODING 4637
SWIDTH 853 0
DWIDTH 10 0
BBX 10 8 0 0
BITMAP
3FC0
56C0
D6C0
D7C0
F000
2000
6000
C000
ENDCHAR
STARTCHAR uni121E
ENCODING 4638
SWIDTH 833 0
DWIDTH 11 0
BBX 10 8 0 0
BITMAP
3FC0
5AC0
DAC0
DBC0
F200
1000
3000
3000
ENDCHAR
STARTCHAR uni121F
ENCODING 4639
SWIDTH 932 0
DWIDTH 12 0
BBX 11 9 0 -1
BITMAP
7FC0
DBC0
DBC0
F080
0180
0180
0180
0E60
1C00
ENDCHAR
STARTCHAR uni1220
ENCODING 4640
SWIDTH 766 0
DWIDTH 9 0
BBX 9 6 0 1
BITMAP
0C00
6D80
6D80
CF00
D800
F000
ENDCHAR
STARTCHAR uni1221
ENCODING 4641
SWIDTH 1000 0
DWIDTH 12 0
BBX 12 6 0 1
BITMAP
0C00
6DB0
6DF0
CF00
D800
F000
ENDCHAR
STARTCHAR uni1222
ENCODING 4642
SWIDTH 919 0
DWIDTH 11 0
BBX 10 7 0 0
BITMAP
D300
CF00
FF00
C200
0600
0600
07C0
ENDCHAR
STARTCHAR uni1223
ENCODING 4643
SWIDTH 706 0
DWIDTH 8 0
BBX 8 7 0 0
BITMAP
03
CF
CF
F2
06
06
06
ENDCHAR
STARTCHAR uni1224
ENCODING 4644
SWIDTH 853 0
DWIDTH 10 0
BBX 10 7 0 0
BITMAP
D300
CF00
FF00
C200
03C0
03C0
03C0
ENDCHAR
STARTCHAR uni1225
ENCODING 4645
SWIDTH 959 0
DWIDTH 13 0
BBX 11 7 1 0
BITMAP
1360
1B60
37C0
7C00
6000
C000
C000
ENDCHAR
STARTCHAR uni1226
ENCODING 4646
SWIDTH 726 0
DWIDTH 9 0
BBX 9 7 0 0
BITMAP
4D80
CD80
DF00
F000
6000
6000
C000
ENDCHAR
STARTCHAR uni1227
ENCODING 4647
SWIDTH 879 0
DWIDTH 10 0
BBX 9 8 0 0
BITMAP
EF00
CF00
FA00
0200
0200
0200
1D80
1000
ENDCHAR
STARTCHAR uni1228
ENCODING 4648
SWIDTH 580 0
DWIDTH 7 0
BBX 5 7 1 0
BITMAP
18
18
30
60
C0
D8
F8
ENDCHAR
STARTCHAR uni1229
ENCODING 4649
SWIDTH 686 0
DWIDTH 8 0
BBX 8 7 0 0
BITMAP
18
30
E0
C2
3E
11
10
ENDCHAR
STARTCHAR uni122A
ENCODING 4650
SWIDTH 573 0
DWIDTH 7 0
BBX 6 7 0 0
BITMAP
0C
0C
30
60
CC
CC
F0
ENDCHAR
STARTCHAR uni122B
ENCODING 4651
SWIDTH 752 0
DWIDTH 9 0
BBX 7 7 1 0
BITMAP
0C
0C
30
66
DE
D8
E0
ENDCHAR
STARTCHAR uni122C
ENCODING 4652
SWIDTH 692 0
DWIDTH 8 0
BBX 8 7 0 0
BITMAP
0C
0C
30
60
CF
DB
FE
ENDCHAR
STARTCHAR uni122D
ENCODING 4653
SWIDTH 585 0
DWIDTH 7 0
BBX 5 7 1 0
BITMAP
38
58
C0
C0
C0
C8
F8
ENDCHAR
STARTCHAR uni122E
ENCODING 4654
SWIDTH 680 0
DWIDTH 8 0
BBX 8 8 0 0
BITMAP
0F
7B
5B
DC
C0
C0
CC
FC
ENDCHAR
STARTCHAR uni122F
ENCODING 4655
SWIDTH 758 0
DWIDTH 9 0
BBX 8 8 0 0
BITMAP
63
7F
08
18
60
CF
D9
E0
ENDCHAR
STARTCHAR uni1230
ENCODING 4656
SWIDTH 553 0
DWIDTH 7 0
BBX 6 8 0 0
BITMAP
30
3C
4C
CC
CC
CC
CC
CC
ENDCHAR
STARTCHAR uni1231
ENCODING 4657
SWIDTH 752 0
DWIDTH 9 0
BBX 9 8 0 0
BITMAP
3000
3800
4C00
CC00
CF80
CD80
CC00
CC00
ENDCHAR
STARTCHAR uni1232
ENCODING 4658
SWIDTH 786 0
DWIDTH 9 0
BBX 10 9 0 -1
BITMAP
1800
1800
6600
C600
C600
C600
C600
C6C0
21C0
ENDCHAR
STARTCHAR uni1233
ENCODING 4659
SWIDTH 553 0
DWIDTH 7 0
BBX 6 8 0 0
BITMAP
30
3C
4C
CC
CC
CC
0C
0C
ENDCHAR
STARTCHAR uni1234
ENCODING 4660
SWIDTH 700 0
DWIDTH 8 0
BBX 8 8 0 0
BITMAP
30
38
58
D8
D8
DF
DB
DE
ENDCHAR
STARTCHAR uni1235
ENCODING 4661
SWIDTH 553 0
DWIDTH 7 0
BBX 6 8 0 0
BITMAP
60
38
4C
CC
CC
CC
CC
CC
ENDCHAR
STARTCHAR uni1236
ENCODING 4662
SWIDTH 565 0
DWIDTH 7 0
BBX 6 8 0 0
BITMAP
30
38
4C
CC
CC
CC
C0
C0
ENDCHAR
STARTCHAR uni1237
ENCODING 4663
SWIDTH 700 0
DWIDTH 8 0
BBX 8 9 0 -1
BITMAP
30
30
4C
CC
CC
DC
18
1B
E7
ENDCHAR
STARTCHAR uni1238
ENCODING 4664
SWIDTH 640 0
DWIDTH 8 0
BBX 8 9 0 0
BITMAP
03
DF
F8
2C
4C
CC
CC
CC
CC
ENDCHAR
STARTCHAR uni1239
ENCODING 4665
SWIDTH 766 0
DWIDTH 9 0
BBX 9 9 0 0
BITMAP
DF00
BB00
3800
6C00
CD80
CF80
CC00
CC00
CC00
ENDCHAR
STARTCHAR uni123A
ENCODING 4666
SWIDTH 766 0
DWIDTH 9 0
BBX 9 10 0 -1
BITMAP
DF00
BB00
3800
6C00
CC00
CC00
CC00
CC00
CD80
0380
ENDCHAR
STARTCHAR uni123B
ENCODING 4667
SWIDTH 646 0
DWIDTH 8 0
BBX 8 9 0 0
BITMAP
DF
FB
18
2C
6C
6C
6C
0C
0C
ENDCHAR
STARTCHAR uni123C
ENCODING 4668
SWIDTH 726 0
DWIDTH 9 0
BBX 8 9 0 0
BITMAP
DE
FA
18
6C
CC
CC
CF
CF
CF
ENDCHAR
STARTCHAR uni123D
ENCODING 4669
SWIDTH 640 0
DWIDTH 8 0
BBX 7 9 0 0
BITMAP
06
FE
D8
16
36
36
36
36
36
ENDCHAR
STARTCHAR uni123E
ENCODING 4670
SWIDTH 660 0
DWIDTH 8 0
BBX 8 9 0 0
BITMAP
DF
BB
38
6C
CC
CC
CC
C0
C0
ENDCHAR
STARTCHAR uni123F
ENCODING 4671
SWIDTH 738 0
DWIDTH 9 0
BBX 9 10 0 -1
BITMAP
8600
FA00
3800
6C00
6C00
6C00
6C00
4C00
1F80
6180
ENDCHAR
STARTCHAR uni1240
ENCODING 4672
SWIDTH 660 0
DWIDTH 8 0
BBX 8 8 0 0
BITMAP
18
1F
7B
DB
FC
30
30
30
ENDCHAR
STARTCHAR uni1241
ENCODING 4673
SWIDTH 680 0
DWIDTH 8 0
BBX 8 8 0 0
BITMAP
18
1F
7B
DB
FC
3B
37
30
ENDCHAR
STARTCHAR uni1242
ENCODING 4674
SWIDTH 659 0
DWIDTH 8 0
BBX 8 9 0 -1
BITMAP
18
1F
7B
DB
FC
30
30
33
0F
ENDCHAR
STARTCHAR uni1243
ENCODING 4675
SWIDTH 792 0
DWIDTH 10 0
BBX 8 9 1 -1
BITMAP
0C
0F
3F
6F
7C
0C
18
E0
80
ENDCHAR
STARTCHAR uni1244
ENCODING 4676
SWIDTH 666 0
DWIDTH 8 0
BBX 8 8 0 0
BITMAP
18
1F
7B
DA
FC
3E
36
3C
ENDCHAR
STARTCHAR uni1245
ENCODING 4677
SWIDTH 660 0
DWIDTH 8 0
BBX 8 9 0 0
BITMAP
70
38
48
7F
DB
FA
14
30
30
ENDCHAR
STARTCHAR uni1246
ENCODING 4678
SWIDTH 652 0
DWIDTH 8 0
BBX 8 8 0 0
BITMAP
1E
36
3C
1F
7B
DE
F8
18
ENDCHAR
STARTCHAR uni1247
ENCODING 4679
SWIDTH 652 0
DWIDTH 8 0
BBX 8 10 0 -2
BITMAP
1E
36
3C
7B
DB
FE
18
18
E0
80
ENDCHAR
STARTCHAR uni1248
ENCODING 4680
SWIDTH 720 0
DWIDTH 9 0
BBX 8 8 0 0
BITMAP
18
18
76
D6
DC
37
3F
3F
ENDCHAR
STARTCHAR uni124A
ENCODING 4682
SWIDTH 1046 0
DWIDTH 13 0
BBX 12 7 0 0
BITMAP
0C40
7FC0
DBC0
FE30
1810
1800
1C00
ENDCHAR
STARTCHAR uni124B
ENCODING 4683
SWIDTH 626 0
DWIDTH 8 0
BBX 7 9 0 0
BITMAP
18
7E
D6
D6
FC
30
30
7C
EC
ENDCHAR
STARTCHAR uni124C
ENCODING 4684
SWIDTH 692 0
DWIDTH 8 0
BBX 8 9 1 -1
BITMAP
18
7F
DB
DE
F8
1E
1E
E0
C0
ENDCHAR
STARTCHAR uni124D
ENCODING 4685
SWIDTH 986 0
DWIDTH 12 0
BBX 11 8 0 0
BITMAP
1800
1E80
F7C0
D660
F820
3000
3000
3000
ENDCHAR
STARTCHAR uni1250
ENCODING 4688
SWIDTH 679 0
DWIDTH 9 0
BBX 8 9 0 0
BITMAP
E7
7B
88
7F
DB
FE
18
18
18
ENDCHAR
STARTCHAR uni1251
ENCODING 4689
SWIDTH 699 0
DWIDTH 9 0
BBX 9 10 0 0
BITMAP
0100
FF00
CC80
0E00
1B00
7B00
DC00
FB00
1F00
1800
ENDCHAR
STARTCHAR uni1252
ENCODING 4690
SWIDTH 680 0
DWIDTH 9 0
BBX 8 10 0 -1
BITMAP
E7
7B
88
7F
DB
FE
18
18
1B
07
ENDCHAR
STARTCHAR uni1253
ENCODING 4691
SWIDTH 792 0
DWIDTH 10 0
BBX 8 10 1 -1
BITMAP
03
67
7C
0F
3F
3E
0C
18
E0
C0
ENDCHAR
STARTCHAR uni1254
ENCODING 4692
SWIDTH 679 0
DWIDTH 9 0
BBX 9 9 0 0
BITMAP
E700
7D00
8C80
7B00
DA00
FC00
1E00
1E00
1C00
ENDCHAR
STARTCHAR uni1255
ENCODING 4693
SWIDTH 752 0
DWIDTH 9 0
BBX 9 11 0 -1
BITMAP
0300
CF00
7800
0600
0600
3F80
6D80
7F00
0C00
0C00
0C00
ENDCHAR
STARTCHAR uni1256
ENCODING 4694
SWIDTH 740 0
DWIDTH 9 0
BBX 8 10 0 0
BITMAP
01
DF
EE
1E
1C
0F
7B
DE
F8
18
ENDCHAR
STARTCHAR uni1258
ENCODING 4696
SWIDTH 720 0
DWIDTH 9 0
BBX 8 9 0 0
BITMAP
FE
DA
3E
D6
D6
FC
3F
3F
3F
ENDCHAR
STARTCHAR uni125A
ENCODING 4698
SWIDTH 1046 0
DWIDTH 13 0
BBX 12 9 0 0
BITMAP
7F00
7B00
0840
7F40
DBF0
FE30
1800
1800
1800
ENDCHAR
STARTCHAR uni125B
ENCODING 4699
SWIDTH 645 0
DWIDTH 8 0
BBX 7 10 0 0
BITMAP
06
DE
F8
7E
D6
D6
F8
30
7C
CC
ENDCHAR
STARTCHAR uni125C
ENCODING 4700
SWIDTH 712 0
DWIDTH 10 0
BBX 8 10 1 -1
BITMAP
FF
7B
FF
DB
DE
F8
1E
1E
E0
C0
ENDCHAR
STARTCHAR uni125D
ENCODING 4701
SWIDTH 985 0
DWIDTH 12 0
BBX 11 9 0 0
BITMAP
DE00
FE00
3E80
D7E0
D460
FC00
3000
3000
3000
ENDCHAR
STARTCHAR uni1260
ENCODING 4704
SWIDTH 533 0
DWIDTH 7 0
BBX 6 8 0 0
BITMAP
38
4C
CC
CC
CC
CC
CC
CC
ENDCHAR
STARTCHAR uni1261
ENCODING 4705
SWIDTH 759 0
DWIDTH 9 0
BBX 9 8 0 0
BITMAP
3800
4C00
CC00
CF80
CD80
CC00
CC00
CC00
ENDCHAR
STARTCHAR uni1262
ENCODING 4706
SWIDTH 759 0
DWIDTH 9 0
BBX 9 9 0 -1
BITMAP
3800
4C00
CC00
CC00
CC00
CC00
CC00
CD80
0380
ENDCHAR
STARTCHAR uni1263
ENCODING 4707
SWIDTH 533 0
DWIDTH 7 0
BBX 6 8 0 0
BITMAP
38
4C
CC
CC
CC
CC
0C
0C
ENDCHAR
STARTCHAR uni1264
ENCODING 4708
SWIDTH 726 0
DWIDTH 9 0
BBX 8 8 0 0
BITMAP
38
4C
CC
CC
CC
CC
CF
CF
ENDCHAR
STARTCHAR uni1265
ENCODING 4709
SWIDTH 732 0
DWIDTH 9 0
BBX 7 8 1 0
BITMAP
1E
16
36
F6
F6
36
36
36
ENDCHAR
STARTCHAR uni1266
ENCODING 4710
SWIDTH 533 0
DWIDTH 7 0
BBX 6 8 0 0
BITMAP
38
4C
CC
CC
CC
CC
C0
C0
ENDCHAR
STARTCHAR uni1267
ENCODING 4711
SWIDTH 720 0
DWIDTH 9 0
BBX 9 9 0 -1
BITMAP
3C00
4C00
CC00
CC00
CC00
CC00
2C00
7300
6080
ENDCHAR
STARTCHAR uni1268
ENCODING 4712
SWIDTH 632 0
DWIDTH 8 0
BBX 7 9 1 0
BITMAP
06
FE
80
78
D8
D8
D8
D8
D8
ENDCHAR
STARTCHAR uni1269
ENCODING 4713
SWIDTH 799 0
DWIDTH 10 0
BBX 8 9 1 0
BITMAP
06
FE
80
78
D8
DB
DF
D8
D8
ENDCHAR
STARTCHAR uni126A
ENCODING 4714
SWIDTH 799 0
DWIDTH 10 0
BBX 8 10 1 -1
BITMAP
04
FC
80
78
D8
D8
D8
D8
DB
07
ENDCHAR
STARTCHAR uni126B
ENCODING 4715
SWIDTH 632 0
DWIDTH 8 0
BBX 7 9 1 0
BITMAP
06
FE
80
38
58
D8
D8
D8
18
ENDCHAR
STARTCHAR uni126C
ENCODING 4716
SWIDTH 753 0
DWIDTH 10 0
BBX 8 9 1 0
BITMAP
04
FC
80
78
D8
D8
DF
DB
DF
ENDCHAR
STARTCHAR uni126D
ENCODING 4717
SWIDTH 806 0
DWIDTH 10 0
BBX 9 9 1 0
BITMAP
0180
3F80
2000
1E00
1600
7600
F600
B600
3600
ENDCHAR
STARTCHAR uni126E
ENCODING 4718
SWIDTH 632 0
DWIDTH 8 0
BBX 7 9 1 0
BITMAP
06
FE
80
70
D8
D8
D8
D8
C0
ENDCHAR
STARTCHAR uni126F
ENCODING 4719
SWIDTH 769 0
DWIDTH 9 0
BBX 8 10 1 -1
BITMAP
06
FE
80
38
58
D8
D8
D8
76
61
ENDCHAR
STARTCHAR uni1270
ENCODING 4720
SWIDTH 725 0
DWIDTH 9 0
BBX 7 8 1 0
BITMAP
18
18
1A
F6
B0
30
30
30
ENDCHAR
STARTCHAR uni1271
ENCODING 4721
SWIDTH 725 0
DWIDTH 9 0
BBX 7 8 1 0
BITMAP
18
18
1A
F6
B0
36
3E
30
ENDCHAR
STARTCHAR uni1272
ENCODING 4722
SWIDTH 725 0
DWIDTH 9 0
BBX 7 9 1 -1
BITMAP
18
18
1A
F6
B0
30
30
36
0E
ENDCHAR
STARTCHAR uni1273
ENCODING 4723
SWIDTH 826 0
DWIDTH 10 0
BBX 8 9 1 -1
BITMAP
0C
0C
0D
7F
2C
4C
18
F0
C0
ENDCHAR
STARTCHAR uni1274
ENCODING 4724
SWIDTH 725 0
DWIDTH 9 0
BBX 8 8 1 0
BITMAP
18
18
19
FF
B8
3E
36
3E
ENDCHAR
STARTCHAR uni1275
ENCODING 4725
SWIDTH 725 0
DWIDTH 9 0
BBX 7 9 1 0
BITMAP
70
3C
4C
0E
F6
B0
30
30
30
ENDCHAR
STARTCHAR uni1276
ENCODING 4726
SWIDTH 707 0
DWIDTH 9 0
BBX 7 8 1 0
BITMAP
1C
3C
38
DE
D6
30
30
30
ENDCHAR
STARTCHAR uni1277
ENCODING 4727
SWIDTH 766 0
DWIDTH 10 0
BBX 8 9 1 -2
BITMAP
18
18
FF
98
18
10
12
EE
80
ENDCHAR
STARTCHAR uni1278
ENCODING 4728
SWIDTH 712 0
DWIDTH 9 0
BBX 7 9 1 0
BITMAP
06
CE
F0
12
FE
B0
30
30
30
ENDCHAR
STARTCHAR uni1279
ENCODING 4729
SWIDTH 712 0
DWIDTH 9 0
BBX 7 9 1 0
BITMAP
06
CE
F0
12
FE
B0
36
3E
30
ENDCHAR
STARTCHAR uni127A
ENCODING 4730
SWIDTH 712 0
DWIDTH 9 0
BBX 7 10 1 -1
BITMAP
06
CE
F0
10
FE
B2
30
30
36
0E
ENDCHAR
STARTCHAR uni127B
ENCODING 4731
SWIDTH 746 0
DWIDTH 10 0
BBX 8 10 1 -1
BITMAP
03
67
78
08
7F
59
98
30
C0
C0
ENDCHAR
STARTCHAR uni127C
ENCODING 4732
SWIDTH 712 0
DWIDTH 9 0
BBX 7 9 1 0
BITMAP
02
CE
F0
1E
F6
B0
3C
3C
3C
ENDCHAR
STARTCHAR uni127D
ENCODING 4733
SWIDTH 740 0
DWIDTH 10 0
BBX 9 10 0 0
BITMAP
C600
FE00
3000
0C00
0C80
7B80
5800
9800
1800
1800
ENDCHAR
STARTCHAR uni127E
ENCODING 4734
SWIDTH 726 0
DWIDTH 10 0
BBX 8 10 1 0
BITMAP
03
66
7C
3C
30
DE
F6
31
30
30
ENDCHAR
STARTCHAR uni127F
ENCODING 4735
SWIDTH 751 0
DWIDTH 9 0
BBX 8 9 1 -1
BITMAP
63
7D
08
7F
D8
18
18
E6
80
ENDCHAR
STARTCHAR uni1280
ENCODING 4736
SWIDTH 625 0
DWIDTH 8 0
BBX 7 8 0 0
BITMAP
0C
0C
7E
C6
06
06
06
06
ENDCHAR
STARTCHAR uni1281
ENCODING 4737
SWIDTH 859 0
DWIDTH 11 0
BBX 10 8 0 0
BITMAP
0C00
0C00
7E00
C600
07C0
06C0
0600
0600
ENDCHAR
STARTCHAR uni1282
ENCODING 4738
SWIDTH 772 0
DWIDTH 9 0
BBX 9 9 0 -1
BITMAP
0C00
0C00
7E00
C700
0600
0600
0E00
0D80
0380
ENDCHAR
STARTCHAR uni1283
ENCODING 4739
SWIDTH 652 0
DWIDTH 9 0
BBX 7 9 1 -1
BITMAP
18
18
FA
C6
06
06
18
E0
C0
ENDCHAR
STARTCHAR uni1284
ENCODING 4740
SWIDTH 806 0
DWIDTH 10 0
BBX 9 8 0 0
BITMAP
0C00
0800
7E00
C600
0600
0780
0580
0780
ENDCHAR
STARTCHAR uni1285
ENCODING 4741
SWIDTH 565 0
DWIDTH 7 0
BBX 6 8 0 0
BITMAP
18
38
DC
C4
0C
0C
0C
0C
ENDCHAR
STARTCHAR uni1286
ENCODING 4742
SWIDTH 886 0
DWIDTH 11 0
BBX 10 8 0 0
BITMAP
01C0
0FC0
3BC0
D800
9E00
0600
0600
0600
ENDCHAR
STARTCHAR uni1287
ENCODING 4743
SWIDTH 886 0
DWIDTH 11 0
BBX 9 10 1 -2
BITMAP
0380
1F80
7F80
D800
1C00
0C00
0C00
0C00
3000
2000
ENDCHAR
STARTCHAR uni1288
ENCODING 4744
SWIDTH 973 0
DWIDTH 12 0
BBX 10 8 1 0
BITMAP
1800
1800
FC00
85C0
0FC0
0FC0
0800
0800
ENDCHAR
STARTCHAR uni128A
ENCODING 4746
SWIDTH 973 0
DWIDTH 12 0
BBX 11 8 0 0
BITMAP
1800
1800
7D80
C580
0F80
0DE0
0C60
0C00
ENDCHAR
STARTCHAR uni128B
ENCODING 4747
SWIDTH 640 0
DWIDTH 9 0
BBX 7 8 1 0
BITMAP
30
F0
AC
08
18
E6
C6
06
ENDCHAR
STARTCHAR uni128C
ENCODING 4748
SWIDTH 712 0
DWIDTH 10 0
BBX 8 8 1 0
BITMAP
18
38
DC
0C
0F
0F
70
60
ENDCHAR
STARTCHAR uni128D
ENCODING 4749
SWIDTH 934 0
DWIDTH 12 0
BBX 11 7 0 0
BITMAP
1800
5800
FE80
07E0
0C60
0C00
0C00
ENDCHAR
STARTCHAR uni1290
ENCODING 4752
SWIDTH 386 0
DWIDTH 5 0
BBX 4 8 0 0
BITMAP
C0
40
70
30
30
30
20
60
ENDCHAR
STARTCHAR uni1291
ENCODING 4753
SWIDTH 565 0
DWIDTH 7 0
BBX 6 8 0 0
BITMAP
C0
C0
F0
30
2C
64
60
60
ENDCHAR
STARTCHAR uni1292
ENCODING 4754
SWIDTH 505 0
DWIDTH 6 0
BBX 4 9 1 -1
BITMAP
C0
C0
F0
30
60
60
C0
D0
30
ENDCHAR
STARTCHAR uni1293
ENCODING 4755
SWIDTH 573 0
DWIDTH 8 0
BBX 7 8 0 0
BITMAP
3E
E6
C0
C0
F8
18
18
18
ENDCHAR
STARTCHAR uni1294
ENCODING 4756
SWIDTH 500 0
DWIDTH 6 0
BBX 5 8 1 0
BITMAP
C0
C0
F0
20
60
78
D8
F0
ENDCHAR
STARTCHAR uni1295
ENCODING 4757
SWIDTH 545 0
DWIDTH 6 0
BBX 5 8 1 0
BITMAP
F0
F0
20
58
30
30
20
60
ENDCHAR
STARTCHAR uni1296
ENCODING 4758
SWIDTH 660 0
DWIDTH 8 0
BBX 8 8 0 0
BITMAP
07
7B
DF
C0
F8
18
18
18
ENDCHAR
STARTCHAR uni1297
ENCODING 4759
SWIDTH 600 0
DWIDTH 8 0
BBX 6 9 1 -1
BITMAP
3C
6C
C0
C0
F0
30
30
3C
CC
ENDCHAR
STARTCHAR uni1298
ENCODING 4760
SWIDTH 666 0
DWIDTH 8 0
BBX 8 9 0 0
BITMAP
03
C3
BC
10
0C
0C
08
18
18
ENDCHAR
STARTCHAR uni1299
ENCODING 4761
SWIDTH 772 0
DWIDTH 10 0
BBX 9 8 0 0
BITMAP
C300
FF00
1800
1E00
0F80
0C80
1800
1800
ENDCHAR
STARTCHAR uni129A
ENCODING 4762
SWIDTH 692 0
DWIDTH 8 0
BBX 8 8 0 0
BITMAP
C3
FF
10
1C
0C
08
1B
1F
ENDCHAR
STARTCHAR uni129B
ENCODING 4763
SWIDTH 652 0
DWIDTH 8 0
BBX 7 9 1 0
BITMAP
DE
F0
3C
CC
C0
F8
18
10
30
ENDCHAR
STARTCHAR uni129C
ENCODING 4764
SWIDTH 679 0
DWIDTH 9 0
BBX 8 8 1 0
BITMAP
C6
FE
31
0C
0C
08
16
1E
ENDCHAR
STARTCHAR uni129D
ENCODING 4765
SWIDTH 640 0
DWIDTH 8 0
BBX 7 10 0 0
BITMAP
06
DE
30
78
D8
9E
06
04
0C
0C
ENDCHAR
STARTCHAR uni129E
ENCODING 4766
SWIDTH 712 0
DWIDTH 9 0
BBX 9 9 0 0
BITMAP
CF00
7300
BF80
6D80
6380
7800
0800
1800
1800
ENDCHAR
STARTCHAR uni129F
ENCODING 4767
SWIDTH 631 0
DWIDTH 8 0
BBX 7 11 0 -2
BITMAP
86
C4
FE
4C
C0
C8
F8
18
18
76
C2
ENDCHAR
STARTCHAR uni12A0
ENCODING 4768
SWIDTH 612 0
DWIDTH 7 0
BBX 7 8 0 0
BITMAP
60
60
78
30
7C
6C
CC
C6
ENDCHAR
STARTCHAR uni12A1
ENCODING 4769
SWIDTH 853 0
DWIDTH 10 0
BBX 9 8 0 0
BITMAP
6000
6000
7800
3000
7C00
6F80
CC80
C600
ENDCHAR
STARTCHAR uni12A2
ENCODING 4770
SWIDTH 859 0
DWIDTH 10 0
BBX 9 9 0 -1
BITMAP
6000
6000
7800
3000
7C00
6C00
CC00
C580
0280
ENDCHAR
STARTCHAR uni12A3
ENCODING 4771
SWIDTH 632 0
DWIDTH 8 0
BBX 7 8 1 0
BITMAP
60
60
78
20
7C
CC
C4
06
ENDCHAR
STARTCHAR uni12A4
ENCODING 4772
SWIDTH 720 0
DWIDTH 9 0
BBX 8 8 0 0
BITMAP
40
40
70
60
7C
CF
CF
CE
ENDCHAR
STARTCHAR uni12A5
ENCODING 4773
SWIDTH 600 0
DWIDTH 7 0
BBX 6 7 0 0
BITMAP
C0
20
70
38
58
C8
CC
ENDCHAR
STARTCHAR uni12A6
ENCODING 4774
SWIDTH 600 0
DWIDTH 7 0
BBX 6 8 0 0
BITMAP
60
60
38
30
78
6C
CC
C4
ENDCHAR
STARTCHAR uni12A7
ENCODING 4775
SWIDTH 671 0
DWIDTH 8 0
BBX 7 10 0 0
BITMAP
C0
FE
36
30
18
34
3E
66
66
62
ENDCHAR
STARTCHAR uni12A8
ENCODING 4776
SWIDTH 565 0
DWIDTH 7 0
BBX 6 8 0 0
BITMAP
E0
7C
6C
2C
6C
6C
6C
6C
ENDCHAR
STARTCHAR uni12A9
ENCODING 4777
SWIDTH 779 0
DWIDTH 9 0
BBX 9 9 0 0
BITMAP
E000
6000
7C00
2C00
6D80
6F80
6C00
6C00
6C00
ENDCHAR
STARTCHAR uni12AA
ENCODING 4778
SWIDTH 792 0
DWIDTH 10 0
BBX 9 10 0 -1
BITMAP
E000
6000
7C00
2C00
6C00
6C00
6C00
6C00
6D80
0380
ENDCHAR
STARTCHAR uni12AB
ENCODING 4779
SWIDTH 565 0
DWIDTH 7 0
BBX 6 9 0 0
BITMAP
E0
60
7C
6C
6C
6C
6C
0C
0C
ENDCHAR
STARTCHAR uni12AC
ENCODING 4780
SWIDTH 779 0
DWIDTH 9 0
BBX 9 8 0 0
BITMAP
C000
5C00
7600
2600
6600
6E00
6F80
6F80
ENDCHAR
STARTCHAR uni12AD
ENCODING 4781
SWIDTH 600 0
DWIDTH 7 0
BBX 6 8 0 0
BITMAP
C0
C0
FC
4C
2C
4C
CC
CC
ENDCHAR
STARTCHAR uni12AE
ENCODING 4782
SWIDTH 553 0
DWIDTH 7 0
BBX 6 8 0 0
BITMAP
C0
F8
CC
4C
CC
CC
C0
C0
ENDCHAR
STARTCHAR uni12AF
ENCODING 4783
SWIDTH 729 0
DWIDTH 9 0
BBX 7 8 1 0
BITMAP
30
3C
36
36
36
F6
F0
30
ENDCHAR
STARTCHAR uni12B0
ENCODING 4784
SWIDTH 866 0
DWIDTH 10 0
BBX 9 9 1 0
BITMAP
C000
C000
F800
5800
DF80
DF80
DF80
D800
D800
ENDCHAR
STARTCHAR uni12B2
ENCODING 4786
SWIDTH 934 0
DWIDTH 11 0
BBX 11 8 0 0
BITMAP
E000
6000
7C00
2D80
6F80
6DE0
6C60
6C00
ENDCHAR
STARTCHAR uni12B3
ENCODING 4787
SWIDTH 720 0
DWIDTH 9 0
BBX 7 9 1 -1
BITMAP
C0
F8
D8
D8
D8
18
3E
36
06
ENDCHAR
STARTCHAR uni12B4
ENCODING 4788
SWIDTH 706 0
DWIDTH 8 0
BBX 8 9 0 -1
BITMAP
C0
78
AC
6C
6C
6F
0F
30
30
ENDCHAR
STARTCHAR uni12B5
ENCODING 4789
SWIDTH 786 0
DWIDTH 9 0
BBX 8 8 1 0
BITMAP
C0
CC
FF
5B
D8
D8
D8
D8
ENDCHAR
STARTCHAR uni12B8
ENCODING 4792
SWIDTH 712 0
DWIDTH 10 0
BBX 9 9 0 0
BITMAP
0300
DF00
FB80
1D80
0980
1980
1B00
1B00
1B80
ENDCHAR
STARTCHAR uni12B9
ENCODING 4793
SWIDTH 934 0
DWIDTH 12 0
BBX 11 9 0 0
BITMAP
0300
DF00
FB80
1D80
09A0
19E0
1B00
1B00
1B80
ENDCHAR
STARTCHAR uni12BA
ENCODING 4794
SWIDTH 945 0
DWIDTH 11 0
BBX 11 9 0 0
BITMAP
0300
DF00
FB80
1D80
0980
1980
1B00
1B00
1BE0
ENDCHAR
STARTCHAR uni12BB
ENCODING 4795
SWIDTH 712 0
DWIDTH 9 0
BBX 9 9 0 0
BITMAP
0300
DF00
FB80
1D80
0980
1980
1B00
0300
0380
ENDCHAR
STARTCHAR uni12BC
ENCODING 4796
SWIDTH 893 0
DWIDTH 11 0
BBX 10 9 0 0
BITMAP
0300
DF00
FB80
1D80
0980
1980
1BC0
1BC0
1BC0
ENDCHAR
STARTCHAR uni12BD
ENCODING 4797
SWIDTH 792 0
DWIDTH 10 0
BBX 9 9 0 0
BITMAP
0600
DE00
F000
3F80
1980
0980
1980
1980
1980
ENDCHAR
STARTCHAR uni12BE
ENCODING 4798
SWIDTH 732 0
DWIDTH 9 0
BBX 8 9 0 0
BITMAP
03
DF
FB
1F
0B
1B
1B
18
18
ENDCHAR
STARTCHAR uni12C0
ENCODING 4800
SWIDTH 1065 0
DWIDTH 13 0
BBX 13 9 0 0
BITMAP
0200
DF00
FF00
1B00
0BF8
1BD8
1BF8
1B00
1B00
ENDCHAR
STARTCHAR uni12C2
ENCODING 4802
SWIDTH 1139 0
DWIDTH 14 0
BBX 13 9 0 0
BITMAP
0200
DF00
FF00
0B60
1B60
1BE0
1B18
1B18
1B00
ENDCHAR
STARTCHAR uni12C3
ENCODING 4803
SWIDTH 807 0
DWIDTH 10 0
BBX 9 11 0 -1
BITMAP
0400
CC00
3000
3600
5B00
3300
3200
3200
0600
0F80
3080
ENDCHAR
STARTCHAR uni12C4
ENCODING 4804
SWIDTH 905 0
DWIDTH 11 0
BBX 11 11 0 -2
BITMAP
0200
DF00
FF00
1B00
0B00
1B00
1BE0
1B60
1BC0
0C00
0C00
ENDCHAR
STARTCHAR uni12C5
ENCODING 4805
SWIDTH 1040 0
DWIDTH 13 0
BBX 12 9 0 0
BITMAP
0200
DF00
FFC0
1BF0
0B30
1B00
1B00
1B00
1B00
ENDCHAR
STARTCHAR uni12C8
ENCODING 4808
SWIDTH 700 0
DWIDTH 9 0
BBX 7 6 1 1
BITMAP
3E
76
D6
D6
E6
FC
ENDCHAR
STARTCHAR uni12C9
ENCODING 4809
SWIDTH 893 0
DWIDTH 11 0
BBX 9 6 1 1
BITMAP
3E00
7600
D600
D600
E580
FF80
ENDCHAR
STARTCHAR uni12CA
ENCODING 4810
SWIDTH 666 0
DWIDTH 9 0
BBX 8 9 0 -1
BITMAP
7E
DB
DB
DE
F8
18
18
1B
07
ENDCHAR
STARTCHAR uni12CB
ENCODING 4811
SWIDTH 652 0
DWIDTH 9 0
BBX 8 8 0 0
BITMAP
7E
DB
DB
DE
F8
18
18
18
ENDCHAR
STARTCHAR uni12CC
ENCODING 4812
SWIDTH 652 0
DWIDTH 8 0
BBX 7 8 0 0
BITMAP
7E
D6
D6
DC
F0
1E
1E
1E
ENDCHAR
STARTCHAR uni12CD
ENCODING 4813
SWIDTH 939 0
DWIDTH 11 0
BBX 10 6 1 1
BITMAP
3E00
76C0
D7C0
D600
E600
FC00
ENDCHAR
STARTCHAR uni12CE
ENCODING 4814
SWIDTH 726 0
DWIDTH 9 0
BBX 8 8 1 0
BITMAP
1E
7B
DB
DB
FE
30
40
C0
ENDCHAR
STARTCHAR uni12CF
ENCODING 4815
SWIDTH 906 0
DWIDTH 11 0
BBX 10 8 1 0
BITMAP
07C0
1EC0
36C0
F6C0
FF80
0C00
1000
3000
ENDCHAR
STARTCHAR uni12D0
ENCODING 4816
SWIDTH 545 0
DWIDTH 7 0
BBX 5 7 1 0
BITMAP
38
58
D8
D8
D8
D0
F0
ENDCHAR
STARTCHAR uni12D1
ENCODING 4817
SWIDTH 786 0
DWIDTH 10 0
BBX 10 7 0 0
BITMAP
3C00
6C00
CC00
CF80
CDC0
DC00
F800
ENDCHAR
STARTCHAR uni12D2
ENCODING 4818
SWIDTH 786 0
DWIDTH 9 0
BBX 9 9 1 -1
BITMAP
3800
5800
D800
D000
FC00
0C00
0C00
1D00
0380
ENDCHAR
STARTCHAR uni12D3
ENCODING 4819
SWIDTH 586 0
DWIDTH 8 0
BBX 6 8 1 0
BITMAP
38
58
D8
DC
FC
0C
18
18
ENDCHAR
STARTCHAR uni12D4
ENCODING 4820
SWIDTH 720 0
DWIDTH 9 0
BBX 8 8 0 0
BITMAP
3C
4C
CC
DC
FC
0F
0B
1F
ENDCHAR
STARTCHAR uni12D5
ENCODING 4821
SWIDTH 500 0
DWIDTH 7 0
BBX 5 8 1 0
BITMAP
20
20
30
58
D8
D8
D0
E0
ENDCHAR
STARTCHAR uni12D6
ENCODING 4822
SWIDTH 580 0
DWIDTH 7 0
BBX 7 8 0 0
BITMAP
1E
36
36
34
38
60
C0
C0
ENDCHAR
STARTCHAR uni12D8
ENCODING 4824
SWIDTH 493 0
DWIDTH 7 0
BBX 6 7 0 0
BITMAP
6C
6C
7C
6C
4C
48
EC
ENDCHAR
STARTCHAR uni12D9
ENCODING 4825
SWIDTH 752 0
DWIDTH 9 0
BBX 8 7 1 0
BITMAP
D8
D8
F7
DB
90
B0
B0
ENDCHAR
STARTCHAR uni12DA
ENCODING 4826
SWIDTH 720 0
DWIDTH 9 0
BBX 8 7 0 0
BITMAP
6C
6C
7C
68
68
4B
E7
ENDCHAR
STARTCHAR uni12DB
ENCODING 4827
SWIDTH 473 0
DWIDTH 6 0
BBX 5 7 1 0
BITMAP
D8
D8
F8
D8
D0
10
18
ENDCHAR
STARTCHAR uni12DC
ENCODING 4828
SWIDTH 672 0
DWIDTH 8 0
BBX 7 7 1 0
BITMAP
D8
C8
F8
D8
D8
DE
DE
ENDCHAR
STARTCHAR uni12DD
ENCODING 4829
SWIDTH 632 0
DWIDTH 8 0
BBX 8 7 0 0
BITMAP
FB
DB
1F
1B
1B
1A
1B
ENDCHAR
STARTCHAR uni12DE
ENCODING 4830
SWIDTH 493 0
DWIDTH 7 0
BBX 6 7 0 0
BITMAP
6C
6C
7C
6C
6C
40
E0
ENDCHAR
STARTCHAR uni12DF
ENCODING 4831
SWIDTH 686 0
DWIDTH 9 0
BBX 7 8 1 -1
BITMAP
D8
D8
D8
F8
D8
18
1E
E6
ENDCHAR
STARTCHAR uni12E0
ENCODING 4832
SWIDTH 919 0
DWIDTH 12 0
BBX 11 7 0 0
BITMAP
79E0
7B60
9F00
1B00
1B00
1B00
1B00
ENDCHAR
STARTCHAR uni12E1
ENCODING 4833
SWIDTH 913 0
DWIDTH 12 0
BBX 11 7 0 0
BITMAP
79E0
7B60
9F20
1BE0
1B00
1B00
1B00
ENDCHAR
STARTCHAR uni12E2
ENCODING 4834
SWIDTH 919 0
DWIDTH 12 0
BBX 11 8 0 -1
BITMAP
79E0
7B60
9F00
1B00
1B00
1B00
1B60
00E0
ENDCHAR
STARTCHAR uni12E3
ENCODING 4835
SWIDTH 919 0
DWIDTH 12 0
BBX 11 7 0 0
BITMAP
79E0
7B60
9F00
1B00
1B00
0300
0300
ENDCHAR
STARTCHAR uni12E4
ENCODING 4836
SWIDTH 919 0
DWIDTH 11 0
BBX 10 7 0 0
BITMAP
79C0
7AC0
9E00
1E00
1FC0
1EC0
1F80
ENDCHAR
STARTCHAR uni12E5
ENCODING 4837
SWIDTH 919 0
DWIDTH 12 0
BBX 12 10 -1 0
BITMAP
6600
7E00
1810
28F0
6DB0
4D80
8F80
0980
0900
1B80
ENDCHAR
STARTCHAR uni12E6
ENCODING 4838
SWIDTH 919 0
DWIDTH 12 0
BBX 11 7 0 0
BITMAP
01E0
7B60
5F00
9B00
1B00
1800
1800
ENDCHAR
STARTCHAR uni12E7
ENCODING 4839
SWIDTH 959 0
DWIDTH 12 0
BBX 11 9 0 -2
BITMAP
79E0
7B60
9F00
1B00
1B00
0300
0300
1CC0
1000
ENDCHAR
STARTCHAR uni12E8
ENCODING 4840
SWIDTH 433 0
DWIDTH 5 0
BBX 5 8 0 0
BITMAP
78
D8
D8
F0
60
60
60
60
ENDCHAR
STARTCHAR uni12E9
ENCODING 4841
SWIDTH 560 0
DWIDTH 8 0
BBX 7 8 0 0
BITMAP
3C
CC
CC
F0
7E
66
60
70
ENDCHAR
STARTCHAR uni12EA
ENCODING 4842
SWIDTH 720 0
DWIDTH 9 0
BBX 8 8 0 0
BITMAP
3C
CC
DC
F0
6C
7C
63
62
ENDCHAR
STARTCHAR uni12EB
ENCODING 4843
SWIDTH 586 0
DWIDTH 7 0
BBX 6 9 1 -1
BITMAP
1C
3C
3C
38
30
18
18
E0
C0
ENDCHAR
STARTCHAR uni12EC
ENCODING 4844
SWIDTH 692 0
DWIDTH 8 0
BBX 8 8 0 0
BITMAP
78
D8
D8
F0
7F
6F
6F
60
ENDCHAR
STARTCHAR uni12ED
ENCODING 4845
SWIDTH 692 0
DWIDTH 9 0
BBX 8 9 1 -1
BITMAP
3C
6C
6C
78
60
23
33
CE
C0
ENDCHAR
STARTCHAR uni12EE
ENCODING 4846
SWIDTH 632 0
DWIDTH 8 0
BBX 7 8 0 0
BITMAP
78
D8
DE
E6
60
60
60
60
ENDCHAR
STARTCHAR uni12EF
ENCODING 4847
SWIDTH 843 0
DWIDTH 11 0
BBX 9 8 1 0
BITMAP
1E00
3600
3780
F980
D800
1800
1800
1800
ENDCHAR
STARTCHAR uni12F0
ENCODING 4848
SWIDTH 660 0
DWIDTH 8 0
BBX 6 8 1 0
BITMAP
3C
6C
6C
70
70
30
FC
CC
ENDCHAR
STARTCHAR uni12F1
ENCODING 4849
SWIDTH 839 0
DWIDTH 10 0
BBX 9 8 1 0
BITMAP
1C00
3C00
3C00
3000
3C00
CF00
9B00
1880
ENDCHAR
STARTCHAR uni12F2
ENCODING 4850
SWIDTH 779 0
DWIDTH 9 0
BBX 8 8 1 0
BITMAP
1C
3C
38
30
7C
CC
9B
1F
ENDCHAR
STARTCHAR uni12F3
ENCODING 4851
SWIDTH 620 0
DWIDTH 8 0
BBX 6 8 1 0
BITMAP
1C
3C
3C
30
7C
CC
8C
0C
ENDCHAR
STARTCHAR uni12F4
ENCODING 4852
SWIDTH 846 0
DWIDTH 10 0
BBX 9 9 1 -1
BITMAP
3C00
6C00
6C00
7000
2000
1180
FF80
C380
0200
ENDCHAR
STARTCHAR uni12F5
ENCODING 4853
SWIDTH 819 0
DWIDTH 10 0
BBX 8 8 1 0
BITMAP
3C
6C
6F
7B
60
20
FC
CC
ENDCHAR
STARTCHAR uni12F6
ENCODING 4854
SWIDTH 740 0
DWIDTH 9 0
BBX 9 8 0 0
BITMAP
1E00
3600
3600
1800
3000
6F00
C300
C080
ENDCHAR
STARTCHAR uni12F7
ENCODING 4855
SWIDTH 933 0
DWIDTH 11 0
BBX 10 10 1 -2
BITMAP
3C00
6C00
6C00
7000
6000
3000
CC00
9F80
1880
1040
ENDCHAR
STARTCHAR uni12F8
ENCODING 4856
SWIDTH 706 0
DWIDTH 9 0
BBX 7 9 1 0
BITMAP
18
18
6C
6C
78
60
30
CE
C2
ENDCHAR
STARTCHAR uni12F9
ENCODING 4857
SWIDTH 853 0
DWIDTH 10 0
BBX 8 9 1 0
BITMAP
0C
0C
3C
3C
30
3C
C3
87
04
ENDCHAR
STARTCHAR uni12FA
ENCODING 4858
SWIDTH 779 0
DWIDTH 9 0
BBX 8 10 1 -1
BITMAP
18
18
3C
3C
30
3C
CC
8C
0B
07
ENDCHAR
STARTCHAR uni12FB
ENCODING 4859
SWIDTH 600 0
DWIDTH 8 0
BBX 6 9 1 0
BITMAP
18
1C
3C
3C
30
7C
CC
8C
0C
ENDCHAR
STARTCHAR uni12FC
ENCODING 4860
SWIDTH 867 0
DWIDTH 10 0
BBX 10 9 0 0
BITMAP
0C00
0E00
3600
3400
3800
1800
1FC0
63C0
E380
ENDCHAR
STARTCHAR uni12FD
ENCODING 4861
SWIDTH 807 0
DWIDTH 10 0
BBX 8 9 1 0
BITMAP
18
18
6C
6F
7B
60
30
FC
C6
ENDCHAR
STARTCHAR uni12FE
ENCODING 4862
SWIDTH 740 0
DWIDTH 9 0
BBX 8 9 0 0
BITMAP
18
1E
66
64
78
7F
E3
C0
C0
ENDCHAR
STARTCHAR uni12FF
ENCODING 4863
SWIDTH 933 0
DWIDTH 11 0
BBX 10 10 1 -1
BITMAP
1800
1800
6C00
6C00
7800
6000
3000
CE00
1FC0
18C0
ENDCHAR
STARTCHAR uni1300
ENCODING 4864
SWIDTH 720 0
DWIDTH 9 0
BBX 9 10 1 -1
BITMAP
0080
E180
FE00
3C00
3C00
3800
3000
3800
FF00
C300
ENDCHAR
STARTCHAR uni1301
ENCODING 4865
SWIDTH 792 0
DWIDTH 10 0
BBX 8 10 1 -1
BITMAP
DE
B6
78
D8
D8
F0
FD
DB
D8
18
ENDCHAR
STARTCHAR uni1302
ENCODING 4866
SWIDTH 746 0
DWIDTH 9 0
BBX 7 10 1 -1
BITMAP
DE
B6
78
D8
D8
F0
F8
D8
1E
06
ENDCHAR
STARTCHAR uni1303
ENCODING 4867
SWIDTH 646 0
DWIDTH 8 0
BBX 7 10 1 -1
BITMAP
CC
FE
38
78
78
70
38
D8
D8
18
ENDCHAR
STARTCHAR uni1304
ENCODING 4868
SWIDTH 766 0
DWIDTH 9 0
BBX 8 11 1 -2
BITMAP
04
9C
F8
58
D8
F0
C0
60
FF
CF
0F
ENDCHAR
STARTCHAR uni1305
ENCODING 4869
SWIDTH 799 0
DWIDTH 10 0
BBX 8 10 1 -1
BITMAP
C6
FE
1C
3C
3F
3B
30
30
FC
C4
ENDCHAR
STARTCHAR uni1306
ENCODING 4870
SWIDTH 746 0
DWIDTH 10 0
BBX 9 10 0 -1
BITMAP
6180
7F80
1F00
3300
3300
3C00
3F00
4300
C080
C000
ENDCHAR
STARTCHAR uni1307
ENCODING 4871
SWIDTH 933 0
DWIDTH 11 0
BBX 10 11 0 -1
BITMAP
0300
6F00
5C00
2600
6600
6800
7000
3000
FE00
DFC0
18C0
ENDCHAR
STARTCHAR uni1308
ENCODING 4872
SWIDTH 459 0
DWIDTH 6 0
BBX 4 7 1 0
BITMAP
70
F0
30
30
30
30
30
ENDCHAR
STARTCHAR uni1309
ENCODING 4873
SWIDTH 700 0
DWIDTH 8 0
BBX 7 7 1 0
BITMAP
78
D8
16
16
30
30
30
ENDCHAR
STARTCHAR uni130A
ENCODING 4874
SWIDTH 700 0
DWIDTH 8 0
BBX 8 8 1 -1
BITMAP
78
D8
18
18
30
30
36
0F
ENDCHAR
STARTCHAR uni130B
ENCODING 4875
SWIDTH 660 0
DWIDTH 8 0
BBX 7 8 1 -1
BITMAP
0E
36
06
06
0C
08
F0
C0
ENDCHAR
STARTCHAR uni130C
ENCODING 4876
SWIDTH 592 0
DWIDTH 7 0
BBX 6 7 1 0
BITMAP
70
F0
30
20
3C
3C
3C
ENDCHAR
STARTCHAR uni130D
ENCODING 4877
SWIDTH 620 0
DWIDTH 7 0
BBX 7 7 0 0
BITMAP
1E
FE
FE
06
06
06
06
ENDCHAR
STARTCHAR uni130E
ENCODING 4878
SWIDTH 505 0
DWIDTH 6 0
BBX 5 8 1 0
BITMAP
30
38
D8
D8
18
30
30
30
ENDCHAR
STARTCHAR uni130F
ENCODING 4879
SWIDTH 550 0
DWIDTH 8 0
BBX 7 10 0 -2
BITMAP
18
1E
66
64
0C
0C
18
18
E0
80
ENDCHAR
STARTCHAR uni1310
ENCODING 4880
SWIDTH 839 0
DWIDTH 10 0
BBX 9 8 1 0
BITMAP
3800
D800
9B80
1D80
3F80
3000
3000
3000
ENDCHAR
STARTCHAR uni1312
ENCODING 4882
SWIDTH 886 0
DWIDTH 11 0
BBX 9 8 1 0
BITMAP
7000
F600
3600
3C00
3F80
3180
3000
3000
ENDCHAR
STARTCHAR uni1313
ENCODING 4883
SWIDTH 553 0
DWIDTH 7 0
BBX 6 8 1 0
BITMAP
78
D8
18
38
CC
CC
18
18
ENDCHAR
STARTCHAR uni1314
ENCODING 4884
SWIDTH 707 0
DWIDTH 8 0
BBX 8 9 1 -1
BITMAP
3C
6C
0C
0C
18
1F
3F
C0
80
ENDCHAR
STARTCHAR uni1315
ENCODING 4885
SWIDTH 773 0
DWIDTH 10 0
BBX 8 8 1 0
BITMAP
70
F6
36
3C
3B
31
30
30
ENDCHAR
STARTCHAR uni1318
ENCODING 4888
SWIDTH 632 0
DWIDTH 8 0
BBX 8 9 1 0
BITMAP
03
DF
FE
66
46
0C
0C
18
18
ENDCHAR
STARTCHAR uni1319
ENCODING 4889
SWIDTH 765 0
DWIDTH 10 0
BBX 9 9 0 0
BITMAP
0600
DB00
FC00
6C00
4D80
0F80
1800
1800
1800
ENDCHAR
STARTCHAR uni131A
ENCODING 4890
SWIDTH 779 0
DWIDTH 9 0
BBX 10 10 0 -1
BITMAP
0300
DF00
FE00
6600
4600
0600
0C00
0C00
0D80
03C0
ENDCHAR
STARTCHAR uni131B
ENCODING 4891
SWIDTH 696 0
DWIDTH 8 0
BBX 7 10 0 -1
BITMAP
02
DE
FE
36
26
06
04
08
F0
C0
ENDCHAR
STARTCHAR uni131C
ENCODING 4892
SWIDTH 654 0
DWIDTH 8 0
BBX 8 9 0 0
BITMAP
DE
FE
6D
4C
0C
08
1F
1B
1F
ENDCHAR
STARTCHAR uni131D
ENCODING 4893
SWIDTH 649 0
DWIDTH 8 0
BBX 8 9 0 0
BITMAP
03
DF
FE
FE
FE
06
06
06
06
ENDCHAR
STARTCHAR uni131E
ENCODING 4894
SWIDTH 649 0
DWIDTH 8 0
BBX 5 9 1 0
BITMAP
08
F8
D0
38
78
98
18
30
30
ENDCHAR
STARTCHAR uni131F
ENCODING 4895
SWIDTH 711 0
DWIDTH 9 0
BBX 9 10 0 -1
BITMAP
0300
DE00
F900
3E00
6600
4600
0E00
0C00
7F80
6180
ENDCHAR
STARTCHAR uni1320
ENCODING 4896
SWIDTH 812 0
DWIDTH 10 0
BBX 9 6 0 0
BITMAP
3F00
6D80
CD80
CD80
CD80
CD80
ENDCHAR
STARTCHAR uni1321
ENCODING 4897
SWIDTH 1025 0
DWIDTH 12 0
BBX 12 6 0 0
BITMAP
3F00
6D80
CDF0
CDB0
CD80
CD80
ENDCHAR
STARTCHAR uni1322
ENCODING 4898
SWIDTH 1060 0
DWIDTH 13 0
BBX 12 7 0 -1
BITMAP
3F00
6D80
CD80
CD80
CD80
CDF0
0030
ENDCHAR
STARTCHAR uni1323
ENCODING 4899
SWIDTH 772 0
DWIDTH 9 0
BBX 9 8 0 0
BITMAP
1F80
2580
4D80
CD80
CD80
0300
0300
0300
ENDCHAR
STARTCHAR uni1324
ENCODING 4900
SWIDTH 945 0
DWIDTH 11 0
BBX 11 6 0 0
BITMAP
1F00
6980
C980
D9E0
D9E0
DDE0
ENDCHAR
STARTCHAR uni1325
ENCODING 4901
SWIDTH 686 0
DWIDTH 9 0
BBX 8 7 0 0
BITMAP
3E
7B
DB
D8
18
18
18
ENDCHAR
STARTCHAR uni1326
ENCODING 4902
SWIDTH 759 0
DWIDTH 10 0
BBX 8 7 1 0
BITMAP
1E
7B
5B
DB
DB
C0
C0
ENDCHAR
STARTCHAR uni1327
ENCODING 4903
SWIDTH 999 0
DWIDTH 12 0
BBX 12 8 0 -2
BITMAP
1F00
2D80
4D80
CD80
CD80
C180
0E70
0810
ENDCHAR
STARTCHAR uni1328
ENCODING 4904
SWIDTH 1100 0
DWIDTH 13 0
BBX 13 6 0 0
BITMAP
3FC0
4660
C660
FFF8
DDD8
FFF0
ENDCHAR
STARTCHAR uni1329
ENCODING 4905
SWIDTH 1120 0
DWIDTH 14 0
BBX 13 6 0 0
BITMAP
1FC0
6678
C678
FFF8
FFF8
C470
ENDCHAR
STARTCHAR uni132A
ENCODING 4906
SWIDTH 1145 0
DWIDTH 14 0
BBX 13 7 0 -1
BITMAP
3FC0
4660
C660
FFE0
DFE0
FFF8
0018
ENDCHAR
STARTCHAR uni132B
ENCODING 4907
SWIDTH 1013 0
DWIDTH 12 0
BBX 12 7 0 0
BITMAP
3FE0
7FB0
DDB0
FF70
0060
00F0
00F0
ENDCHAR
STARTCHAR uni132C
ENCODING 4908
SWIDTH 1259 0
DWIDTH 15 0
BBX 15 6 0 0
BITMAP
3FDE
467E
C67E
FFF8
DDF8
FFF0
ENDCHAR
STARTCHAR uni132D
ENCODING 4909
SWIDTH 1006 0
DWIDTH 12 0
BBX 12 7 0 0
BITMAP
3FE0
7E70
DCB0
F670
0480
0F80
0F80
ENDCHAR
STARTCHAR uni132E
ENCODING 4910
SWIDTH 1112 0
DWIDTH 13 0
BBX 13 7 0 0
BITMAP
1FE0
67F8
47F8
C7F8
D000
F800
F000
ENDCHAR
STARTCHAR uni132F
ENCODING 4911
SWIDTH 1145 0
DWIDTH 14 0
BBX 14 9 0 -2
BITMAP
0FC0
3660
4660
C660
FFE0
DFE0
FFEC
019C
0180
ENDCHAR
STARTCHAR uni1330
ENCODING 4912
SWIDTH 565 0
DWIDTH 7 0
BBX 7 9 0 0
BITMAP
30
10
2C
6C
78
38
6C
C4
C6
ENDCHAR
STARTCHAR uni1331
ENCODING 4913
SWIDTH 798 0
DWIDTH 10 0
BBX 8 9 1 0
BITMAP
30
10
38
78
78
30
7B
CF
CC
ENDCHAR
STARTCHAR uni1332
ENCODING 4914
SWIDTH 826 0
DWIDTH 10 0
BBX 10 10 0 -1
BITMAP
3000
1000
2C00
6C00
7C00
1800
3C00
6C00
C4C0
03C0
ENDCHAR
STARTCHAR uni1333
ENCODING 4915
SWIDTH 565 0
DWIDTH 7 0
BBX 6 9 1 0
BITMAP
30
30
58
D8
F8
70
E8
C8
0C
ENDCHAR
STARTCHAR uni1334
ENCODING 4916
SWIDTH 752 0
DWIDTH 9 0
BBX 9 9 0 0
BITMAP
1800
1800
2C00
6C00
7C00
3800
6F80
4D80
CF80
ENDCHAR
STARTCHAR uni1335
ENCODING 4917
SWIDTH 686 0
DWIDTH 9 0
BBX 8 9 0 0
BITMAP
30
10
2D
6F
78
30
6C
CC
CC
ENDCHAR
STARTCHAR uni1336
ENCODING 4918
SWIDTH 545 0
DWIDTH 7 0
BBX 6 9 0 0
BITMAP
30
10
2C
6C
78
38
7C
C4
C0
ENDCHAR
STARTCHAR uni1337
ENCODING 4919
SWIDTH 705 0
DWIDTH 9 0
BBX 8 11 0 -2
BITMAP
30
30
58
D8
F8
70
78
C8
08
77
61
ENDCHAR
STARTCHAR uni1338
ENCODING 4920
SWIDTH 565 0
DWIDTH 7 0
BBX 7 7 0 0
BITMAP
3C
6C
6C
18
3C
4C
C6
ENDCHAR
STARTCHAR uni1339
ENCODING 4921
SWIDTH 786 0
DWIDTH 9 0
BBX 9 7 0 0
BITMAP
3C00
6C00
6C00
1800
3D80
4F80
C600
ENDCHAR
STARTCHAR uni133A
ENCODING 4922
SWIDTH 806 0
DWIDTH 10 0
BBX 8 7 1 0
BITMAP
70
F0
E0
40
78
DB
DF
ENDCHAR
STARTCHAR uni133B
ENCODING 4923
SWIDTH 525 0
DWIDTH 6 0
BBX 6 7 0 0
BITMAP
70
D8
F8
70
D8
C8
0C
ENDCHAR
STARTCHAR uni133C
ENCODING 4924
SWIDTH 726 0
DWIDTH 9 0
BBX 7 7 1 0
BITMAP
70
F0
E0
30
7E
D6
CE
ENDCHAR
STARTCHAR uni133D
ENCODING 4925
SWIDTH 712 0
DWIDTH 9 0
BBX 8 7 0 0
BITMAP
38
6F
6C
18
3C
4C
C6
ENDCHAR
STARTCHAR uni133E
ENCODING 4926
SWIDTH 540 0
DWIDTH 6 0
BBX 5 7 1 0
BITMAP
70
F0
E0
40
70
D8
C0
ENDCHAR
STARTCHAR uni133F
ENCODING 4927
SWIDTH 787 0
DWIDTH 9 0
BBX 8 10 1 -2
BITMAP
78
D8
D8
30
78
D8
C8
08
77
40
ENDCHAR
STARTCHAR uni1340
ENCODING 4928
SWIDTH 493 0
DWIDTH 7 0
BBX 5 7 1 0
BITMAP
38
58
D8
F8
D8
D8
F0
ENDCHAR
STARTCHAR uni1341
ENCODING 4929
SWIDTH 732 0
DWIDTH 9 0
BBX 8 7 0 0
BITMAP
3C
6C
EC
DF
CF
DC
F8
ENDCHAR
STARTCHAR uni1342
ENCODING 4930
SWIDTH 612 0
DWIDTH 7 0
BBX 6 9 1 -1
BITMAP
70
F0
F0
F0
30
20
60
6C
1C
ENDCHAR
STARTCHAR uni1343
ENCODING 4931
SWIDTH 433 0
DWIDTH 6 0
BBX 4 8 1 0
BITMAP
70
F0
F0
F0
20
20
60
60
ENDCHAR
STARTCHAR uni1344
ENCODING 4932
SWIDTH 545 0
DWIDTH 7 0
BBX 7 8 0 0
BITMAP
78
D8
F8
F8
10
3E
36
3E
ENDCHAR
STARTCHAR uni1345
ENCODING 4933
SWIDTH 493 0
DWIDTH 6 0
BBX 5 7 0 0
BITMAP
30
30
58
F8
D8
D8
F0
ENDCHAR
STARTCHAR uni1346
ENCODING 4934
SWIDTH 580 0
DWIDTH 7 0
BBX 7 8 0 0
BITMAP
1E
3E
36
34
38
60
C0
C0
ENDCHAR
STARTCHAR uni1347
ENCODING 4935
SWIDTH 648 0
DWIDTH 8 0
BBX 7 8 1 0
BITMAP
0E
1E
F6
F4
38
60
C0
C0
ENDCHAR
STARTCHAR uni1348
ENCODING 4936
SWIDTH 700 0
DWIDTH 8 0
BBX 8 7 0 0
BITMAP
18
18
30
60
F8
DF
E3
ENDCHAR
STARTCHAR uni1349
ENCODING 4937
SWIDTH 720 0
DWIDTH 9 0
BBX 8 9 0 0
BITMAP
18
18
30
78
DB
FF
30
60
60
ENDCHAR
STARTCHAR uni134A
ENCODING 4938
SWIDTH 700 0
DWIDTH 8 0
BBX 8 7 0 0
BITMAP
18
18
30
78
DB
DB
E4
ENDCHAR
STARTCHAR uni134B
ENCODING 4939
SWIDTH 706 0
DWIDTH 9 0
BBX 8 8 0 0
BITMAP
1C
18
70
FC
CF
3B
1A
1C
ENDCHAR
STARTCHAR uni134C
ENCODING 4940
SWIDTH 812 0
DWIDTH 10 0
BBX 10 8 0 -1
BITMAP
1800
1800
3000
6000
D800
DBC0
E6C0
07C0
ENDCHAR
STARTCHAR uni134D
ENCODING 4941
SWIDTH 700 0
DWIDTH 8 0
BBX 7 7 0 0
BITMAP
3E
46
F8
D8
FE
36
30
ENDCHAR
STARTCHAR uni134E
ENCODING 4942
SWIDTH 726 0
DWIDTH 9 0
BBX 8 7 0 0
BITMAP
7F
6F
C0
C0
F8
DF
E3
ENDCHAR
STARTCHAR uni134F
ENCODING 4943
SWIDTH 766 0
DWIDTH 10 0
BBX 8 11 1 -2
BITMAP
18
18
30
F8
D8
FF
19
18
1A
E7
80
ENDCHAR
STARTCHAR uni1350
ENCODING 4944
SWIDTH 706 0
DWIDTH 9 0
BBX 7 7 1 0
BITMAP
FE
D6
10
10
30
30
30
ENDCHAR
STARTCHAR uni1351
ENCODING 4945
SWIDTH 706 0
DWIDTH 9 0
BBX 7 7 1 0
BITMAP
FE
D6
20
2C
14
32
30
ENDCHAR
STARTCHAR uni1352
ENCODING 4946
SWIDTH 706 0
DWIDTH 9 0
BBX 7 8 1 -1
BITMAP
FE
D6
10
20
20
20
3E
06
ENDCHAR
STARTCHAR uni1353
ENCODING 4947
SWIDTH 873 0
DWIDTH 11 0
BBX 9 8 1 -1
BITMAP
3F80
3580
4400
0400
0800
0800
F000
C000
ENDCHAR
STARTCHAR uni1354
ENCODING 4948
SWIDTH 706 0
DWIDTH 9 0
BBX 8 7 0 0
BITMAP
FF
DB
38
30
3E
36
3E
ENDCHAR
STARTCHAR uni1355
ENCODING 4949
SWIDTH 706 0
DWIDTH 9 0
BBX 7 7 1 0
BITMAP
FE
D6
18
10
10
10
10
ENDCHAR
STARTCHAR uni1356
ENCODING 4950
SWIDTH 879 0
DWIDTH 11 0
BBX 9 7 1 0
BITMAP
3F80
3D80
1800
1800
7000
C000
C000
ENDCHAR
STARTCHAR uni1357
ENCODING 4951
SWIDTH 746 0
DWIDTH 10 0
BBX 8 8 1 -1
BITMAP
FF
DB
10
10
30
30
3C
C6
ENDCHAR
STARTCHAR uni1358
ENCODING 4952
SWIDTH 707 0
DWIDTH 8 0
BBX 9 8 0 0
BITMAP
6180
7F00
0C00
1800
2000
4C00
CC00
F000
ENDCHAR
STARTCHAR uni1359
ENCODING 4953
SWIDTH 1005 0
DWIDTH 12 0
BBX 12 11 0 -1
BITMAP
2300
3F00
0C00
3FC0
56C0
D6C0
D1C0
F180
0180
01B0
0070
ENDCHAR
STARTCHAR uni135A
ENCODING 4954
SWIDTH 686 0
DWIDTH 9 0
BBX 8 9 0 0
BITMAP
C3
7E
18
30
20
78
DB
DB
E4
ENDCHAR
STARTCHAR uni135D
ENCODING 4957
SWIDTH 0 0
DWIDTH 0 0
BBX 8 2 -7 9
BITMAP
DB
DB
ENDCHAR
STARTCHAR uni135E
ENCODING 4958
SWIDTH 0 0
DWIDTH 0 0
BBX 2 2 -4 9
BITMAP
C0
C0
ENDCHAR
STARTCHAR uni135F
ENCODING 4959
SWIDTH 0 0
DWIDTH 0 0
BBX 5 2 -6 9
BITMAP
D8
D8
ENDCHAR
STARTCHAR uni1360
ENCODING 4960
SWIDTH 686 0
DWIDTH 9 0
BBX 8 8 0 0
BITMAP
99
5E
28
D3
EB
4C
9A
19
ENDCHAR
STARTCHAR uni1361
ENCODING 4961
SWIDTH 580 0
DWIDTH 7 0
BBX 2 5 2 1
BITMAP
C0
C0
00
C0
C0
ENDCHAR
STARTCHAR uni1362
ENCODING 4962
SWIDTH 571 0
DWIDTH 6 0
BBX 4 5 1 1
BITMAP
30
F0
90
F0
C0
ENDCHAR
STARTCHAR uni1363
ENCODING 4963
SWIDTH 592 0
DWIDTH 7 0
BBX 2 6 2 1
BITMAP
C0
40
C0
00
C0
C0
ENDCHAR
STARTCHAR uni1364
ENCODING 4964
SWIDTH 592 0
DWIDTH 7 0
BBX 2 7 2 1
BITMAP
C0
40
C0
00
C0
80
C0
ENDCHAR
STARTCHAR uni1365
ENCODING 4965
SWIDTH 611 0
DWIDTH 7 0
BBX 4 6 1 1
BITMAP
60
60
10
E0
60
60
ENDCHAR
STARTCHAR uni1366
ENCODING 4966
SWIDTH 819 0
DWIDTH 10 0
BBX 7 5 1 1
BITMAP
C0
C0
1E
C0
C0
ENDCHAR
STARTCHAR uni1367
ENCODING 4967
SWIDTH 560 0
DWIDTH 7 0
BBX 2 8 2 0
BITMAP
C0
C0
00
C0
C0
00
C0
C0
ENDCHAR
STARTCHAR uni1368
ENCODING 4968
SWIDTH 571 0
DWIDTH 8 0
BBX 6 5 1 1
BITMAP
30
CC
30
CC
30
ENDCHAR
STARTCHAR uni1369
ENCODING 4969
SWIDTH 505 0
DWIDTH 7 0
BBX 5 9 1 -1
BITMAP
78
80
20
20
78
D8
D8
F8
F8
ENDCHAR
STARTCHAR uni136A
ENCODING 4970
SWIDTH 465 0
DWIDTH 6 0
BBX 5 9 0 -1
BITMAP
78
80
78
D8
D0
E0
F8
70
C8
ENDCHAR
STARTCHAR uni136B
ENCODING 4971
SWIDTH 486 0
DWIDTH 6 0
BBX 5 9 0 -2
BITMAP
F8
00
F8
C0
C0
C0
C0
10
F8
ENDCHAR
STARTCHAR uni136C
ENCODING 4972
SWIDTH 399 0
DWIDTH 5 0
BBX 5 9 0 -2
BITMAP
F8
70
D8
D8
D8
D8
70
30
C8
ENDCHAR
STARTCHAR uni136D
ENCODING 4973
SWIDTH 585 0
DWIDTH 8 0
BBX 7 9 0 -2
BITMAP
3C
78
18
36
60
C0
FC
04
FC
ENDCHAR
STARTCHAR uni136E
ENCODING 4974
SWIDTH 499 0
DWIDTH 6 0
BBX 5 10 0 -2
BITMAP
38
40
F0
D0
20
20
58
78
18
F0
ENDCHAR
STARTCHAR uni136F
ENCODING 4975
SWIDTH 559 0
DWIDTH 7 0
BBX 6 9 0 -2
BITMAP
7C
70
D0
90
20
68
7C
00
7C
ENDCHAR
STARTCHAR uni1370
ENCODING 4976
SWIDTH 652 0
DWIDTH 9 0
BBX 8 10 0 -2
BITMAP
3C
02
7F
5B
18
18
3E
C6
1C
20
ENDCHAR
STARTCHAR uni1371
ENCODING 4977
SWIDTH 492 0
DWIDTH 6 0
BBX 6 10 0 -2
BITMAP
18
F8
CC
CC
FC
CC
D8
F0
00
F8
ENDCHAR
STARTCHAR uni1372
ENCODING 4978
SWIDTH 445 0
DWIDTH 5 0
BBX 5 9 0 -2
BITMAP
F8
00
30
30
30
30
30
00
F8
ENDCHAR
STARTCHAR uni1373
ENCODING 4979
SWIDTH 639 0
DWIDTH 9 0
BBX 7 10 1 -2
BITMAP
78
00
02
FE
30
78
C8
CC
08
78
ENDCHAR
STARTCHAR uni1374
ENCODING 4980
SWIDTH 666 0
DWIDTH 9 0
BBX 8 9 0 -2
BITMAP
3E
0F
5B
DB
DB
DB
73
00
3E
ENDCHAR
STARTCHAR uni1375
ENCODING 4981
SWIDTH 632 0
DWIDTH 9 0
BBX 8 10 0 -2
BITMAP
1E
32
00
FB
DF
E6
06
06
04
FC
ENDCHAR
STARTCHAR uni1376
ENCODING 4982
SWIDTH 472 0
DWIDTH 5 0
BBX 6 10 0 -2
BITMAP
7C
40
08
48
68
70
30
30
00
F8
ENDCHAR
STARTCHAR uni1377
ENCODING 4983
SWIDTH 666 0
DWIDTH 8 0
BBX 7 10 1 -2
BITMAP
78
00
FE
B2
30
30
FC
80
08
78
ENDCHAR
STARTCHAR uni1378
ENCODING 4984
SWIDTH 671 0
DWIDTH 9 0
BBX 8 9 0 -1
BITMAP
3C
20
07
3F
6C
C0
CC
FC
24
ENDCHAR
STARTCHAR uni1379
ENCODING 4985
SWIDTH 852 0
DWIDTH 11 0
BBX 9 10 1 -2
BITMAP
3F00
2000
0F80
FC80
9C00
1C00
1C00
1C00
2000
3F00
ENDCHAR
STARTCHAR uni137A
ENCODING 4986
SWIDTH 479 0
DWIDTH 6 0
BBX 6 10 1 -2
BITMAP
7C
00
F0
F0
10
10
10
10
00
F8
ENDCHAR
STARTCHAR uni137B
ENCODING 4987
SWIDTH 453 0
DWIDTH 6 0
BBX 6 9 0 -2
BITMAP
7C
38
78
78
30
30
30
08
F8
ENDCHAR
STARTCHAR uni137C
ENCODING 4988
SWIDTH 687 0
DWIDTH 8 0
BBX 8 9 0 -2
BITMAP
3C
77
FF
EE
FC
CC
CC
00
7E
ENDCHAR
STARTCHAR uni1380
ENCODING 4992
SWIDTH 1212 0
DWIDTH 15 0
BBX 14 5 0 2
BITMAP
3FC8
6F78
CB7C
DBC0
F800
ENDCHAR
STARTCHAR uni1381
ENCODING 4993
SWIDTH 1145 0
DWIDTH 14 0
BBX 15 8 0 0
BITMAP
3FC0
76D8
D6F0
D1DC
F0DC
0186
0180
0180
ENDCHAR
STARTCHAR uni1382
ENCODING 4994
SWIDTH 933 0
DWIDTH 11 0
BBX 11 10 0 -2
BITMAP
7FC0
DBC0
DBC0
F980
0180
03E0
0360
01E0
0E00
1C00
ENDCHAR
STARTCHAR uni1383
ENCODING 4995
SWIDTH 1180 0
DWIDTH 14 0
BBX 14 8 0 0
BITMAP
3FFC
56FC
D6FC
D780
F000
2000
6000
C000
ENDCHAR
STARTCHAR uni1384
ENCODING 4996
SWIDTH 812 0
DWIDTH 10 0
BBX 10 8 0 0
BITMAP
3C00
4C00
CDC0
CFC0
CFC0
CC00
CC00
CC00
ENDCHAR
STARTCHAR uni1385
ENCODING 4997
SWIDTH 873 0
DWIDTH 11 0
BBX 11 8 0 0
BITMAP
3800
4D00
CD00
CF40
CDC0
CCC0
CC20
CC00
ENDCHAR
STARTCHAR uni1386
ENCODING 4998
SWIDTH 726 0
DWIDTH 9 0
BBX 9 10 0 -2
BITMAP
3C00
4C00
CC00
CC00
CC00
CF80
CD80
0E00
7000
4000
ENDCHAR
STARTCHAR uni1387
ENCODING 4999
SWIDTH 1013 0
DWIDTH 12 0
BBX 11 8 1 0
BITMAP
0E00
1600
36E0
F7E0
F7E0
3600
3600
3600
ENDCHAR
STARTCHAR uni1388
ENCODING 5000
SWIDTH 746 0
DWIDTH 9 0
BBX 9 7 0 0
BITMAP
1800
1B80
3780
6700
F800
DE00
E600
ENDCHAR
STARTCHAR uni1389
ENCODING 5001
SWIDTH 819 0
DWIDTH 10 0
BBX 9 7 0 0
BITMAP
1E00
1E00
3600
6180
F880
DF00
E300
ENDCHAR
STARTCHAR uni138A
ENCODING 5002
SWIDTH 821 0
DWIDTH 10 0
BBX 10 9 0 0
BITMAP
1800
1800
3000
7800
DBC0
F6C0
37C0
6000
6000
ENDCHAR
STARTCHAR uni138B
ENCODING 5003
SWIDTH 794 0
DWIDTH 10 0
BBX 9 7 0 0
BITMAP
3F00
6700
CF80
FF80
D800
FE00
1B00
ENDCHAR
STARTCHAR uni138C
ENCODING 5004
SWIDTH 746 0
DWIDTH 9 0
BBX 9 7 0 0
BITMAP
FF00
D900
3B80
3F80
3780
3000
3000
ENDCHAR
STARTCHAR uni138D
ENCODING 5005
SWIDTH 778 0
DWIDTH 10 0
BBX 10 7 -1 0
BITMAP
7F80
4DC0
8B00
1F00
1B00
1AC0
1840
ENDCHAR
STARTCHAR uni138E
ENCODING 5006
SWIDTH 746 0
DWIDTH 10 0
BBX 8 9 1 -1
BITMAP
FF
DB
10
10
3E
36
34
C8
80
ENDCHAR
STARTCHAR uni138F
ENCODING 5007
SWIDTH 830 0
DWIDTH 10 0
BBX 10 7 0 0
BITMAP
FF00
DB00
1BC0
0FC0
0BC0
1800
1800
ENDCHAR
STARTCHAR uni1390
ENCODING 5008
SWIDTH 224 0
DWIDTH 3 0
BBX 2 2 0 0
BITMAP
C0
C0
ENDCHAR
STARTCHAR uni1391
ENCODING 5009
SWIDTH 517 0
DWIDTH 8 0
BBX 7 2 0 0
BITMAP
C6
FE
ENDCHAR
STARTCHAR uni1392
ENCODING 5010
SWIDTH 231 0
DWIDTH 3 0
BBX 2 8 0 0
BITMAP
C0
C0
00
C0
C0
00
C0
C0
ENDCHAR
STARTCHAR uni1393
ENCODING 5011
SWIDTH 239 0
DWIDTH 3 0
BBX 2 5 0 0
BITMAP
C0
C0
00
C0
C0
ENDCHAR
STARTCHAR uni1394
ENCODING 5012
SWIDTH 517 0
DWIDTH 8 0
BBX 7 2 0 0
BITMAP
FE
C6
ENDCHAR
STARTCHAR uni1395
ENCODING 5013
SWIDTH 987 0
DWIDTH 12 0
BBX 11 3 0 0
BITMAP
0020
0020
FFC0
ENDCHAR
STARTCHAR uni1396
ENCODING 5014
SWIDTH 347 0
DWIDTH 4 0
BBX 4 4 0 0
BITMAP
70
30
20
C0
ENDCHAR
STARTCHAR uni1397
ENCODING 5015
SWIDTH 985 0
DWIDTH 12 0
BBX 11 1 0 0
BITMAP
FFE0
ENDCHAR
STARTCHAR uni1398
ENCODING 5016
SWIDTH 1019 0
DWIDTH 12 0
BBX 12 2 0 0
BITMAP
C400
FFF0
ENDCHAR
STARTCHAR uni1399
ENCODING 5017
SWIDTH 473 0
DWIDTH 6 0
BBX 5 8 0 0
BITMAP
60
60
60
68
F8
C0
C0
C0
ENDCHAR
STARTCHAR uni2000
ENCODING 8192
SWIDTH 480 0
DWIDTH 6 0
BBX 1 1 0 0
BITMAP
00
ENDCHAR
STARTCHAR uni2001
ENCODING 8193
SWIDTH 962 0
DWIDTH 12 0
BBX 1 1 0 0
BITMAP
00
ENDCHAR
STARTCHAR uni2002
ENCODING 8194
SWIDTH 500 0
DWIDTH 6 0
BBX 1 1 0 0
BITMAP
00
ENDCHAR
STARTCHAR uni2003
ENCODING 8195
SWIDTH 1000 0
DWIDTH 12 0
BBX 1 1 0 0
BITMAP
00
ENDCHAR
STARTCHAR uni2004
ENCODING 8196
SWIDTH 320 0
DWIDTH 4 0
BBX 1 1 0 0
BITMAP
00
ENDCHAR
STARTCHAR uni2005
ENCODING 8197
SWIDTH 240 0
DWIDTH 3 0
BBX 1 1 0 0
BITMAP
00
ENDCHAR
STARTCHAR uni2006
ENCODING 8198
SWIDTH 160 0
DWIDTH 2 0
BBX 1 1 0 0
BITMAP
00
ENDCHAR
STARTCHAR uni2007
ENCODING 8199
SWIDTH 540 0
DWIDTH 6 0
BBX 1 1 0 0
BITMAP
00
ENDCHAR
STARTCHAR uni2008
ENCODING 8200
SWIDTH 20 0
DWIDTH 0 0
BBX 1 1 0 0
BITMAP
00
ENDCHAR
STARTCHAR uni2009
ENCODING 8201
SWIDTH 318 0
DWIDTH 4 0
BBX 1 1 0 0
BITMAP
00
ENDCHAR
STARTCHAR uni200A
ENCODING 8202
SWIDTH 0 0
DWIDTH 0 0
BBX 1 1 0 0
BITMAP
00
ENDCHAR
STARTCHAR uni200B
ENCODING 8203
SWIDTH 0 0
DWIDTH 0 0
BBX 1 1 0 0
BITMAP
00
ENDCHAR
STARTCHAR uni200C
ENCODING 8204
SWIDTH 0 0
DWIDTH 0 0
BBX 1 1 0 0
BITMAP
00
ENDCHAR
STARTCHAR uni200D
ENCODING 8205
SWIDTH 0 0
DWIDTH 0 0
BBX 1 1 0 0
BITMAP
00
ENDCHAR
STARTCHAR uni200E
ENCODING 8206
SWIDTH 0 0
DWIDTH 0 0
BBX 1 1 0 0
BITMAP
00
ENDCHAR
STARTCHAR uni200F
ENCODING 8207
SWIDTH 0 0
DWIDTH 0 0
BBX 1 1 0 0
BITMAP
00
ENDCHAR
STARTCHAR uni2010
ENCODING 8208
SWIDTH 319 0
DWIDTH 4 0
BBX 2 1 1 2
BITMAP
C0
ENDCHAR
STARTCHAR uni2011
ENCODING 8209
SWIDTH 319 0
DWIDTH 4 0
BBX 2 1 1 2
BITMAP
C0
ENDCHAR
STARTCHAR figuredash
ENCODING 8210
SWIDTH 562 0
DWIDTH 7 0
BBX 6 1 0 2
BITMAP
FC
ENDCHAR
STARTCHAR endash
ENCODING 8211
SWIDTH 605 0
DWIDTH 7 0
BBX 7 1 0 2
BITMAP
FE
ENDCHAR
STARTCHAR emdash
ENCODING 8212
SWIDTH 1000 0
DWIDTH 12 0
BBX 12 1 0 2
BITMAP
FFF0
ENDCHAR
STARTCHAR uni2015
ENCODING 8213
SWIDTH 971 0
DWIDTH 12 0
BBX 12 1 0 2
BITMAP
FFF0
ENDCHAR
STARTCHAR quoteleft
ENCODING 8216
SWIDTH 353 0
DWIDTH 4 0
BBX 4 4 0 3
BITMAP
70
C0
C0
E0
ENDCHAR
STARTCHAR quoteright
ENCODING 8217
SWIDTH 353 0
DWIDTH 4 0
BBX 4 4 0 3
BITMAP
30
70
30
E0
ENDCHAR
STARTCHAR quotesinglbase
ENCODING 8218
SWIDTH 247 0
DWIDTH 3 0
BBX 2 3 1 -2
BITMAP
C0
40
80
ENDCHAR
STARTCHAR quotedblleft
ENCODING 8220
SWIDTH 652 0
DWIDTH 8 0
BBX 7 4 1 3
BITMAP
7E
D8
D8
FC
ENDCHAR
STARTCHAR quotedblright
ENCODING 8221
SWIDTH 652 0
DWIDTH 9 0
BBX 8 4 0 3
BITMAP
33
77
33
EE
ENDCHAR
STARTCHAR quotedblbase
ENCODING 8222
SWIDTH 453 0
DWIDTH 5 0
BBX 4 3 1 -2
BITMAP
F0
50
A0
ENDCHAR
STARTCHAR dagger
ENCODING 8224
SWIDTH 520 0
DWIDTH 6 0
BBX 7 10 0 -1
BITMAP
30
30
10
FE
10
30
30
10
10
10
ENDCHAR
STARTCHAR daggerdbl
ENCODING 8225
SWIDTH 520 0
DWIDTH 6 0
BBX 7 10 0 -1
BITMAP
30
30
10
FE
10
30
10
FE
10
30
ENDCHAR
STARTCHAR bullet
ENCODING 8226
SWIDTH 372 0
DWIDTH 4 0
BBX 3 3 1 3
BITMAP
C0
E0
C0
ENDCHAR
STARTCHAR ellipsis
ENCODING 8230
SWIDTH 1000 0
DWIDTH 12 0
BBX 10 2 1 0
BITMAP
CCC0
CCC0
ENDCHAR
STARTCHAR uni2027
ENCODING 8231
SWIDTH 187 0
DWIDTH 2 0
BBX 2 1 0 4
BITMAP
C0
ENDCHAR
STARTCHAR uni2028
ENCODING 8232
SWIDTH 0 0
DWIDTH 0 0
BBX 1 1 0 0
BITMAP
00
ENDCHAR
STARTCHAR uni2029
ENCODING 8233
SWIDTH 0 0
DWIDTH 0 0
BBX 1 1 0 0
BITMAP
00
ENDCHAR
STARTCHAR uni202A
ENCODING 8234
SWIDTH 0 0
DWIDTH 0 0
BBX 1 1 0 0
BITMAP
00
ENDCHAR
STARTCHAR uni202B
ENCODING 8235
SWIDTH 0 0
DWIDTH 0 0
BBX 1 1 0 0
BITMAP
00
ENDCHAR
STARTCHAR uni202C
ENCODING 8236
SWIDTH 0 0
DWIDTH 0 0
BBX 1 1 0 0
BITMAP
00
ENDCHAR
STARTCHAR uni202D
ENCODING 8237
SWIDTH 0 0
DWIDTH 0 0
BBX 1 1 0 0
BITMAP
00
ENDCHAR
STARTCHAR uni202E
ENCODING 8238
SWIDTH 0 0
DWIDTH 0 0
BBX 1 1 0 0
BITMAP
00
ENDCHAR
STARTCHAR uni202F
ENCODING 8239
SWIDTH 240 0
DWIDTH 3 0
BBX 1 1 0 0
BITMAP
00
ENDCHAR
STARTCHAR perthousand
ENCODING 8240
SWIDTH 1134 0
DWIDTH 14 0
BBX 13 9 0 0
BITMAP
6200
9200
9400
9800
9B18
74A8
14A8
24A8
4318
ENDCHAR
STARTCHAR guilsinglleft
ENCODING 8249
SWIDTH 399 0
DWIDTH 5 0
BBX 3 6 1 1
BITMAP
20
40
40
C0
40
60
ENDCHAR
STARTCHAR guilsinglright
ENCODING 8250
SWIDTH 399 0
DWIDTH 5 0
BBX 3 6 1 1
BITMAP
80
C0
40
60
C0
80
ENDCHAR
STARTCHAR uni203B
ENCODING 8251
SWIDTH 686 0
DWIDTH 9 0
BBX 8 8 0 0
BITMAP
99
5E
28
D3
EB
4C
9A
19
ENDCHAR
STARTCHAR fraction
ENCODING 8260
SWIDTH 490 0
DWIDTH 6 0
BBX 6 9 0 -1
BITMAP
0C
08
18
10
30
20
60
40
C0
ENDCHAR
STARTCHAR uni2060
ENCODING 8288
SWIDTH 0 0
DWIDTH 0 0
BBX 1 1 0 0
BITMAP
00
ENDCHAR
STARTCHAR zerosuperior
ENCODING 8304
SWIDTH 404 0
DWIDTH 6 0
BBX 5 6 0 3
BITMAP
70
98
98
98
98
70
ENDCHAR
STARTCHAR foursuperior
ENCODING 8308
SWIDTH 404 0
DWIDTH 5 0
BBX 5 4 0 4
BITMAP
30
50
90
F8
ENDCHAR
STARTCHAR fivesuperior
ENCODING 8309
SWIDTH 404 0
DWIDTH 5 0
BBX 4 5 0 4
BITMAP
70
80
B0
D0
70
ENDCHAR
STARTCHAR sixsuperior
ENCODING 8310
SWIDTH 404 0
DWIDTH 5 0
BBX 4 6 0 3
BITMAP
70
80
F0
90
90
70
ENDCHAR
STARTCHAR sevensuperior
ENCODING 8311
SWIDTH 404 0
DWIDTH 5 0
BBX 4 5 0 4
BITMAP
F0
10
20
20
60
ENDCHAR
STARTCHAR eightsuperior
ENCODING 8312
SWIDTH 404 0
DWIDTH 5 0
BBX 4 6 0 3
BITMAP
F0
90
60
90
90
70
ENDCHAR
STARTCHAR ninesuperior
ENCODING 8313
SWIDTH 404 0
DWIDTH 5 0
BBX 4 5 0 4
BITMAP
70
90
90
F0
E0
ENDCHAR
STARTCHAR Euro
ENCODING 8364
SWIDTH 502 0
DWIDTH 6 0
BBX 5 8 1 0
BITMAP
38
40
80
F0
80
E0
C0
78
ENDCHAR
STARTCHAR uni2122
ENCODING 8482
SWIDTH 666 0
DWIDTH 8 0
BBX 7 3 0 5
BITMAP
EA
4A
4E
ENDCHAR
STARTCHAR Omega
ENCODING 8486
SWIDTH 764 0
DWIDTH 10 0
BBX 9 9 0 0
BITMAP
3E00
6300
C180
C180
C180
C180
6300
9480
F780
ENDCHAR
STARTCHAR partialdiff
ENCODING 8706
SWIDTH 516 0
DWIDTH 7 0
BBX 6 10 0 -1
BITMAP
38
08
04
04
74
EC
C4
C8
C8
70
ENDCHAR
STARTCHAR emptyset
ENCODING 8709
SWIDTH 1000 0
DWIDTH 12 0
BBX 10 10 1 -1
BITMAP
1E80
6100
4280
8440
8840
9040
90C0
6180
5E00
8000
ENDCHAR
STARTCHAR Delta
ENCODING 8710
SWIDTH 639 0
DWIDTH 8 0
BBX 8 9 0 0
BITMAP
10
18
18
28
24
44
46
82
FF
ENDCHAR
STARTCHAR product
ENCODING 8719
SWIDTH 745 0
DWIDTH 9 0
BBX 9 9 0 0
BITMAP
FF80
6300
6300
6300
6300
6300
6300
6300
F780
ENDCHAR
STARTCHAR summation
ENCODING 8721
SWIDTH 613 0
DWIDTH 7 0
BBX 7 9 0 0
BITMAP
FE
42
22
10
08
10
20
42
FE
ENDCHAR
STARTCHAR minus
ENCODING 8722
SWIDTH 1000 0
DWIDTH 12 0
BBX 8 1 2 3
BITMAP
FF
ENDCHAR
STARTCHAR uni2219
ENCODING 8729
SWIDTH 187 0
DWIDTH 2 0
BBX 2 1 0 4
BITMAP
C0
ENDCHAR
STARTCHAR radical
ENCODING 8730
SWIDTH 575 0
DWIDTH 7 0
BBX 7 8 0 0
BITMAP
06
04
44
C8
28
28
18
10
ENDCHAR
STARTCHAR infinity
ENCODING 8734
SWIDTH 1000 0
DWIDTH 12 0
BBX 8 3 2 2
BITMAP
E7
99
EF
ENDCHAR
STARTCHAR integral
ENCODING 8747
SWIDTH 471 0
DWIDTH 6 0
BBX 4 11 1 -2
BITMAP
10
20
20
20
20
20
20
20
20
20
C0
ENDCHAR
STARTCHAR approxequal
ENCODING 8776
SWIDTH 1000 0
DWIDTH 12 0
BBX 8 4 2 2
BITMAP
71
8E
71
8E
ENDCHAR
STARTCHAR notequal
ENCODING 8800
SWIDTH 1000 0
DWIDTH 12 0
BBX 8 5 2 1
BITMAP
02
FF
10
FF
40
ENDCHAR
STARTCHAR lessequal
ENCODING 8804
SWIDTH 1000 0
DWIDTH 12 0
BBX 8 7 2 0
BITMAP
03
1C
E0
70
0E
01
FF
ENDCHAR
STARTCHAR greaterequal
ENCODING 8805
SWIDTH 1000 0
DWIDTH 12 0
BBX 8 7 2 0
BITMAP
C0
38
07
0E
70
80
FF
ENDCHAR
STARTCHAR uni25CC
ENCODING 9676
SWIDTH 799 0
DWIDTH 10 0
BBX 6 6 2 1
BITMAP
70
80
04
84
84
E8
ENDCHAR
STARTCHAR uni2713
ENCODING 10003
SWIDTH 942 0
DWIDTH 11 0
BBX 10 8 1 0
BITMAP
0080
01C0
0300
0600
8C00
D800
7000
2000
ENDCHAR
STARTCHAR uni2D80
ENCODING 11648
SWIDTH 1055 0
DWIDTH 13 0
BBX 12 8 1 0
BITMAP
0C00
0C00
0EF0
1DB0
17E0
F600
F600
3200
ENDCHAR
STARTCHAR uni2D81
ENCODING 11649
SWIDTH 862 0
DWIDTH 10 0
BBX 9 8 1 0
BITMAP
7F80
5D80
D580
D780
F600
F000
F000
B000
ENDCHAR
STARTCHAR uni2D82
ENCODING 11650
SWIDTH 881 0
DWIDTH 11 0
BBX 9 8 1 0
BITMAP
0380
1F80
3780
3600
F000
F000
B300
3F00
ENDCHAR
STARTCHAR uni2D83
ENCODING 11651
SWIDTH 766 0
DWIDTH 9 0
BBX 8 8 1 0
BITMAP
0C
0E
13
33
33
F3
B0
30
ENDCHAR
STARTCHAR uni2D84
ENCODING 11652
SWIDTH 840 0
DWIDTH 10 0
BBX 9 9 1 0
BITMAP
3F80
3580
0400
1E00
1600
1600
F600
B000
3000
ENDCHAR
STARTCHAR uni2D85
ENCODING 11653
SWIDTH 734 0
DWIDTH 9 0
BBX 7 8 1 0
BITMAP
1C
36
36
36
36
F6
B0
30
ENDCHAR
STARTCHAR uni2D86
ENCODING 11654
SWIDTH 707 0
DWIDTH 9 0
BBX 8 10 0 -2
BITMAP
0E
1E
1C
EB
CB
08
08
18
E0
80
ENDCHAR
STARTCHAR uni2D87
ENCODING 11655
SWIDTH 726 0
DWIDTH 10 0
BBX 9 12 0 -2
BITMAP
0180
7300
3E00
5E00
1800
EF00
CB00
1880
1800
1800
E000
8000
ENDCHAR
STARTCHAR uni2D88
ENCODING 11656
SWIDTH 660 0
DWIDTH 9 0
BBX 8 10 0 -2
BITMAP
07
7B
DF
C0
F8
18
18
18
E0
80
ENDCHAR
STARTCHAR uni2D89
ENCODING 11657
SWIDTH 712 0
DWIDTH 10 0
BBX 9 11 0 -2
BITMAP
CF00
F300
3F80
6D80
6380
7C00
1800
1800
1800
E000
8000
ENDCHAR
STARTCHAR uni2D8A
ENCODING 11658
SWIDTH 779 0
DWIDTH 9 0
BBX 8 8 1 0
BITMAP
18
18
0E
0C
1E
7B
F3
B1
ENDCHAR
STARTCHAR uni2D8B
ENCODING 11659
SWIDTH 678 0
DWIDTH 8 0
BBX 7 7 1 0
BITMAP
36
36
3E
36
D6
B0
30
ENDCHAR
STARTCHAR uni2D8C
ENCODING 11660
SWIDTH 823 0
DWIDTH 10 0
BBX 9 8 1 0
BITMAP
1E00
3600
3600
F800
B800
7780
6180
6000
ENDCHAR
STARTCHAR uni2D8D
ENCODING 11661
SWIDTH 833 0
DWIDTH 10 0
BBX 9 9 1 0
BITMAP
0C00
0E00
3600
3600
DC00
BF80
7180
6000
6000
ENDCHAR
STARTCHAR uni2D8E
ENCODING 11662
SWIDTH 770 0
DWIDTH 10 0
BBX 9 10 1 -1
BITMAP
3300
7F00
1E00
3600
3600
FC00
9F00
6300
C080
C000
ENDCHAR
STARTCHAR uni2D8F
ENCODING 11663
SWIDTH 957 0
DWIDTH 12 0
BBX 10 7 1 0
BITMAP
0780
0AC0
12C0
32C0
32C0
F400
F000
ENDCHAR
STARTCHAR uni2D90
ENCODING 11664
SWIDTH 1312 0
DWIDTH 16 0
BBX 15 7 1 0
BITMAP
07F0
1BFE
13F6
33FC
3400
FC00
F800
ENDCHAR
STARTCHAR uni2D91
ENCODING 11665
SWIDTH 712 0
DWIDTH 10 0
BBX 8 9 1 0
BITMAP
1C
0C
16
36
FE
8C
1F
73
60
ENDCHAR
STARTCHAR uni2D92
ENCODING 11666
SWIDTH 1070 0
DWIDTH 14 0
BBX 12 7 1 0
BITMAP
0FF0
0D90
0300
0600
0C00
F000
F000
ENDCHAR
STARTCHAR uni2D93
ENCODING 11667
SWIDTH 931 0
DWIDTH 11 0
BBX 11 9 0 0
BITMAP
0600
DE00
F800
3E00
66E0
0760
07E0
0C00
0C00
ENDCHAR
STARTCHAR uni2D94
ENCODING 11668
SWIDTH 985 0
DWIDTH 12 0
BBX 11 9 0 0
BITMAP
0600
DA00
F800
3E80
6780
0680
06E0
0C60
0C00
ENDCHAR
STARTCHAR uni2D95
ENCODING 11669
SWIDTH 755 0
DWIDTH 9 0
BBX 9 10 0 -1
BITMAP
0300
DE00
F900
3E00
6600
0600
0580
0780
7800
4000
ENDCHAR
STARTCHAR uni2D96
ENCODING 11670
SWIDTH 872 0
DWIDTH 11 0
BBX 10 9 0 0
BITMAP
0600
DA00
F800
3E80
6680
0780
04C0
0C00
0C00
ENDCHAR
STARTCHAR uni2DA0
ENCODING 11680
SWIDTH 817 0
DWIDTH 10 0
BBX 9 9 1 0
BITMAP
3F80
3580
0C00
1600
1600
F600
F600
3600
3600
ENDCHAR
STARTCHAR uni2DA1
ENCODING 11681
SWIDTH 918 0
DWIDTH 11 0
BBX 10 9 1 0
BITMAP
3F80
3580
0C00
1600
16C0
F7C0
B600
3600
3600
ENDCHAR
STARTCHAR uni2DA2
ENCODING 11682
SWIDTH 926 0
DWIDTH 11 0
BBX 10 10 1 -1
BITMAP
6F80
7580
0C00
1600
2600
E600
E600
6600
66C0
11C0
ENDCHAR
STARTCHAR uni2DA3
ENCODING 11683
SWIDTH 846 0
DWIDTH 10 0
BBX 9 9 1 0
BITMAP
3780
3D80
0C00
1600
1600
F600
F600
0600
0600
ENDCHAR
STARTCHAR uni2DA4
ENCODING 11684
SWIDTH 873 0
DWIDTH 10 0
BBX 9 9 1 0
BITMAP
7F00
7500
0C80
1600
2600
E600
E780
6780
6780
ENDCHAR
STARTCHAR uni2DA5
ENCODING 11685
SWIDTH 705 0
DWIDTH 9 0
BBX 7 9 1 0
BITMAP
06
FE
DC
16
16
F6
F6
36
36
ENDCHAR
STARTCHAR uni2DA6
ENCODING 11686
SWIDTH 826 0
DWIDTH 10 0
BBX 9 9 1 0
BITMAP
3F80
3500
0400
1E00
1600
F600
F600
3000
3000
ENDCHAR
STARTCHAR uni2DA8
ENCODING 11688
SWIDTH 746 0
DWIDTH 9 0
BBX 8 9 1 0
BITMAP
03
CF
78
18
FE
D3
10
F0
90
ENDCHAR
STARTCHAR uni2DA9
ENCODING 11689
SWIDTH 746 0
DWIDTH 9 0
BBX 8 9 1 0
BITMAP
03
CF
78
1A
FE
D1
36
DE
10
ENDCHAR
STARTCHAR uni2DAA
ENCODING 11690
SWIDTH 758 0
DWIDTH 10 0
BBX 9 10 0 -1
BITMAP
0180
6380
7C00
0C00
7F80
5880
9800
F800
D980
2780
ENDCHAR
STARTCHAR uni2DAB
ENCODING 11691
SWIDTH 766 0
DWIDTH 10 0
BBX 9 11 1 -2
BITMAP
0100
6700
7C80
0800
7F00
5B00
9800
F800
B000
C000
C000
ENDCHAR
STARTCHAR uni2DAC
ENCODING 11692
SWIDTH 758 0
DWIDTH 10 0
BBX 9 9 0 0
BITMAP
0180
6380
7C00
0C80
7F80
5C00
FC00
DB00
1F00
ENDCHAR
STARTCHAR uni2DAD
ENCODING 11693
SWIDTH 786 0
DWIDTH 10 0
BBX 8 10 1 0
BITMAP
06
DC
B2
0C
7F
6B
18
F8
D8
18
ENDCHAR
STARTCHAR uni2DAE
ENCODING 11694
SWIDTH 758 0
DWIDTH 10 0
BBX 9 9 0 0
BITMAP
3180
3E00
1E00
0800
7F00
7B00
7880
D800
1800
ENDCHAR
STARTCHAR uni2DB0
ENCODING 11696
SWIDTH 946 0
DWIDTH 12 0
BBX 11 7 0 0
BITMAP
79E0
7B60
9F00
7B00
6B00
1B00
1B00
ENDCHAR
STARTCHAR uni2DB1
ENCODING 11697
SWIDTH 946 0
DWIDTH 12 0
BBX 11 7 0 0
BITMAP
79E0
7B60
9F20
7BE0
6B00
1B00
1B00
ENDCHAR
STARTCHAR uni2DB2
ENCODING 11698
SWIDTH 932 0
DWIDTH 12 0
BBX 11 8 0 -1
BITMAP
79E0
7B60
9F00
7B00
6B00
1B00
1B60
00E0
ENDCHAR
STARTCHAR uni2DB3
ENCODING 11699
SWIDTH 932 0
DWIDTH 12 0
BBX 11 7 0 0
BITMAP
79E0
7B60
9F00
7B00
7B00
0300
0300
ENDCHAR
STARTCHAR uni2DB4
ENCODING 11700
SWIDTH 932 0
DWIDTH 11 0
BBX 10 7 0 0
BITMAP
79C0
7AC0
9E00
7A00
5BC0
1BC0
1B80
ENDCHAR
STARTCHAR uni2DB5
ENCODING 11701
SWIDTH 932 0
DWIDTH 12 0
BBX 11 10 0 0
BITMAP
6600
7E00
1820
28E0
6D60
4D00
BF00
7B00
6B00
1B00
ENDCHAR
STARTCHAR uni2DB6
ENCODING 11702
SWIDTH 932 0
DWIDTH 12 0
BBX 11 7 0 0
BITMAP
79E0
7B60
9F00
7B00
6B00
1800
1800
ENDCHAR
STARTCHAR uni2DB8
ENCODING 11704
SWIDTH 1294 0
DWIDTH 16 0
BBX 14 6 1 0
BITMAP
0FE0
1330
3330
FF30
BFFC
3FFC
ENDCHAR
STARTCHAR uni2DB9
ENCODING 11705
SWIDTH 1326 0
DWIDTH 16 0
BBX 14 6 1 0
BITMAP
0FE0
1330
333C
FFF0
BFFC
3FFC
ENDCHAR
STARTCHAR uni2DBA
ENCODING 11706
SWIDTH 1332 0
DWIDTH 16 0
BBX 14 7 1 -1
BITMAP
0FE0
1330
3330
FFF0
BFF0
3FFC
000C
ENDCHAR
STARTCHAR uni2DBB
ENCODING 11707
SWIDTH 1219 0
DWIDTH 15 0
BBX 13 7 1 0
BITMAP
0FF0
1DD8
1FD8
FFF8
8030
0078
0078
ENDCHAR
STARTCHAR uni2DBC
ENCODING 11708
SWIDTH 1444 0
DWIDTH 17 0
BBX 16 6 1 0
BITMAP
0FF7
133F
333F
FFFC
FFFC
3FF8
ENDCHAR
STARTCHAR uni2DBD
ENCODING 11709
SWIDTH 1206 0
DWIDTH 14 0
BBX 13 7 1 0
BITMAP
0FF0
1D38
3D58
FD38
8100
03C0
03C0
ENDCHAR
STARTCHAR uni2DBE
ENCODING 11710
SWIDTH 1312 0
DWIDTH 16 0
BBX 15 7 1 0
BITMAP
07F0
1BFE
13F6
33FC
F400
BC00
3800
ENDCHAR
STARTCHAR uni2DC0
ENCODING 11712
SWIDTH 686 0
DWIDTH 8 0
BBX 8 10 0 0
BITMAP
66
1C
0C
0C
0F
7B
FE
18
18
1C
ENDCHAR
STARTCHAR uni2DC1
ENCODING 11713
SWIDTH 672 0
DWIDTH 8 0
BBX 8 10 0 0
BITMAP
66
14
08
08
7F
DB
FA
1F
1F
18
ENDCHAR
STARTCHAR uni2DC2
ENCODING 11714
SWIDTH 686 0
DWIDTH 8 0
BBX 8 11 0 -1
BITMAP
66
1C
0C
0C
0F
7B
FE
18
18
1B
07
ENDCHAR
STARTCHAR uni2DC3
ENCODING 11715
SWIDTH 792 0
DWIDTH 10 0
BBX 8 11 1 -1
BITMAP
32
1C
0C
0C
3F
6F
7E
0C
18
E0
C0
ENDCHAR
STARTCHAR uni2DC4
ENCODING 11716
SWIDTH 672 0
DWIDTH 8 0
BBX 8 10 0 0
BITMAP
66
1C
08
1F
7B
DA
FC
1E
16
3C
ENDCHAR
STARTCHAR uni2DC5
ENCODING 11717
SWIDTH 692 0
DWIDTH 8 0
BBX 7 11 1 -1
BITMAP
DC
50
30
4C
0C
7E
D6
F4
18
30
30
ENDCHAR
STARTCHAR uni2DC6
ENCODING 11718
SWIDTH 660 0
DWIDTH 8 0
BBX 8 10 0 0
BITMAP
33
1E
16
36
3C
1F
7B
DE
F8
18
ENDCHAR
STARTCHAR uni2DC8
ENCODING 11720
SWIDTH 660 0
DWIDTH 8 0
BBX 7 8 1 0
BITMAP
E6
D4
F8
58
D8
D8
D8
D8
ENDCHAR
STARTCHAR uni2DC9
ENCODING 11721
SWIDTH 759 0
DWIDTH 9 0
BBX 8 8 1 0
BITMAP
E6
D4
F8
58
DB
DF
D8
D8
ENDCHAR
STARTCHAR uni2DCA
ENCODING 11722
SWIDTH 792 0
DWIDTH 10 0
BBX 8 9 1 -1
BITMAP
E6
D4
F8
58
D8
D8
D8
DB
07
ENDCHAR
STARTCHAR uni2DCB
ENCODING 11723
SWIDTH 660 0
DWIDTH 8 0
BBX 7 8 1 0
BITMAP
E6
F8
D8
58
D8
D8
18
18
ENDCHAR
STARTCHAR uni2DCC
ENCODING 11724
SWIDTH 766 0
DWIDTH 9 0
BBX 8 8 1 0
BITMAP
E6
D4
F8
58
D8
DF
DB
DF
ENDCHAR
STARTCHAR uni2DCD
ENCODING 11725
SWIDTH 687 0
DWIDTH 8 0
BBX 8 8 0 0
BITMAP
DB
DC
EC
4C
AC
4C
4C
CC
ENDCHAR
STARTCHAR uni2DCE
ENCODING 11726
SWIDTH 645 0
DWIDTH 9 0
BBX 8 8 0 0
BITMAP
E9
FE
E6
66
66
64
60
60
ENDCHAR
STARTCHAR uni2DD0
ENCODING 11728
SWIDTH 720 0
DWIDTH 10 0
BBX 9 10 0 0
BITMAP
4400
2A00
FF00
DB80
1D80
0980
1980
1980
1980
1980
ENDCHAR
STARTCHAR uni2DD1
ENCODING 11729
SWIDTH 945 0
DWIDTH 11 0
BBX 12 10 0 0
BITMAP
6C00
2A00
FF00
DF80
1D80
0980
19F0
1980
1980
1980
ENDCHAR
STARTCHAR uni2DD2
ENCODING 11730
SWIDTH 945 0
DWIDTH 11 0
BBX 11 11 0 -1
BITMAP
6C00
2A00
FF00
DF00
1B00
0B00
1B00
1B00
1B00
1B60
00E0
ENDCHAR
STARTCHAR uni2DD3
ENCODING 11731
SWIDTH 720 0
DWIDTH 10 0
BBX 9 10 0 0
BITMAP
4C00
2A00
FF00
DF80
1D80
1980
1980
1980
0180
0180
ENDCHAR
STARTCHAR uni2DD4
ENCODING 11732
SWIDTH 898 0
DWIDTH 11 0
BBX 11 10 0 0
BITMAP
6C00
2A00
FF00
DF00
1B00
0B00
1B00
1BE0
1B60
1BE0
ENDCHAR
STARTCHAR uni2DD5
ENCODING 11733
SWIDTH 792 0
DWIDTH 10 0
BBX 9 10 0 0
BITMAP
6C00
2A00
FE00
D800
1F80
0980
1D80
0980
1980
1B80
ENDCHAR
STARTCHAR uni2DD6
ENCODING 11734
SWIDTH 726 0
DWIDTH 10 0
BBX 9 10 0 0
BITMAP
6C00
2A00
FF00
DF00
1D80
0980
1980
1980
1800
1800
ENDCHAR
STARTCHAR uni2DD8
ENCODING 11736
SWIDTH 486 0
DWIDTH 7 0
BBX 6 9 0 0
BITMAP
CC
68
1C
6C
4C
0C
18
18
18
ENDCHAR
STARTCHAR uni2DD9
ENCODING 11737
SWIDTH 707 0
DWIDTH 9 0
BBX 7 8 1 0
BITMAP
CC
38
D8
D8
1E
36
30
30
ENDCHAR
STARTCHAR uni2DDA
ENCODING 11738
SWIDTH 731 0
DWIDTH 9 0
BBX 9 9 0 -1
BITMAP
CC00
7800
7C00
6C00
0C00
0C00
1800
1B00
0580
ENDCHAR
STARTCHAR uni2DDB
ENCODING 11739
SWIDTH 660 0
DWIDTH 8 0
BBX 7 10 1 -1
BITMAP
66
3C
0E
36
26
06
06
0C
F8
C0
ENDCHAR
STARTCHAR uni2DDC
ENCODING 11740
SWIDTH 600 0
DWIDTH 7 0
BBX 6 9 1 0
BITMAP
D8
70
30
F0
30
20
3C
3C
3C
ENDCHAR
STARTCHAR uni2DDD
ENCODING 11741
SWIDTH 632 0
DWIDTH 8 0
BBX 7 9 0 0
BITMAP
36
1C
3E
DE
F6
06
06
06
06
ENDCHAR
STARTCHAR uni2DDE
ENCODING 11742
SWIDTH 505 0
DWIDTH 7 0
BBX 5 10 1 0
BITMAP
98
70
20
20
38
D8
18
30
30
30
ENDCHAR
STARTCHAR uniAB01
ENCODING 43777
SWIDTH 752 0
DWIDTH 9 0
BBX 9 8 0 0
BITMAP
3000
3000
4C00
CE00
FD80
CD80
CC00
CC00
ENDCHAR
STARTCHAR uniAB02
ENCODING 43778
SWIDTH 786 0
DWIDTH 9 0
BBX 10 9 0 -1
BITMAP
1800
1800
6600
C600
FE00
C600
C600
C6C0
21C0
ENDCHAR
STARTCHAR uniAB03
ENCODING 43779
SWIDTH 553 0
DWIDTH 7 0
BBX 6 8 0 0
BITMAP
30
38
4C
FC
CC
CC
0C
0C
ENDCHAR
STARTCHAR uniAB04
ENCODING 43780
SWIDTH 700 0
DWIDTH 8 0
BBX 8 8 0 0
BITMAP
30
3C
4C
CC
FC
DF
DB
DE
ENDCHAR
STARTCHAR uniAB05
ENCODING 43781
SWIDTH 553 0
DWIDTH 7 0
BBX 6 8 0 0
BITMAP
60
38
4C
CC
FC
CC
CC
CC
ENDCHAR
STARTCHAR uniAB06
ENCODING 43782
SWIDTH 565 0
DWIDTH 7 0
BBX 6 8 0 0
BITMAP
30
30
4C
CC
FC
CC
C0
C0
ENDCHAR
STARTCHAR uniAB09
ENCODING 43785
SWIDTH 853 0
DWIDTH 10 0
BBX 8 9 1 0
BITMAP
0C
0C
3C
34
38
7C
C7
8B
18
ENDCHAR
STARTCHAR uniAB0A
ENCODING 43786
SWIDTH 779 0
DWIDTH 9 0
BBX 8 10 1 -1
BITMAP
0C
0C
3C
34
38
7C
C4
8C
1B
07
ENDCHAR
STARTCHAR uniAB0B
ENCODING 43787
SWIDTH 600 0
DWIDTH 8 0
BBX 6 9 1 0
BITMAP
18
18
3C
34
38
7C
CC
8C
0C
ENDCHAR
STARTCHAR uniAB0C
ENCODING 43788
SWIDTH 867 0
DWIDTH 10 0
BBX 10 9 0 0
BITMAP
0C00
0C00
3400
3800
2000
3000
1FC0
63C0
E380
ENDCHAR
STARTCHAR uniAB0D
ENCODING 43789
SWIDTH 807 0
DWIDTH 10 0
BBX 8 9 1 0
BITMAP
18
18
7C
6F
73
60
20
FC
C6
ENDCHAR
STARTCHAR uniAB0E
ENCODING 43790
SWIDTH 740 0
DWIDTH 9 0
BBX 8 9 0 0
BITMAP
18
1E
26
3E
38
3F
63
C0
C0
ENDCHAR
STARTCHAR uniAB11
ENCODING 43793
SWIDTH 784 0
DWIDTH 9 0
BBX 9 10 0 0
BITMAP
0400
5C00
6000
0C00
6C00
6D80
7F80
6800
4800
E800
ENDCHAR
STARTCHAR uniAB12
ENCODING 43794
SWIDTH 751 0
DWIDTH 9 0
BBX 9 10 0 0
BITMAP
0200
2E00
3000
6600
6600
7E00
6C00
6C00
6D80
E380
ENDCHAR
STARTCHAR uniAB13
ENCODING 43795
SWIDTH 561 0
DWIDTH 7 0
BBX 5 10 1 0
BITMAP
08
B8
C0
D8
D8
F0
D0
D0
10
10
ENDCHAR
STARTCHAR uniAB14
ENCODING 43796
SWIDTH 701 0
DWIDTH 8 0
BBX 8 10 0 0
BITMAP
0C
FC
C0
66
66
7E
6E
4E
4F
6F
ENDCHAR
STARTCHAR uniAB15
ENCODING 43797
SWIDTH 646 0
DWIDTH 8 0
BBX 8 10 0 0
BITMAP
02
DE
E0
FB
DB
1F
1E
1E
1E
1E
ENDCHAR
STARTCHAR uniAB16
ENCODING 43798
SWIDTH 564 0
DWIDTH 7 0
BBX 6 10 0 0
BITMAP
04
5C
60
6C
6C
7C
6C
6C
40
E0
ENDCHAR
STARTCHAR uniAB20
ENCODING 43808
SWIDTH 1100 0
DWIDTH 13 0
BBX 13 9 0 0
BITMAP
0080
3FC0
2000
1FC0
6660
C660
FFF8
DDD8
FFF0
ENDCHAR
STARTCHAR uniAB21
ENCODING 43809
SWIDTH 1120 0
DWIDTH 14 0
BBX 13 9 0 0
BITMAP
0080
3FC0
2000
1FC0
6678
C678
FFF8
FFF8
C470
ENDCHAR
STARTCHAR uniAB22
ENCODING 43810
SWIDTH 1145 0
DWIDTH 14 0
BBX 13 10 0 -1
BITMAP
0080
3F80
2000
3FC0
4660
C660
FFE0
DFE0
FFF8
0018
ENDCHAR
STARTCHAR uniAB23
ENCODING 43811
SWIDTH 1013 0
DWIDTH 12 0
BBX 12 10 0 0
BITMAP
00C0
37C0
3820
3FE0
7FB0
DDB0
FF70
0060
00F0
00F0
ENDCHAR
STARTCHAR uniAB24
ENCODING 43812
SWIDTH 1259 0
DWIDTH 15 0
BBX 15 9 0 0
BITMAP
0080
3FC0
2000
1FDE
667E
C67E
FFF8
DDF8
FFF0
ENDCHAR
STARTCHAR uniAB25
ENCODING 43813
SWIDTH 1006 0
DWIDTH 12 0
BBX 12 10 0 0
BITMAP
00C0
37C0
3800
7FE0
7E70
DCB0
F670
0480
0F80
0F80
ENDCHAR
STARTCHAR uniAB26
ENCODING 43814
SWIDTH 1112 0
DWIDTH 13 0
BBX 13 10 0 0
BITMAP
37C0
3CC0
0000
1FE0
67F8
47F8
C7F8
D000
F800
F000
ENDCHAR
STARTCHAR uniAB28
ENCODING 43816
SWIDTH 632 0
DWIDTH 7 0
BBX 7 9 0 0
BITMAP
02
FE
DC
3C
3C
08
1C
2C
66
ENDCHAR
STARTCHAR uniAB29
ENCODING 43817
SWIDTH 848 0
DWIDTH 10 0
BBX 9 9 0 0
BITMAP
DE00
FE00
3C00
3C00
3800
1000
1D80
2F80
6600
ENDCHAR
STARTCHAR uniAB2A
ENCODING 43818
SWIDTH 868 0
DWIDTH 10 0
BBX 10 9 0 0
BITMAP
DE00
FE00
6C00
6C00
1800
3C00
3600
66C0
67C0
ENDCHAR
STARTCHAR uniAB2B
ENCODING 43819
SWIDTH 637 0
DWIDTH 8 0
BBX 7 9 0 0
BITMAP
DE
FE
3C
3C
38
18
3C
34
06
ENDCHAR
STARTCHAR uniAB2C
ENCODING 43820
SWIDTH 788 0
DWIDTH 10 0
BBX 9 9 0 0
BITMAP
DE00
FE00
6C00
6800
1800
3C00
3780
6580
6780
ENDCHAR
STARTCHAR uniAB2D
ENCODING 43821
SWIDTH 775 0
DWIDTH 10 0
BBX 9 9 0 0
BITMAP
0200
FF00
DC00
3F80
3D00
0800
1C00
2C00
6600
ENDCHAR
STARTCHAR uniAB2E
ENCODING 43822
SWIDTH 632 0
DWIDTH 8 0
BBX 7 9 0 0
BITMAP
DE
FE
3C
3C
08
1C
14
36
30
ENDCHAR
STARTCHAR uni1383.sebLes
ENCODING 57377
SWIDTH 1305 0
DWIDTH 16 0
BBX 15 5 0 2
BITMAP
3FE8
6F68
CB7E
DBC6
F800
ENDCHAR
STARTCHAR uni1387.sebLes
ENCODING 57385
SWIDTH 866 0
DWIDTH 10 0
BBX 10 8 0 0
BITMAP
3800
4C00
CF00
CF00
CCC0
CCC0
CC00
CC00
ENDCHAR
STARTCHAR uni138B.sebLes
ENCODING 57393
SWIDTH 827 0
DWIDTH 10 0
BBX 10 7 0 0
BITMAP
1B00
1B00
3480
6080
F840
DF00
E300
ENDCHAR
STARTCHAR uni138F.sebLes
ENCODING 57401
SWIDTH 833 0
DWIDTH 10 0
BBX 10 7 0 0
BITMAP
3F00
C980
1900
1B80
1CC0
1800
1800
ENDCHAR
STARTCHAR uni124D.seb2
ENCODING 57408
SWIDTH 767 0
DWIDTH 10 0
BBX 9 9 0 0
BITMAP
7000
3800
4800
7F00
DB00
FA00
1780
3F80
3780
ENDCHAR
STARTCHAR uni12B5.seb2
ENCODING 57409
SWIDTH 937 0
DWIDTH 11 0
BBX 11 8 0 0
BITMAP
C000
C000
FE00
67E0
27E0
45E0
CC00
CC00
ENDCHAR
STARTCHAR uni12C5.seb2
ENCODING 57410
SWIDTH 1155 0
DWIDTH 14 0
BBX 13 9 1 0
BITMAP
0600
DE00
F000
3F80
19B8
09D8
19F8
1B00
1B00
ENDCHAR
STARTCHAR uni1315.seb2
ENCODING 57411
SWIDTH 990 0
DWIDTH 12 0
BBX 12 7 0 0
BITMAP
1E00
FEF0
FFB0
07F0
0600
0600
0600
ENDCHAR
STARTCHAR uniE068
ENCODING 57448
SWIDTH 732 0
DWIDTH 9 0
BBX 9 10 0 0
BITMAP
DE00
F600
1800
1800
1E00
0800
1F00
1B00
3300
3180
ENDCHAR
STARTCHAR uniE069
ENCODING 57449
SWIDTH 958 0
DWIDTH 12 0
BBX 11 10 0 0
BITMAP
DE00
F600
1800
1800
1E00
0800
1F20
1BE0
3320
3180
ENDCHAR
STARTCHAR uniE06A
ENCODING 57450
SWIDTH 972 0
DWIDTH 12 0
BBX 11 11 0 -1
BITMAP
DE00
F600
1800
1800
1E00
0800
1F00
1B00
3300
3160
00E0
ENDCHAR
STARTCHAR uniE06B
ENCODING 57451
SWIDTH 751 0
DWIDTH 9 0
BBX 9 10 0 0
BITMAP
DE00
F600
1800
1800
1E00
0C00
1B00
3300
3100
0180
ENDCHAR
STARTCHAR uniE06C
ENCODING 57452
SWIDTH 852 0
DWIDTH 10 0
BBX 10 10 0 0
BITMAP
DE00
7200
8100
1000
1000
0800
1E00
17C0
36C0
3780
ENDCHAR
STARTCHAR uniE06D
ENCODING 57453
SWIDTH 738 0
DWIDTH 9 0
BBX 8 11 0 0
BITMAP
06
DE
E0
00
30
08
3C
0E
16
32
33
ENDCHAR
STARTCHAR uniE06E
ENCODING 57454
SWIDTH 700 0
DWIDTH 8 0
BBX 8 10 0 0
BITMAP
DE
F6
18
18
0E
0C
1E
1B
33
31
ENDCHAR
STARTCHAR uniE070
ENCODING 57456
SWIDTH 889 0
DWIDTH 11 0
BBX 10 9 1 -1
BITMAP
C000
6000
7000
2000
7C00
CC00
CC00
0F80
30C0
ENDCHAR
STARTCHAR uniE071
ENCODING 57457
SWIDTH 703 0
DWIDTH 9 0
BBX 7 9 1 -1
BITMAP
7C
D6
D6
DC
F0
10
30
3E
C6
ENDCHAR
STARTCHAR uniE072
ENCODING 57458
SWIDTH 735 0
DWIDTH 9 0
BBX 9 9 0 -1
BITMAP
3C00
CC00
CC00
FE00
0600
0600
0C00
1F80
E180
ENDCHAR
STARTCHAR uni1288.handwriting
ENCODING 57856
SWIDTH 883 0
DWIDTH 11 0
BBX 11 7 0 0
BITMAP
6C00
6C00
6DE0
CF60
CBE0
D800
7000
ENDCHAR
STARTCHAR uni128A.handwriting
ENCODING 57858
SWIDTH 953 0
DWIDTH 11 0
BBX 12 7 0 0
BITMAP
6C00
6D80
6F80
CDE0
CC30
D800
7000
ENDCHAR
STARTCHAR uni128B.handwriting
ENCODING 57859
SWIDTH 791 0
DWIDTH 10 0
BBX 9 9 1 -2
BITMAP
3300
3200
3600
0C00
0C00
1800
1800
E700
8180
ENDCHAR
STARTCHAR uni128C.handwriting
ENCODING 57860
SWIDTH 772 0
DWIDTH 9 0
BBX 7 10 1 -2
BITMAP
6C
6C
68
78
1E
36
38
C0
C0
80
ENDCHAR
STARTCHAR uni128D.handwriting
ENCODING 57861
SWIDTH 879 0
DWIDTH 11 0
BBX 10 7 0 0
BITMAP
6D00
6DC0
6AC0
C800
D800
D000
6000
ENDCHAR
STARTCHAR uniE217
ENCODING 57879
SWIDTH 992 0
DWIDTH 12 0
BBX 11 7 1 0
BITMAP
0300
0300
0200
0FC0
1660
F660
F000
ENDCHAR
STARTCHAR uniE227
ENCODING 57895
SWIDTH 922 0
DWIDTH 11 0
BBX 10 7 1 0
BITMAP
17C0
36C0
F780
FC00
9800
1000
3000
ENDCHAR
STARTCHAR uniE230
ENCODING 57904
SWIDTH 553 0
DWIDTH 7 0
BBX 6 8 0 0
BITMAP
30
30
4C
CC
FC
CC
CC
CC
ENDCHAR
STARTCHAR uniE24F
ENCODING 57935
SWIDTH 686 0
DWIDTH 9 0
BBX 7 11 1 -1
BITMAP
08
B8
C4
D8
D8
D8
F8
D8
10
FE
C6
ENDCHAR
STARTCHAR uniE257
ENCODING 57943
SWIDTH 740 0
DWIDTH 9 0
BBX 8 12 0 -2
BITMAP
01
DF
EE
1E
1C
3F
DB
FE
18
18
E0
80
ENDCHAR
STARTCHAR uniE25F
ENCODING 57951
SWIDTH 933 0
DWIDTH 11 0
BBX 10 10 1 -1
BITMAP
1800
1800
6C00
7C00
6800
7000
3000
CE00
9FC0
10C0
ENDCHAR
STARTCHAR uniE26F
ENCODING 57967
SWIDTH 793 0
DWIDTH 10 0
BBX 9 9 1 0
BITMAP
0180
3F80
2000
1C00
3600
3600
F600
B600
3000
ENDCHAR
STARTCHAR uni1298.gumuz
ENCODING 58000
SWIDTH 629 0
DWIDTH 8 0
BBX 7 10 0 0
BITMAP
02
DE
F8
18
1E
06
04
0C
0C
0C
ENDCHAR
STARTCHAR uni1299.gumuz
ENCODING 58001
SWIDTH 762 0
DWIDTH 10 0
BBX 9 10 0 0
BITMAP
0200
DE00
7900
9800
1E00
0600
0780
0C80
0C00
0C00
ENDCHAR
STARTCHAR uni129A.gumuz
ENCODING 58002
SWIDTH 670 0
DWIDTH 8 0
BBX 7 11 0 -1
BITMAP
06
DE
E8
18
1A
06
0C
0C
18
1A
06
ENDCHAR
STARTCHAR uni129B.gumuz
ENCODING 58003
SWIDTH 631 0
DWIDTH 8 0
BBX 7 10 0 0
BITMAP
06
DE
BE
E6
C0
C0
F8
18
18
18
ENDCHAR
STARTCHAR uni129C.gumuz
ENCODING 58004
SWIDTH 675 0
DWIDTH 8 0
BBX 8 10 0 0
BITMAP
03
FE
41
98
18
06
0C
0F
1B
1E
ENDCHAR
STARTCHAR uni129D.gumuz
ENCODING 58005
SWIDTH 656 0
DWIDTH 8 0
BBX 8 10 0 0
BITMAP
02
DE
FE
36
04
0B
06
06
04
0C
ENDCHAR
STARTCHAR uni129E.gumuz
ENCODING 58006
SWIDTH 660 0
DWIDTH 8 0
BBX 8 10 0 0
BITMAP
06
FE
3F
5B
DF
C0
F8
18
18
18
ENDCHAR
STARTCHAR uniE2A8
ENCODING 58024
SWIDTH 565 0
DWIDTH 7 0
BBX 7 9 0 0
BITMAP
FE
60
7C
2C
6C
6C
6C
6C
6C
ENDCHAR
STARTCHAR uniE2A9
ENCODING 58025
SWIDTH 779 0
DWIDTH 9 0
BBX 9 9 0 0
BITMAP
FE00
6000
7C00
2C00
6D80
6F80
6C00
6C00
6C00
ENDCHAR
STARTCHAR uniE2AA
ENCODING 58026
SWIDTH 792 0
DWIDTH 10 0
BBX 9 10 0 -1
BITMAP
FE00
6000
7C00
2C00
6C00
6C00
6C00
6C00
6D80
0380
ENDCHAR
STARTCHAR uniE2AB
ENCODING 58027
SWIDTH 565 0
DWIDTH 7 0
BBX 7 9 0 0
BITMAP
FE
60
7C
6C
6C
6C
6C
0C
0C
ENDCHAR
STARTCHAR uniE2AC
ENCODING 58028
SWIDTH 779 0
DWIDTH 10 0
BBX 9 9 0 0
BITMAP
FE00
C000
FC00
3600
6600
6600
6E00
6F80
6F80
ENDCHAR
STARTCHAR uniE2AD
ENCODING 58029
SWIDTH 600 0
DWIDTH 7 0
BBX 7 8 0 0
BITMAP
FE
C0
FC
4C
2C
4C
CC
CC
ENDCHAR
STARTCHAR uniE2AE
ENCODING 58030
SWIDTH 553 0
DWIDTH 7 0
BBX 6 9 0 0
BITMAP
FC
C0
F8
4C
CC
CC
CC
C0
C0
ENDCHAR
STARTCHAR uniE2B7
ENCODING 58039
SWIDTH 700 0
DWIDTH 8 0
BBX 8 10 0 -2
BITMAP
30
30
48
C8
F8
C8
C8
18
E7
80
ENDCHAR
STARTCHAR uniE2BF
ENCODING 58047
SWIDTH 747 0
DWIDTH 9 0
BBX 8 9 0 0
BITMAP
03
DF
FB
1F
0B
0B
7B
58
18
ENDCHAR
STARTCHAR uniE2D7
ENCODING 58071
SWIDTH 650 0
DWIDTH 8 0
BBX 7 8 1 0
BITMAP
1E
36
76
F4
F8
20
40
40
ENDCHAR
STARTCHAR uniE2D8
ENCODING 58072
SWIDTH 564 0
DWIDTH 7 0
BBX 5 10 1 0
BITMAP
08
B8
C0
78
78
78
58
58
58
D8
ENDCHAR
STARTCHAR uniE2E7
ENCODING 58087
SWIDTH 919 0
DWIDTH 12 0
BBX 11 7 0 0
BITMAP
01E0
7B60
5F00
9B00
6B00
7800
1800
ENDCHAR
STARTCHAR uniE2F8
ENCODING 58104
SWIDTH 706 0
DWIDTH 9 0
BBX 7 9 1 0
BITMAP
18
18
6C
7C
68
70
30
FE
C6
ENDCHAR
STARTCHAR uni1313.seb0
ENCODING 58131
SWIDTH 573 0
DWIDTH 7 0
BBX 5 8 1 0
BITMAP
70
98
98
18
18
30
D8
98
ENDCHAR
STARTCHAR uni1318.alt1
ENCODING 58136
SWIDTH 632 0
DWIDTH 7 0
BBX 7 9 0 0
BITMAP
DE
FE
3C
0C
0C
0C
0C
0C
0C
ENDCHAR
STARTCHAR uni1319.alt1
ENCODING 58137
SWIDTH 765 0
DWIDTH 9 0
BBX 9 9 0 0
BITMAP
0200
FF00
FC00
6C00
0F80
0980
1800
1800
1800
ENDCHAR
STARTCHAR uni131A.alt1
ENCODING 58138
SWIDTH 779 0
DWIDTH 9 0
BBX 10 10 0 -1
BITMAP
0600
FE00
FE00
6600
0600
0600
0C00
0C00
0D80
03C0
ENDCHAR
STARTCHAR uni131B.alt1
ENCODING 58139
SWIDTH 696 0
DWIDTH 8 0
BBX 7 10 0 -1
BITMAP
02
FE
FE
36
06
06
0C
18
E0
C0
ENDCHAR
STARTCHAR uni131C.alt1
ENCODING 58140
SWIDTH 654 0
DWIDTH 9 0
BBX 8 9 0 0
BITMAP
DE
FE
6C
0C
0C
18
1F
1B
1F
ENDCHAR
STARTCHAR uni131D.alt1
ENCODING 58141
SWIDTH 649 0
DWIDTH 8 0
BBX 8 9 0 0
BITMAP
02
FF
5E
FE
FE
06
06
06
06
ENDCHAR
STARTCHAR uni131E.alt1
ENCODING 58142
SWIDTH 649 0
DWIDTH 9 0
BBX 8 9 0 0
BITMAP
03
DE
F9
3E
66
06
06
0C
0C
ENDCHAR
STARTCHAR uni1287.alt3
ENCODING 58143
SWIDTH 649 0
DWIDTH 9 0
BBX 8 11 0 -2
BITMAP
03
DE
F9
3E
66
06
0E
0C
0C
70
40
ENDCHAR
STARTCHAR uniE33F
ENCODING 58175
SWIDTH 731 0
DWIDTH 9 0
BBX 8 7 1 0
BITMAP
1E
36
D4
CC
1E
33
30
ENDCHAR
STARTCHAR uni133F.oldstyle
ENCODING 58179
SWIDTH 708 0
DWIDTH 9 0
BBX 8 9 1 -1
BITMAP
3C
6C
7C
7C
18
18
18
E6
81
ENDCHAR
STARTCHAR uniE34F
ENCODING 58191
SWIDTH 928 0
DWIDTH 11 0
BBX 9 7 1 0
BITMAP
1F80
1780
3000
3000
7C00
FF80
3180
ENDCHAR
STARTCHAR uniE370
ENCODING 58224
SWIDTH 370 0
DWIDTH 6 0
BBX 7 3 -2 2
BITMAP
FE
36
3E
ENDCHAR
STARTCHAR uniE371
ENCODING 58225
SWIDTH 340 0
DWIDTH 5 0
BBX 6 3 -2 1
BITMAP
FC
3C
3C
ENDCHAR
STARTCHAR uniE372
ENCODING 58226
SWIDTH 427 0
DWIDTH 6 0
BBX 6 5 -1 1
BITMAP
30
F0
20
1C
04
ENDCHAR
STARTCHAR uniE373
ENCODING 58227
SWIDTH 427 0
DWIDTH 6 0
BBX 6 5 -1 0
BITMAP
30
F0
20
1C
04
ENDCHAR
STARTCHAR uniE374
ENCODING 58228
SWIDTH 153 0
DWIDTH 2 0
BBX 6 4 -4 -2
BITMAP
3C
3C
C0
C0
ENDCHAR
STARTCHAR uniE375
ENCODING 58229
SWIDTH 338 0
DWIDTH 4 0
BBX 5 4 -1 2
BITMAP
20
E0
18
18
ENDCHAR
STARTCHAR uniE376
ENCODING 58230
SWIDTH 338 0
DWIDTH 5 0
BBX 6 5 -2 0
BITMAP
18
18
F0
0C
04
ENDCHAR
STARTCHAR uniE37A
ENCODING 58234
SWIDTH 37 0
DWIDTH 0 0
BBX 2 2 -7 7
BITMAP
C0
C0
ENDCHAR
STARTCHAR uniE37B
ENCODING 58235
SWIDTH 37 0
DWIDTH 0 0
BBX 2 2 -5 7
BITMAP
40
C0
ENDCHAR
STARTCHAR uniE37C
ENCODING 58236
SWIDTH 37 0
DWIDTH 0 0
BBX 2 2 -3 7
BITMAP
C0
C0
ENDCHAR
STARTCHAR uniE37D
ENCODING 58237
SWIDTH 224 0
DWIDTH 4 0
BBX 3 2 1 1
BITMAP
E0
C0
ENDCHAR
STARTCHAR uniE37E
ENCODING 58238
SWIDTH 224 0
DWIDTH 3 0
BBX 4 3 2 -2
BITMAP
F0
C0
80
ENDCHAR
STARTCHAR uniE37F
ENCODING 58239
SWIDTH 224 0
DWIDTH 3 0
BBX 4 3 -3 -2
BITMAP
F0
C0
80
ENDCHAR
STARTCHAR uni12F8.oromo
ENCODING 58240
SWIDTH 679 0
DWIDTH 9 0
BBX 8 8 1 0
BITMAP
3C
6C
7C
78
60
30
7E
C7
ENDCHAR
STARTCHAR uni12F9.oromo
ENCODING 58241
SWIDTH 853 0
DWIDTH 10 0
BBX 8 8 1 0
BITMAP
1C
3C
3C
30
3C
CF
9B
18
ENDCHAR
STARTCHAR uni12FA.oromo
ENCODING 58242
SWIDTH 779 0
DWIDTH 9 0
BBX 8 9 1 -1
BITMAP
1C
3C
38
30
7C
CC
9C
1B
07
ENDCHAR
STARTCHAR uni12FB.oromo
ENCODING 58243
SWIDTH 600 0
DWIDTH 8 0
BBX 6 8 1 0
BITMAP
1C
3C
34
38
7C
CC
8C
0C
ENDCHAR
STARTCHAR uni12FC.oromo
ENCODING 58244
SWIDTH 866 0
DWIDTH 10 0
BBX 10 8 0 0
BITMAP
1E00
3E00
2C00
3000
3800
1FC0
61C0
E1C0
ENDCHAR
STARTCHAR uni12FD.oromo
ENCODING 58245
SWIDTH 806 0
DWIDTH 10 0
BBX 8 8 1 0
BITMAP
3C
2C
7F
6B
30
30
FC
C6
ENDCHAR
STARTCHAR uni12FE.oromo
ENCODING 58246
SWIDTH 740 0
DWIDTH 9 0
BBX 8 8 1 0
BITMAP
3C
6C
7C
30
7F
E3
C0
C0
ENDCHAR
STARTCHAR uni1297.oldstyle
ENCODING 58368
SWIDTH 706 0
DWIDTH 8 0
BBX 7 9 1 -2
BITMAP
60
60
78
18
18
18
1A
E6
80
ENDCHAR
STARTCHAR uni1313.oldstyle
ENCODING 58369
SWIDTH 706 0
DWIDTH 8 0
BBX 7 8 1 -1
BITMAP
38
78
18
18
30
30
FE
C6
ENDCHAR
STARTCHAR uni12C3.oldstyle
ENCODING 58371
SWIDTH 873 0
DWIDTH 10 0
BBX 10 11 0 -2
BITMAP
0200
DF00
F800
1F00
0B00
1B00
1B00
1B00
13C0
0CC0
0C00
ENDCHAR
STARTCHAR uni131F.type
ENCODING 58372
SWIDTH 642 0
DWIDTH 8 0
BBX 8 10 0 0
BITMAP
02
DE
FE
66
06
1E
63
63
06
06
ENDCHAR
STARTCHAR uni138A.trad
ENCODING 58373
SWIDTH 766 0
DWIDTH 9 0
BBX 8 12 0 -3
BITMAP
0C
0C
10
78
6C
7F
0F
0F
0B
16
E0
80
ENDCHAR
STARTCHAR uniE406
ENCODING 58374
SWIDTH 812 0
DWIDTH 10 0
BBX 10 9 0 -1
BITMAP
0C00
0C00
1800
3000
7800
DBC0
FEC0
67C0
4000
ENDCHAR
STARTCHAR uni1362.alt2
ENCODING 58376
SWIDTH 571 0
DWIDTH 7 0
BBX 6 7 0 0
BITMAP
30
28
3C
78
F8
70
30
ENDCHAR
STARTCHAR uni1381.seb3
ENCODING 58384
SWIDTH 1097 0
DWIDTH 13 0
BBX 12 9 0 -1
BITMAP
3FC0
76C0
D6C0
D1C0
F080
01C0
01C0
01B0
0030
ENDCHAR
STARTCHAR uni124A.seb3
ENCODING 58385
SWIDTH 916 0
DWIDTH 11 0
BBX 10 8 0 -1
BITMAP
0C00
7F00
DB00
FE00
1900
1F00
1BC0
04C0
ENDCHAR
STARTCHAR uni1385.seb3
ENCODING 58386
SWIDTH 892 0
DWIDTH 11 0
BBX 11 8 0 0
BITMAP
3C00
4C00
CC00
CC00
CD00
CF00
CDC0
CEE0
ENDCHAR
STARTCHAR uni12B2.seb3
ENCODING 58387
SWIDTH 937 0
DWIDTH 11 0
BBX 11 8 0 0
BITMAP
E000
7C00
6C00
6C00
6C00
6D80
6F80
6C60
ENDCHAR
STARTCHAR uni1312.seb3
ENCODING 58388
SWIDTH 854 0
DWIDTH 11 0
BBX 9 9 1 -1
BITMAP
7000
F000
3000
2400
2C00
3C00
3400
3780
0180
ENDCHAR
STARTCHAR uni138D.seb3
ENCODING 58389
SWIDTH 772 0
DWIDTH 10 0
BBX 9 8 0 -1
BITMAP
FF80
DB80
1000
1600
1E00
1600
1780
0980
ENDCHAR
STARTCHAR uni12C2.seb3
ENCODING 58390
SWIDTH 1142 0
DWIDTH 14 0
BBX 12 10 0 -1
BITMAP
0200
DF00
FF00
1B00
0B00
1B40
1B40
1BC0
1B30
0030
ENDCHAR
STARTCHAR uni134F.cohen4
ENCODING 58391
SWIDTH 768 0
DWIDTH 9 0
BBX 7 9 1 -2
BITMAP
3E
26
78
78
7E
16
10
EC
C2
ENDCHAR
STARTCHAR uni129F.cohen8
ENCODING 58392
SWIDTH 666 0
DWIDTH 8 0
BBX 8 9 0 -1
BITMAP
C3
FF
10
3C
0C
18
18
7E
C2
ENDCHAR
STARTCHAR uni121F.cohen2
ENCODING 58393
SWIDTH 833 0
DWIDTH 11 0
BBX 10 9 0 -1
BITMAP
3FC0
2EC0
6AC0
6BC0
7B00
1800
1800
7E00
C200
ENDCHAR
STARTCHAR uni121F.cohen1
ENCODING 58394
SWIDTH 1005 0
DWIDTH 12 0
BBX 10 10 0 0
BITMAP
0300
3300
3C00
0CC0
77C0
D6C0
D7C0
F080
0180
0180
ENDCHAR
STARTCHAR uni122F.cohen3
ENCODING 58395
SWIDTH 686 0
DWIDTH 8 0
BBX 8 8 0 -1
BITMAP
18
10
20
62
7E
11
1C
E6
ENDCHAR
STARTCHAR uni134F.oldstyle
ENCODING 58512
SWIDTH 726 0
DWIDTH 9 0
BBX 8 9 0 0
BITMAP
C3
FC
18
60
FC
CF
3B
19
1C
ENDCHAR
STARTCHAR uniE491
ENCODING 58513
SWIDTH 1042 0
DWIDTH 13 0
BBX 12 10 0 0
BITMAP
6600
1C00
0C00
0CC0
0F40
7BC0
FE30
1800
1800
1C00
ENDCHAR
STARTCHAR uni129F.gumuz
ENCODING 58514
SWIDTH 657 0
DWIDTH 8 0
BBX 8 11 0 -1
BITMAP
02
DE
7F
B6
60
60
78
18
18
1E
66
ENDCHAR
STARTCHAR uniE493
ENCODING 58515
SWIDTH 663 0
DWIDTH 8 0
BBX 7 10 0 0
BITMAP
06
DE
3C
6C
6C
78
30
30
30
30
ENDCHAR
STARTCHAR uniE494
ENCODING 58516
SWIDTH 632 0
DWIDTH 8 0
BBX 7 10 1 -2
BITMAP
FC
1E
F6
F6
F8
98
98
98
08
F8
ENDCHAR
STARTCHAR uniE496
ENCODING 58518
SWIDTH 846 0
DWIDTH 10 0
BBX 10 9 0 -1
BITMAP
1E00
6180
9F80
B7C0
B840
9040
7080
6180
1E00
ENDCHAR
STARTCHAR uni1381.sebLes
ENCODING 58520
SWIDTH 1240 0
DWIDTH 15 0
BBX 15 5 0 2
BITMAP
3FE0
6F78
CB7E
DBC6
F800
ENDCHAR
STARTCHAR uni1383.seb4
ENCODING 58521
SWIDTH 1235 0
DWIDTH 15 0
BBX 14 8 0 0
BITMAP
3FD0
56F0
D6FC
D7CC
F000
2000
6000
C000
ENDCHAR
STARTCHAR uniE49A
ENCODING 58522
SWIDTH 1228 0
DWIDTH 15 0
BBX 14 8 0 0
BITMAP
3FF0
56F0
D6FC
D78C
F004
2000
6000
C000
ENDCHAR
STARTCHAR uniE49C
ENCODING 58524
SWIDTH 0 0
DWIDTH 0 0
BBX 6 1 -6 8
BITMAP
FC
ENDCHAR
STARTCHAR uniE49D
ENCODING 58525
SWIDTH 0 0
DWIDTH 0 0
BBX 6 1 -7 9
BITMAP
FC
ENDCHAR
STARTCHAR uniE49E
ENCODING 58526
SWIDTH 0 0
DWIDTH 0 0
BBX 5 2 -10 7
BITMAP
F8
F8
ENDCHAR
STARTCHAR uniE500
ENCODING 58624
SWIDTH 0 0
DWIDTH 0 0
BBX 4 1 -5 8
BITMAP
F0
ENDCHAR
STARTCHAR uniE501
ENCODING 58625
SWIDTH 0 0
DWIDTH 0 0
BBX 4 1 -6 9
BITMAP
F0
ENDCHAR
STARTCHAR uniE502
ENCODING 58626
SWIDTH 0 0
DWIDTH 0 0
BBX 4 2 -9 7
BITMAP
F0
F0
ENDCHAR
STARTCHAR uniE508
ENCODING 58632
SWIDTH 0 0
DWIDTH 0 0
BBX 2 1 -4 8
BITMAP
C0
ENDCHAR
STARTCHAR uniE509
ENCODING 58633
SWIDTH 0 0
DWIDTH 0 0
BBX 2 1 -5 9
BITMAP
C0
ENDCHAR
STARTCHAR uniE50A
ENCODING 58634
SWIDTH 0 0
DWIDTH 0 0
BBX 2 1 -8 7
BITMAP
C0
ENDCHAR
STARTCHAR uniE50F
ENCODING 58639
SWIDTH 0 0
DWIDTH 0 0
BBX 6 1 -8 9
BITMAP
FC
ENDCHAR
STARTCHAR uniE510
ENCODING 58640
SWIDTH 0 0
DWIDTH 0 0
BBX 7 2 -11 7
BITMAP
DE
F6
ENDCHAR
STARTCHAR uniE511
ENCODING 58641
SWIDTH 0 0
DWIDTH 0 0
BBX 7 2 -9 7
BITMAP
DE
F6
ENDCHAR
STARTCHAR uniE512
ENCODING 58642
SWIDTH 0 0
DWIDTH 0 0
BBX 7 2 -8 7
BITMAP
DE
F6
ENDCHAR
STARTCHAR uniE513
ENCODING 58643
SWIDTH 0 0
DWIDTH 0 0
BBX 7 2 -8 7
BITMAP
DE
F6
ENDCHAR
STARTCHAR uniE514
ENCODING 58644
SWIDTH 0 0
DWIDTH 0 0
BBX 8 2 -7 7
BITMAP
DE
F3
ENDCHAR
STARTCHAR uniE515
ENCODING 58645
SWIDTH 0 0
DWIDTH 0 0
BBX 7 2 -11 8
BITMAP
DE
F6
ENDCHAR
STARTCHAR uniE516
ENCODING 58646
SWIDTH 0 0
DWIDTH 0 0
BBX 7 2 -9 8
BITMAP
DE
F6
ENDCHAR
STARTCHAR uniE517
ENCODING 58647
SWIDTH 0 0
DWIDTH 0 0
BBX 7 2 -8 8
BITMAP
DE
F6
ENDCHAR
STARTCHAR uniE518
ENCODING 58648
SWIDTH 0 0
DWIDTH 0 0
BBX 7 2 -8 8
BITMAP
DE
F6
ENDCHAR
STARTCHAR uniE519
ENCODING 58649
SWIDTH 0 0
DWIDTH 0 0
BBX 8 2 -7 8
BITMAP
DE
F3
ENDCHAR
STARTCHAR uniE51A
ENCODING 58650
SWIDTH 0 0
DWIDTH 0 0
BBX 7 3 -11 8
BITMAP
02
DE
E0
ENDCHAR
STARTCHAR uniE51B
ENCODING 58651
SWIDTH 0 0
DWIDTH 0 0
BBX 7 3 -9 8
BITMAP
06
DE
E0
ENDCHAR
STARTCHAR uniE51C
ENCODING 58652
SWIDTH 0 0
DWIDTH 0 0
BBX 7 3 -8 8
BITMAP
06
DE
E0
ENDCHAR
STARTCHAR uniE51D
ENCODING 58653
SWIDTH 0 0
DWIDTH 0 0
BBX 7 3 -8 8
BITMAP
02
DE
E0
ENDCHAR
STARTCHAR uniE51E
ENCODING 58654
SWIDTH 0 0
DWIDTH 0 0
BBX 8 3 -7 8
BITMAP
02
DE
E1
ENDCHAR
STARTCHAR uniE51F
ENCODING 58655
SWIDTH 0 0
DWIDTH 0 0
BBX 8 3 -9 8
BITMAP
03
FE
C1
ENDCHAR
STARTCHAR uniE520
ENCODING 58656
SWIDTH 152 0
DWIDTH 3 0
BBX 4 3 -2 6
BITMAP
F0
F0
E0
ENDCHAR
STARTCHAR uniE521
ENCODING 58657
SWIDTH 152 0
DWIDTH 3 0
BBX 4 4 -2 4
BITMAP
F0
F0
F0
C0
ENDCHAR
STARTCHAR uniE522
ENCODING 58658
SWIDTH 152 0
DWIDTH 3 0
BBX 4 4 -2 2
BITMAP
F0
F0
F0
C0
ENDCHAR
STARTCHAR uniE528
ENCODING 58664
SWIDTH 6 0
DWIDTH 0 0
BBX 7 2 -8 -2
BITMAP
FE
C6
ENDCHAR
STARTCHAR uniE529
ENCODING 58665
SWIDTH 5 0
DWIDTH 0 0
BBX 7 2 -6 -2
BITMAP
FE
C6
ENDCHAR
STARTCHAR fi
ENCODING 64257
SWIDTH 628 0
DWIDTH 8 0
BBX 8 9 0 0
BITMAP
18
22
60
FE
66
66
66
66
FF
ENDCHAR
STARTCHAR fl
ENCODING 64258
SWIDTH 623 0
DWIDTH 8 0
BBX 8 9 0 0
BITMAP
3E
66
66
FE
66
66
66
66
FF
ENDCHAR
STARTCHAR uniFE00
ENCODING 65024
SWIDTH 0 0
DWIDTH 0 0
BBX 1 1 0 0
BITMAP
00
ENDCHAR
STARTCHAR uniFE01
ENCODING 65025
SWIDTH 0 0
DWIDTH 0 0
BBX 1 1 0 0
BITMAP
00
ENDCHAR
STARTCHAR uniFE02
ENCODING 65026
SWIDTH 0 0
DWIDTH 0 0
BBX 1 1 0 0
BITMAP
00
ENDCHAR
STARTCHAR uniFE03
ENCODING 65027
SWIDTH 0 0
DWIDTH 0 0
BBX 1 1 0 0
BITMAP
00
ENDCHAR
STARTCHAR uniFE04
ENCODING 65028
SWIDTH 0 0
DWIDTH 0 0
BBX 1 1 0 0
BITMAP
00
ENDCHAR
STARTCHAR uniFE05
ENCODING 65029
SWIDTH 0 0
DWIDTH 0 0
BBX 1 1 0 0
BITMAP
00
ENDCHAR
STARTCHAR uniFE06
ENCODING 65030
SWIDTH 0 0
DWIDTH 0 0
BBX 1 1 0 0
BITMAP
00
ENDCHAR
STARTCHAR uniFE07
ENCODING 65031
SWIDTH 0 0
DWIDTH 0 0
BBX 1 1 0 0
BITMAP
00
ENDCHAR
STARTCHAR uniFE08
ENCODING 65032
SWIDTH 0 0
DWIDTH 0 0
BBX 1 1 0 0
BITMAP
00
ENDCHAR
STARTCHAR uniFE09
ENCODING 65033
SWIDTH 0 0
DWIDTH 0 0
BBX 1 1 0 0
BITMAP
00
ENDCHAR
STARTCHAR uniFE0A
ENCODING 65034
SWIDTH 0 0
DWIDTH 0 0
BBX 1 1 0 0
BITMAP
00
ENDCHAR
STARTCHAR uniFE0B
ENCODING 65035
SWIDTH 0 0
DWIDTH 0 0
BBX 1 1 0 0
BITMAP
00
ENDCHAR
STARTCHAR uniFE0C
ENCODING 65036
SWIDTH 0 0
DWIDTH 0 0
BBX 1 1 0 0
BITMAP
00
ENDCHAR
STARTCHAR uniFE0D
ENCODING 65037
SWIDTH 0 0
DWIDTH 0 0
BBX 1 1 0 0
BITMAP
00
ENDCHAR
STARTCHAR uniFE0E
ENCODING 65038
SWIDTH 0 0
DWIDTH 0 0
BBX 1 1 0 0
BITMAP
00
ENDCHAR
STARTCHAR uniFE0F
ENCODING 65039
SWIDTH 0 0
DWIDTH 0 0
BBX 1 1 0 0
BITMAP
00
ENDCHAR
STARTCHAR uniFEFF
ENCODING 65279
SWIDTH 0 0
DWIDTH 0 0
BBX 1 1 0 0
BITMAP
00
ENDCHAR
STARTCHAR uniFFFC
ENCODING 65532
SWIDTH 0 0
DWIDTH 0 0
BBX 1 1 0 0
BITMAP
00
ENDCHAR
STARTCHAR uniFFFD
ENCODING 65533
SWIDTH 962 0
DWIDTH 12 0
BBX 11 11 0 -1
BITMAP
0400
0E00
1900
3480
74C0
FCE0
7CC0
3D80
1D00
0A00
0400
ENDCHAR
STARTCHAR .notdef
ENCODING -1
SWIDTH 1000 0
DWIDTH 12 0
BBX 10 9 1 -1
BITMAP
FFC0
8040
8040
8040
8040
8040
8040
8040
FFC0
ENDCHAR
STARTCHAR .null
ENCODING -1
SWIDTH 0 0
DWIDTH 0 0
BBX 1 1 0 0
BITMAP
00
ENDCHAR
STARTCHAR glyph2
ENCODING -1
SWIDTH 0 0
DWIDTH 0 0
BBX 1 1 0 0
BITMAP
00
ENDCHAR
STARTCHAR exclam.punct
ENCODING -1
SWIDTH 337 0
DWIDTH 4 0
BBX 2 8 1 0
BITMAP
C0
C0
C0
C0
C0
80
00
C0
ENDCHAR
STARTCHAR dollar.punct
ENCODING -1
SWIDTH 562 0
DWIDTH 7 0
BBX 6 10 1 -1
BITMAP
40
E0
D0
C0
E0
58
CC
EC
F0
60
ENDCHAR
STARTCHAR percent.punct
ENCODING -1
SWIDTH 859 0
DWIDTH 10 0
BBX 10 9 0 0
BITMAP
6100
9200
9200
9400
9580
6A40
1240
1240
2180
ENDCHAR
STARTCHAR asterisk.punct
ENCODING -1
SWIDTH 500 0
DWIDTH 6 0
BBX 4 5 1 4
BITMAP
40
60
F0
60
A0
ENDCHAR
STARTCHAR plus.punct
ENCODING -1
SWIDTH 1000 0
DWIDTH 12 0
BBX 7 7 3 0
BITMAP
10
10
10
FE
10
10
10
ENDCHAR
STARTCHAR slash.punct
ENCODING -1
SWIDTH 490 0
DWIDTH 6 0
BBX 6 9 0 -1
BITMAP
04
08
10
10
20
20
40
40
80
ENDCHAR
STARTCHAR zero.punct
ENCODING -1
SWIDTH 562 0
DWIDTH 8 0
BBX 7 8 0 0
BITMAP
38
6C
C6
C6
C6
C6
6C
38
ENDCHAR
STARTCHAR one.punct
ENCODING -1
SWIDTH 562 0
DWIDTH 7 0
BBX 5 8 0 0
BITMAP
70
B0
30
30
30
30
30
78
ENDCHAR
STARTCHAR two.punct
ENCODING -1
SWIDTH 562 0
DWIDTH 8 0
BBX 6 8 1 0
BITMAP
78
CC
CC
0C
18
30
48
F8
ENDCHAR
STARTCHAR three.punct
ENCODING -1
SWIDTH 562 0
DWIDTH 7 0
BBX 7 8 0 0
BITMAP
78
CC
08
3C
0E
06
4C
78
ENDCHAR
STARTCHAR four.punct
ENCODING -1
SWIDTH 562 0
DWIDTH 8 0
BBX 7 8 0 0
BITMAP
0C
1C
2C
4C
4C
FE
0C
0C
ENDCHAR
STARTCHAR five.punct
ENCODING -1
SWIDTH 562 0
DWIDTH 8 0
BBX 6 8 1 0
BITMAP
F8
80
80
F8
0C
0C
9C
F0
ENDCHAR
STARTCHAR six.punct
ENCODING -1
SWIDTH 562 0
DWIDTH 8 0
BBX 7 8 0 0
BITMAP
1C
60
40
DC
E6
C6
C6
7C
ENDCHAR
STARTCHAR seven.punct
ENCODING -1
SWIDTH 562 0
DWIDTH 7 0
BBX 5 8 1 0
BITMAP
F8
08
10
10
20
60
40
80
ENDCHAR
STARTCHAR eight.punct
ENCODING -1
SWIDTH 562 0
DWIDTH 7 0
BBX 7 8 0 0
BITMAP
38
6C
6C
28
54
C6
C6
7C
ENDCHAR
STARTCHAR nine.punct
ENCODING -1
SWIDTH 562 0
DWIDTH 8 0
BBX 7 8 0 0
BITMAP
7C
C6
C6
C6
7E
04
0C
70
ENDCHAR
STARTCHAR equal.punct
ENCODING -1
SWIDTH 1000 0
DWIDTH 12 0
BBX 8 3 2 2
BITMAP
FF
00
FF
ENDCHAR
STARTCHAR question.punct
ENCODING -1
SWIDTH 485 0
DWIDTH 6 0
BBX 5 8 0 0
BITMAP
E0
98
18
18
30
20
20
60
ENDCHAR
STARTCHAR Euro.punct
ENCODING -1
SWIDTH 562 0
DWIDTH 7 0
BBX 6 8 0 0
BITMAP
3C
64
40
F8
F0
44
64
3C
ENDCHAR
STARTCHAR guilsinglleft.punct
ENCODING -1
SWIDTH 244 0
DWIDTH 3 0
BBX 2 4 0 1
BITMAP
40
40
C0
40
ENDCHAR
STARTCHAR quoteleft.punct
ENCODING -1
SWIDTH 247 0
DWIDTH 3 0
BBX 2 4 0 5
BITMAP
40
80
80
C0
ENDCHAR
STARTCHAR quoteright.punct
ENCODING -1
SWIDTH 247 0
DWIDTH 3 0
BBX 2 3 1 5
BITMAP
C0
40
80
ENDCHAR
STARTCHAR quotedblleft.punct
ENCODING -1
SWIDTH 453 0
DWIDTH 5 0
BBX 5 4 0 5
BITMAP
08
50
90
D8
ENDCHAR
STARTCHAR quotedblright.punct
ENCODING -1
SWIDTH 453 0
DWIDTH 5 0
BBX 4 3 1 5
BITMAP
F0
50
A0
ENDCHAR
STARTCHAR guilsinglright.punct
ENCODING -1
SWIDTH 244 0
DWIDTH 3 0
BBX 2 4 0 1
BITMAP
80
40
40
80
ENDCHAR
STARTCHAR exclamdown.punct
ENCODING -1
SWIDTH 337 0
DWIDTH 4 0
BBX 2 8 1 -2
BITMAP
C0
00
80
C0
C0
C0
C0
C0
ENDCHAR
STARTCHAR copyright.punct
ENCODING -1
SWIDTH 836 0
DWIDTH 10 0
BBX 10 10 0 -1
BITMAP
1E00
6180
4E80
9940
B040
B040
9940
4F80
6180
1E00
ENDCHAR
STARTCHAR guillemotleft.punct
ENCODING -1
SWIDTH 441 0
DWIDTH 5 0
BBX 5 4 0 1
BITMAP
48
50
D0
48
ENDCHAR
STARTCHAR twosuperior.punct
ENCODING -1
SWIDTH 366 0
DWIDTH 5 0
BBX 4 6 0 4
BITMAP
F0
10
10
20
50
F0
ENDCHAR
STARTCHAR threesuperior.punct
ENCODING -1
SWIDTH 366 0
DWIDTH 5 0
BBX 4 5 0 5
BITMAP
70
10
30
10
E0
ENDCHAR
STARTCHAR onesuperior.punct
ENCODING -1
SWIDTH 366 0
DWIDTH 4 0
BBX 3 6 1 4
BITMAP
C0
40
40
40
40
E0
ENDCHAR
STARTCHAR guillemotright.punct
ENCODING -1
SWIDTH 441 0
DWIDTH 5 0
BBX 5 4 0 1
BITMAP
A0
58
48
B0
ENDCHAR
STARTCHAR multiply.punct
ENCODING -1
SWIDTH 1000 0
DWIDTH 12 0
BBX 6 7 3 0
BITMAP
84
48
30
20
30
48
84
ENDCHAR
STARTCHAR zerosuperior.punct
ENCODING -1
SWIDTH 366 0
DWIDTH 5 0
BBX 4 6 0 4
BITMAP
60
90
90
90
90
60
ENDCHAR
STARTCHAR foursuperior.punct
ENCODING -1
SWIDTH 366 0
DWIDTH 5 0
BBX 4 5 1 5
BITMAP
20
E0
A0
F0
20
ENDCHAR
STARTCHAR fivesuperior.punct
ENCODING -1
SWIDTH 366 0
DWIDTH 5 0
BBX 4 5 0 5
BITMAP
70
40
70
10
F0
ENDCHAR
STARTCHAR sixsuperior.punct
ENCODING -1
SWIDTH 366 0
DWIDTH 5 0
BBX 4 6 0 4
BITMAP
60
C0
F0
90
90
70
ENDCHAR
STARTCHAR sevensuperior.punct
ENCODING -1
SWIDTH 366 0
DWIDTH 4 0
BBX 4 5 0 5
BITMAP
F0
A0
20
40
40
ENDCHAR
STARTCHAR eightsuperior.punct
ENCODING -1
SWIDTH 366 0
DWIDTH 5 0
BBX 4 6 0 4
BITMAP
F0
90
A0
D0
90
70
ENDCHAR
STARTCHAR ninesuperior.punct
ENCODING -1
SWIDTH 366 0
DWIDTH 5 0
BBX 4 6 0 4
BITMAP
60
90
90
F0
20
60
ENDCHAR
STARTCHAR nonmarkingreturn
ENCODING -1
SWIDTH 450 0
DWIDTH 5 0
BBX 1 1 0 0
BITMAP
00
ENDCHAR
STARTCHAR uni1359.ala2
ENCODING -1
SWIDTH 1005 0
DWIDTH 12 0
BBX 10 10 0 0
BITMAP
0300
3300
3C00
0CC0
77C0
D6C0
D7C0
F080
0180
0180
ENDCHAR
STARTCHAR uni1381.seb5
ENCODING -1
SWIDTH 1097 0
DWIDTH 13 0
BBX 12 9 0 -1
BITMAP
3FC0
76C0
D6C0
D1C0
F080
01C0
01C0
01B0
0030
ENDCHAR
STARTCHAR uni1381.sebLes1
ENCODING -1
SWIDTH 1240 0
DWIDTH 15 0
BBX 15 5 0 2
BITMAP
3FE0
6F78
CB7E
DBC6
F800
ENDCHAR
STARTCHAR uni1383.sebLes4
ENCODING -1
SWIDTH 1305 0
DWIDTH 16 0
BBX 15 5 0 2
BITMAP
3FE8
6F68
CB7E
DBC6
F800
ENDCHAR
STARTCHAR uni1358.ala1
ENCODING -1
SWIDTH 758 0
DWIDTH 9 0
BBX 8 8 0 0
BITMAP
63
7F
08
18
60
CF
D9
E0
ENDCHAR
STARTCHAR uni1387.sebLes2
ENCODING -1
SWIDTH 866 0
DWIDTH 10 0
BBX 10 8 0 0
BITMAP
3800
4C00
CF00
CF00
CCC0
CCC0
CC00
CC00
ENDCHAR
STARTCHAR uni1297.cohen0
ENCODING -1
SWIDTH 706 0
DWIDTH 8 0
BBX 7 9 1 -2
BITMAP
60
60
78
18
18
18
1A
E6
80
ENDCHAR
STARTCHAR uni129F.gumuz1
ENCODING -1
SWIDTH 657 0
DWIDTH 8 0
BBX 8 11 0 -1
BITMAP
02
DE
7F
B6
60
60
78
18
18
1E
66
ENDCHAR
STARTCHAR uni12C3.cohen7
ENCODING -1
SWIDTH 873 0
DWIDTH 10 0
BBX 10 11 0 -2
BITMAP
0200
DF00
F800
1F00
0B00
1B00
1B00
1B00
13C0
0CC0
0C00
ENDCHAR
STARTCHAR uni12E0.cohen6
ENCODING -1
SWIDTH 919 0
DWIDTH 12 0
BBX 11 7 0 0
BITMAP
79E0
7B60
9F00
1B00
1B00
1B00
1B00
ENDCHAR
STARTCHAR uni12E1.cohen6
ENCODING -1
SWIDTH 913 0
DWIDTH 12 0
BBX 11 7 0 0
BITMAP
79E0
7B60
9F20
1BE0
1B00
1B00
1B00
ENDCHAR
STARTCHAR uni12E3.cohen6
ENCODING -1
SWIDTH 919 0
DWIDTH 12 0
BBX 11 7 0 0
BITMAP
79E0
7B60
9F00
1B00
1B00
0300
0300
ENDCHAR
STARTCHAR uni12E4.cohen6
ENCODING -1
SWIDTH 919 0
DWIDTH 11 0
BBX 10 7 0 0
BITMAP
79C0
7AC0
9E00
1E00
1FC0
1EC0
1F80
ENDCHAR
STARTCHAR uni12E5.cohen6
ENCODING -1
SWIDTH 965 0
DWIDTH 12 0
BBX 11 7 0 0
BITMAP
7CE0
6D60
8F00
0D00
0D00
7900
6100
ENDCHAR
STARTCHAR uni12E6.cohen6
ENCODING -1
SWIDTH 919 0
DWIDTH 12 0
BBX 11 7 0 0
BITMAP
01E0
7B60
5F00
9B00
1B00
1800
1800
ENDCHAR
STARTCHAR uni12E0.chaine
ENCODING -1
SWIDTH 919 0
DWIDTH 12 0
BBX 11 9 0 -2
BITMAP
79E0
7B60
9F00
1B00
1B00
1B00
1BC0
6040
4020
ENDCHAR
STARTCHAR uni12E1.chaine
ENCODING -1
SWIDTH 913 0
DWIDTH 12 0
BBX 12 9 -1 -2
BITMAP
7CF0
6DB0
8F90
0DF0
0DA0
0D80
0DF0
7030
4000
ENDCHAR
STARTCHAR uni12E3.chaine
ENCODING -1
SWIDTH 919 0
DWIDTH 12 0
BBX 11 8 0 -1
BITMAP
79E0
5B60
9F00
1B00
1B00
6300
03E0
0060
ENDCHAR
STARTCHAR uni12E4.chaine
ENCODING -1
SWIDTH 919 0
DWIDTH 11 0
BBX 10 9 0 -2
BITMAP
79C0
7AC0
9E00
1E00
1FC0
1EC0
1F80
6000
4000
ENDCHAR
STARTCHAR uni12E5.chaine
ENCODING -1
SWIDTH 919 0
DWIDTH 11 0
BBX 10 9 0 -2
BITMAP
7980
7B00
9F00
1B00
1A00
1A00
1BC0
60C0
4000
ENDCHAR
STARTCHAR uni12E5.oldstyle
ENCODING -1
SWIDTH 965 0
DWIDTH 12 0
BBX 11 7 0 0
BITMAP
7CE0
6D60
8F00
0D00
0D00
7900
6100
ENDCHAR
STARTCHAR uni12E6.chaine
ENCODING -1
SWIDTH 919 0
DWIDTH 12 0
BBX 11 9 0 -2
BITMAP
01E0
7B60
5F00
9B00
1B00
1AE0
1860
6000
6000
ENDCHAR
STARTCHAR uni1313.alonestokes
ENCODING -1
SWIDTH 706 0
DWIDTH 8 0
BBX 7 8 1 -1
BITMAP
38
78
18
18
30
30
FE
C6
ENDCHAR
STARTCHAR uni2D93.blin
ENCODING -1
SWIDTH 931 0
DWIDTH 12 0
BBX 11 9 0 0
BITMAP
0600
FE00
8000
1C00
6DE0
6F60
0FE0
1800
1800
ENDCHAR
STARTCHAR uni2D94.blin
ENCODING -1
SWIDTH 985 0
DWIDTH 12 0
BBX 11 9 0 0
BITMAP
0600
DE00
E000
3D80
6F80
0D80
0DE0
1860
1800
ENDCHAR
STARTCHAR uni2D95.blin
ENCODING -1
SWIDTH 755 0
DWIDTH 10 0
BBX 8 10 1 -1
BITMAP
06
FE
80
3C
CC
0C
0B
1F
E0
80
ENDCHAR
STARTCHAR uni2D96.blin
ENCODING -1
SWIDTH 872 0
DWIDTH 11 0
BBX 10 9 0 0
BITMAP
0600
DE00
E000
3D80
6F80
0CC0
08C0
1800
1800
ENDCHAR
STARTCHAR uni1335.praetorius
ENCODING -1
SWIDTH 574 0
DWIDTH 7 0
BBX 7 10 0 0
BITMAP
C0
F0
10
3C
6C
68
38
6C
C4
C6
ENDCHAR
STARTCHAR uni133F.alt4
ENCODING -1
SWIDTH 708 0
DWIDTH 9 0
BBX 8 9 1 -1
BITMAP
3C
6C
7C
7C
18
18
18
E6
81
ENDCHAR
STARTCHAR uni134F.cohen5
ENCODING -1
SWIDTH 726 0
DWIDTH 9 0
BBX 8 9 0 0
BITMAP
C3
FC
18
60
FC
CF
3B
19
1C
ENDCHAR
STARTCHAR uni138B.sebLes3
ENCODING -1
SWIDTH 827 0
DWIDTH 10 0
BBX 10 7 0 0
BITMAP
1B00
1B00
3480
6080
F840
DF00
E300
ENDCHAR
STARTCHAR uni138F.sebLes5
ENCODING -1
SWIDTH 833 0
DWIDTH 10 0
BBX 10 7 0 0
BITMAP
3F00
C980
1900
1B80
1CC0
1800
1800
ENDCHAR
ENDFONT
